<svg width="200" height="145" viewBox="0 0 200 145" fill="none" xmlns="http://www.w3.org/2000/svg">
<g clip-path="url(#clip0_2_1176)">
<path opacity="0.1" d="M2.16028 78.383C5.32499 91.9096 12.0245 103.602 22.6106 109.277C44.6158 121.055 94.2394 114.979 131.273 108.001C149.987 104.487 166.974 94.7763 179.499 80.4338L2.16028 78.383Z" fill="#00B0FF"/>
<path opacity="0.1" d="M196.372 14.7133H176.051C175.586 14.7133 175.139 14.5284 174.81 14.1992C174.481 13.8699 174.296 13.4234 174.296 12.9578C174.296 12.4922 174.481 12.0457 174.81 11.7164C175.139 11.3872 175.586 11.2023 176.051 11.2023H179.564C179.108 11.1876 178.676 10.9961 178.358 10.6683C178.041 10.3405 177.864 9.9021 177.864 9.44582C177.864 8.98953 178.041 8.55114 178.358 8.22335C178.676 7.89555 179.108 7.70406 179.564 7.68937H177.056C176.6 7.67467 176.167 7.48318 175.85 7.15539C175.533 6.82759 175.355 6.3892 175.355 5.93292C175.355 5.47664 175.533 5.03824 175.85 4.71045C176.167 4.38266 176.6 4.19116 177.056 4.17647H187.662C185.309 3.08268 182.558 2.30426 179.387 1.89591C150.468 -1.81752 140.142 0.639872 136.5 3.172C132.006 6.28931 126.993 8.58263 121.635 9.68736C103.792 13.368 70.422 17.7978 40.1768 8.26908C25.1444 3.52931 13.9732 11.5359 7.27551 24.9093H199.9C199.648 21.0227 198.895 17.4351 197.513 14.2922C197.196 14.5651 196.791 14.7146 196.372 14.7133Z" fill="#00B0FF"/>
<path opacity="0.1" d="M0.435716 50.1504C-0.344763 58.0169 -0.0799499 65.9521 1.22325 73.749L179.635 80.2753C184.602 74.5619 188.772 68.202 192.032 61.3691L0.435716 50.1504ZM70.9999 66.9839H67.487C67.9526 66.9839 68.3992 67.1688 68.7284 67.4981C69.0576 67.8273 69.2426 68.2738 69.2426 68.7394C69.2426 69.205 69.0576 69.6516 68.7284 69.9808C68.3992 70.31 67.9526 70.495 67.487 70.495H47.1662C46.7006 70.495 46.2541 70.31 45.9248 69.9808C45.5956 69.6516 45.4106 69.205 45.4106 68.7394C45.4106 68.2738 45.5956 67.8273 45.9248 67.4981C46.2541 67.1688 46.7006 66.9839 47.1662 66.9839H50.6791C50.223 66.9692 49.7906 66.7777 49.4732 66.4499C49.1558 66.1221 48.9783 65.6837 48.9783 65.2274C48.9783 64.7712 49.1558 64.3328 49.4732 64.005C49.7906 63.6772 50.223 63.4857 50.6791 63.471H48.1707C47.7146 63.4563 47.2822 63.2648 46.9648 62.937C46.6474 62.6092 46.4699 62.1708 46.4699 61.7145C46.4699 61.2583 46.6474 60.8199 46.9648 60.4921C47.2822 60.1643 47.7146 59.9728 48.1707 59.9581H68.4915C68.9475 59.9728 69.38 60.1643 69.6974 60.4921C70.0148 60.8199 70.1923 61.2583 70.1923 61.7145C70.1923 62.1708 70.0148 62.6092 69.6974 62.937C69.38 63.2648 68.9475 63.4563 68.4915 63.471H70.9999C71.456 63.4857 71.8884 63.6772 72.2058 64.005C72.5232 64.3328 72.7007 64.7712 72.7007 65.2274C72.7007 65.6837 72.5232 66.1221 72.2058 66.4499C71.8884 66.7777 71.456 66.9692 70.9999 66.9839Z" fill="#00B0FF"/>
<path opacity="0.1" d="M199.909 25.026L5.12622 29.7657C2.75634 35.8563 1.19404 42.7381 0.464844 49.8788H196.496C197.776 45.6862 198.722 41.3992 199.327 37.0577C199.911 32.863 200.144 28.805 199.909 25.026ZM40.0091 40.5505H36.4962C36.7267 40.5505 36.955 40.596 37.168 40.6842C37.381 40.7724 37.5745 40.9017 37.7375 41.0647C37.9006 41.2277 38.0299 41.4213 38.1181 41.6343C38.2063 41.8473 38.2517 42.0755 38.2517 42.3061C38.2517 42.5366 38.2063 42.7649 38.1181 42.9779C38.0299 43.1909 37.9006 43.3844 37.7375 43.5474C37.5745 43.7105 37.381 43.8398 37.168 43.928C36.955 44.0162 36.7267 44.0616 36.4962 44.0616H16.1754C15.7098 44.0616 15.2632 43.8767 14.934 43.5474C14.6048 43.2182 14.4198 42.7717 14.4198 42.3061C14.4198 41.8405 14.6048 41.394 14.934 41.0647C15.2632 40.7355 15.7098 40.5505 16.1754 40.5505H19.6882C19.2322 40.5359 18.7998 40.3444 18.4824 40.0166C18.165 39.6888 17.9875 39.2504 17.9875 38.7941C17.9875 38.3378 18.165 37.8994 18.4824 37.5716C18.7998 37.2438 19.2322 37.0523 19.6882 37.0376H17.1798C16.7238 37.023 16.2913 36.8315 15.9739 36.5037C15.6565 36.1759 15.4791 35.7375 15.4791 35.2812C15.4791 34.8249 15.6565 34.3865 15.9739 34.0587C16.2913 33.7309 16.7238 33.5394 17.1798 33.5247H37.5007C37.9567 33.5394 38.3892 33.7309 38.7066 34.0587C39.024 34.3865 39.2014 34.8249 39.2014 35.2812C39.2014 35.7375 39.024 36.1759 38.7066 36.5037C38.3892 36.8315 37.9567 37.023 37.5007 37.0376H40.0091C40.4651 37.0523 40.8976 37.2438 41.215 37.5716C41.5324 37.8994 41.7099 38.3378 41.7099 38.7941C41.7099 39.2504 41.5324 39.6888 41.215 40.0166C40.8976 40.3444 40.4651 40.5359 40.0091 40.5505Z" fill="#00B0FF"/>
<path opacity="0.1" d="M102.747 144.178C137.868 144.178 166.338 142.637 166.338 140.736C166.338 138.836 137.868 137.295 102.747 137.295C67.6267 137.295 39.1559 138.836 39.1559 140.736C39.1559 142.637 67.6267 144.178 102.747 144.178Z" fill="#00B0FF"/>
<path d="M155.539 115.428C155.539 115.428 156.54 116.739 155.076 118.709C153.612 120.68 152.405 122.355 152.889 123.589C152.889 123.589 155.096 119.916 156.899 119.865C158.702 119.814 157.515 117.637 155.539 115.428Z" fill="#00B0FF"/>
<path opacity="0.1" d="M155.539 115.428C155.626 115.555 155.694 115.693 155.743 115.838C157.497 117.9 158.43 119.823 156.746 119.871C155.175 119.916 153.291 122.724 152.841 123.433C152.855 123.488 152.873 123.542 152.894 123.595C152.894 123.595 155.102 119.922 156.905 119.871C158.708 119.82 157.515 117.637 155.539 115.428Z" fill="black"/>
<path d="M157.4 117.098C157.4 117.559 157.349 117.933 157.286 117.933C157.222 117.933 157.169 117.559 157.169 117.098C157.169 116.637 157.235 116.854 157.298 116.854C157.362 116.854 157.4 116.637 157.4 117.098Z" fill="#FFD037"/>
<path d="M158.038 117.648C157.634 117.869 157.282 118.002 157.251 117.946C157.22 117.889 157.524 117.665 157.929 117.444C158.334 117.224 158.173 117.384 158.204 117.444C158.235 117.504 158.443 117.428 158.038 117.648Z" fill="#FFD037"/>
<path d="M150.249 115.428C150.249 115.428 149.248 116.739 150.712 118.709C152.176 120.68 153.381 122.355 152.899 123.589C152.899 123.589 150.69 119.916 148.889 119.865C147.088 119.814 148.271 117.637 150.249 115.428Z" fill="#00B0FF"/>
<path opacity="0.1" d="M150.249 115.428C150.162 115.554 150.093 115.692 150.045 115.838C148.291 117.9 147.356 119.823 149.042 119.871C150.612 119.916 152.506 122.724 152.947 123.433C152.932 123.487 152.914 123.54 152.894 123.595C152.894 123.595 150.685 119.922 148.884 119.871C147.082 119.82 148.271 117.637 150.249 115.428Z" fill="black"/>
<path d="M148.388 117.098C148.388 117.559 148.439 117.933 148.502 117.933C148.566 117.933 148.619 117.559 148.619 117.098C148.619 116.637 148.553 116.854 148.49 116.854C148.426 116.854 148.388 116.637 148.388 117.098Z" fill="#FFD037"/>
<path d="M147.748 117.648C148.152 117.869 148.506 118.002 148.537 117.946C148.568 117.889 148.264 117.665 147.859 117.444C147.454 117.224 147.615 117.384 147.584 117.444C147.553 117.504 147.343 117.428 147.748 117.648Z" fill="#FFD037"/>
<path d="M148.707 123.424C148.707 123.424 151.507 123.336 152.353 122.736C153.198 122.137 156.66 121.416 156.87 122.372C157.08 123.327 161.077 127.164 157.916 127.19C154.755 127.215 150.571 126.698 149.729 126.185C148.887 125.673 148.707 123.424 148.707 123.424Z" fill="#A8A8A8"/>
<path opacity="0.2" d="M157.971 126.864C154.81 126.889 150.626 126.371 149.784 125.859C149.142 125.467 148.887 124.065 148.801 123.42H148.708C148.708 123.42 148.891 125.677 149.727 126.191C150.564 126.705 154.753 127.221 157.914 127.195C158.826 127.195 159.143 126.864 159.125 126.382C158.997 126.678 158.649 126.858 157.971 126.864Z" fill="black"/>
<path d="M49.0803 124.448C49.4149 124.175 49.6589 123.807 49.7803 123.393C49.8696 122.975 49.691 122.481 49.2918 122.319C48.8433 122.147 48.3639 122.459 47.9993 122.773C47.6347 123.086 47.2208 123.445 46.745 123.378C46.9897 123.156 47.1728 122.875 47.2763 122.562C47.3798 122.248 47.4003 121.913 47.3357 121.59C47.3149 121.456 47.2582 121.33 47.1716 121.225C46.9219 120.959 46.4716 121.072 46.1726 121.282C45.2247 121.949 44.9603 123.238 44.9549 124.395C44.8601 123.978 44.9403 123.542 44.9385 123.119C44.9366 122.696 44.8181 122.208 44.4572 121.983C44.2332 121.864 43.9818 121.805 43.728 121.812C43.3014 121.796 42.8274 121.839 42.5358 122.149C42.1712 122.538 42.2678 123.187 42.5832 123.608C42.8985 124.029 43.3761 124.302 43.8155 124.596C44.1691 124.806 44.4707 125.093 44.6978 125.436C44.7236 125.485 44.7456 125.535 44.7634 125.587H47.4341C48.0317 125.284 48.5855 124.9 49.0803 124.448Z" fill="#00B0FF"/>
<path d="M27.8553 127.325C27.8553 127.325 25.2922 118.627 28.3348 112.227C29.63 109.55 30.0215 106.525 29.4504 103.606C29.1687 102.224 28.7605 100.87 28.2309 99.5625" stroke="#535461" stroke-width="2" stroke-miterlimit="10"/>
<path d="M30.1176 95.5155C30.1176 96.5819 28.1888 99.6737 28.1888 99.6737C28.1888 99.6737 26.2583 96.5746 26.2583 95.5155C26.2737 95.014 26.4838 94.5382 26.844 94.1889C27.2042 93.8396 27.6862 93.6442 28.1879 93.6442C28.6897 93.6442 29.1717 93.8396 29.5319 94.1889C29.8921 94.5382 30.1021 95.014 30.1176 95.5155Z" fill="#00B0FF"/>
<path d="M33.3078 101.42C32.7299 102.315 29.4285 103.861 29.4285 103.861C29.4285 103.861 29.4886 100.215 30.0683 99.3219C30.3532 98.9075 30.7885 98.6207 31.2816 98.5223C31.7747 98.4239 32.2867 98.5219 32.7087 98.7952C33.1307 99.0686 33.4295 99.4958 33.5413 99.986C33.6532 100.476 33.5694 100.991 33.3078 101.42Z" fill="#00B0FF"/>
<path d="M33.1692 111.51C32.2176 111.99 28.588 111.658 28.588 111.658C28.588 111.658 30.4803 108.543 31.4319 108.063C31.6588 107.943 31.9075 107.869 32.1632 107.846C32.419 107.823 32.6768 107.852 32.9215 107.93C33.1662 108.008 33.3929 108.134 33.5882 108.3C33.7836 108.467 33.9438 108.671 34.0594 108.9C34.1749 109.13 34.2436 109.38 34.2613 109.636C34.279 109.892 34.2455 110.149 34.1626 110.392C34.0797 110.635 33.9491 110.859 33.7785 111.051C33.608 111.243 33.4008 111.399 33.1692 111.51Z" fill="#00B0FF"/>
<path d="M31.3444 119.121C30.4876 119.756 26.8544 120.033 26.8544 120.033C26.8544 120.033 28.1924 116.644 29.042 116.009C29.2442 115.844 29.478 115.721 29.7292 115.648C29.9805 115.575 30.2438 115.554 30.5033 115.587C30.7629 115.619 31.0132 115.703 31.239 115.835C31.4649 115.967 31.6616 116.143 31.8172 116.354C31.9729 116.564 32.0842 116.803 32.1444 117.058C32.2047 117.312 32.2126 117.576 32.1677 117.834C32.1228 118.092 32.026 118.337 31.8832 118.557C31.7405 118.776 31.5547 118.963 31.3371 119.109L31.3444 119.121Z" fill="#00B0FF"/>
<path d="M25.3779 104.067C26.1417 104.809 29.7038 105.58 29.7038 105.58C29.7038 105.58 28.8306 102.042 28.0631 101.298C27.8829 101.114 27.6677 100.968 27.43 100.868C27.1924 100.768 26.9372 100.717 26.6796 100.718C26.4219 100.718 26.1669 100.77 25.9297 100.871C25.6924 100.971 25.4777 101.118 25.2982 101.303C25.1187 101.488 24.978 101.707 24.8845 101.947C24.7909 102.187 24.7463 102.444 24.7534 102.701C24.7605 102.959 24.8191 103.212 24.9257 103.447C25.0323 103.682 25.1848 103.892 25.3742 104.067H25.3779Z" fill="#00B0FF"/>
<path d="M23.3561 112.994C24.3077 113.474 27.9373 113.142 27.9373 113.142C27.9373 113.142 26.045 110.028 25.0934 109.547C24.6377 109.329 24.1147 109.298 23.6365 109.461C23.1583 109.624 22.763 109.968 22.5357 110.419C22.3083 110.871 22.2668 111.393 22.4202 111.874C22.5736 112.356 22.9096 112.758 23.3561 112.994Z" fill="#00B0FF"/>
<path d="M22.5832 121.941C23.44 122.574 27.0714 122.853 27.0714 122.853C27.0714 122.853 25.7351 119.464 24.8838 118.83C24.4715 118.555 23.9693 118.449 23.4811 118.534C22.9928 118.619 22.556 118.888 22.2611 119.287C21.9661 119.685 21.8357 120.181 21.8966 120.673C21.9576 121.165 22.2054 121.615 22.5887 121.929L22.5832 121.941Z" fill="#00B0FF"/>
<path d="M30.1176 95.5155C30.1176 96.5819 28.1888 99.6737 28.1888 99.6737C28.1888 99.6737 26.2583 96.5746 26.2583 95.5155C26.2737 95.014 26.4838 94.5382 26.844 94.1889C27.2042 93.8396 27.6862 93.6442 28.1879 93.6442C28.6897 93.6442 29.1717 93.8396 29.5319 94.1889C29.8921 94.5382 30.1021 95.014 30.1176 95.5155Z" fill="#00B0FF"/>
<path d="M33.3078 101.42C32.7299 102.315 29.4285 103.861 29.4285 103.861C29.4285 103.861 29.4886 100.215 30.0683 99.3219C30.3532 98.9075 30.7885 98.6207 31.2816 98.5223C31.7747 98.4239 32.2867 98.5219 32.7087 98.7952C33.1307 99.0686 33.4295 99.4958 33.5413 99.986C33.6532 100.476 33.5694 100.991 33.3078 101.42Z" fill="#00B0FF"/>
<path d="M33.1692 111.51C32.2176 111.99 28.588 111.658 28.588 111.658C28.588 111.658 30.4803 108.543 31.4319 108.063C31.6588 107.943 31.9075 107.869 32.1632 107.846C32.419 107.823 32.6768 107.852 32.9215 107.93C33.1662 108.008 33.3929 108.134 33.5882 108.3C33.7836 108.467 33.9438 108.671 34.0594 108.9C34.1749 109.13 34.2436 109.38 34.2613 109.636C34.279 109.892 34.2455 110.149 34.1626 110.392C34.0797 110.635 33.9491 110.859 33.7785 111.051C33.608 111.243 33.4008 111.399 33.1692 111.51Z" fill="#00B0FF"/>
<path d="M31.3444 119.121C30.4876 119.756 26.8544 120.033 26.8544 120.033C26.8544 120.033 28.1924 116.644 29.042 116.009C29.2442 115.844 29.478 115.721 29.7292 115.648C29.9805 115.575 30.2438 115.554 30.5033 115.587C30.7629 115.619 31.0132 115.703 31.239 115.835C31.4649 115.967 31.6616 116.143 31.8172 116.354C31.9729 116.564 32.0842 116.803 32.1444 117.058C32.2047 117.312 32.2126 117.576 32.1677 117.834C32.1228 118.092 32.026 118.337 31.8832 118.557C31.7405 118.776 31.5547 118.963 31.3371 119.109L31.3444 119.121Z" fill="#00B0FF"/>
<path d="M25.3779 104.067C26.1417 104.809 29.7038 105.58 29.7038 105.58C29.7038 105.58 28.8306 102.042 28.0631 101.298C27.8829 101.114 27.6677 100.968 27.43 100.868C27.1924 100.768 26.9372 100.717 26.6796 100.718C26.4219 100.718 26.1669 100.77 25.9297 100.871C25.6924 100.971 25.4777 101.118 25.2982 101.303C25.1187 101.488 24.978 101.707 24.8845 101.947C24.7909 102.187 24.7463 102.444 24.7534 102.701C24.7605 102.959 24.8191 103.212 24.9257 103.447C25.0323 103.682 25.1848 103.892 25.3742 104.067H25.3779Z" fill="#00B0FF"/>
<path d="M23.3561 112.994C24.3077 113.474 27.9373 113.142 27.9373 113.142C27.9373 113.142 26.045 110.028 25.0934 109.547C24.6377 109.329 24.1147 109.298 23.6365 109.461C23.1583 109.624 22.763 109.968 22.5357 110.419C22.3083 110.871 22.2668 111.393 22.4202 111.874C22.5736 112.356 22.9096 112.758 23.3561 112.994Z" fill="#00B0FF"/>
<path d="M22.5832 121.941C23.44 122.574 27.0714 122.853 27.0714 122.853C27.0714 122.853 25.7351 119.464 24.8838 118.83C24.4715 118.555 23.9693 118.449 23.4811 118.534C22.9928 118.619 22.556 118.888 22.2611 119.287C21.9661 119.685 21.8357 120.181 21.8966 120.673C21.9576 121.165 22.2054 121.615 22.5887 121.929L22.5832 121.941Z" fill="#00B0FF"/>
<path d="M21.7938 126.778C21.7938 126.778 24.9148 126.158 25.7461 125.332C26.5773 124.506 30.3218 123.061 30.7374 124.093C31.153 125.124 36.3522 128.636 32.8156 129.255C29.279 129.875 24.4973 130.081 23.4582 129.667C22.4191 129.253 21.7938 126.778 21.7938 126.778Z" fill="#A8A8A8"/>
<path opacity="0.2" d="M32.8211 128.869C29.2863 129.489 24.5028 129.695 23.4637 129.283C22.6725 128.967 22.122 127.46 21.905 126.754L21.7938 126.778C21.7938 126.778 22.4191 129.255 23.4582 129.667C24.4973 130.079 29.2808 129.873 32.8156 129.255C33.8365 129.073 34.1282 128.656 34.0188 128.125C33.9368 128.47 33.5813 128.736 32.8211 128.869Z" fill="black"/>
<path d="M132.034 47.7586C133.012 46.6648 132.63 44.9604 132.63 44.9604C132.63 44.9604 128.01 33.1875 127.498 33.0581C126.986 32.9286 125.7 29.959 125.7 29.959C125.7 29.959 113.383 18.2499 112.94 18.2499C112.497 18.2499 107.999 15.0159 107.423 14.9521C106.847 14.8883 105.947 14.5638 104.984 14.0407C104.021 13.5175 94.2685 14.1063 93.8838 14.5584C93.4992 15.0105 91.6963 15.335 91.6963 15.335C91.6963 15.335 88.0393 15.5282 87.5253 16.1754C87.0112 16.8225 83.2285 17.1653 83.2285 17.1653C83.2285 17.1653 81.3672 17.858 83.8939 19.6974C83.0844 19.825 82.1383 19.9234 81.1776 19.9927C80.937 20.0091 80.6927 20.0255 80.4484 20.0383H80.3044C80.1431 19.5505 79.8285 19.1278 79.4075 18.8333C79.1322 18.6838 78.8479 18.5517 78.5561 18.4377C78.1044 18.1975 77.6812 17.907 77.2946 17.5718C75.4243 16.0845 73.4286 14.7621 71.3298 13.6195C71.0058 13.4167 70.6444 13.2809 70.267 13.2203C69.485 13.1456 68.7868 13.6943 68.0211 13.8784C66.6757 14.2011 65.3194 13.3807 63.9358 13.368C62.2076 13.3516 60.6344 14.6969 60.1075 16.3558C59.9125 16.9702 59.8249 17.6538 59.4038 18.1406C58.8569 18.7768 57.9327 18.8697 57.1834 19.2471C56.6405 19.5303 56.1856 19.9568 55.8681 20.4803C55.5505 21.0039 55.3825 21.6044 55.3823 22.2168V22.2313C55.3823 22.328 55.3823 22.4246 55.3987 22.5212C55.4844 23.3014 55.8454 24.0215 56.1097 24.7616C56.3813 25.52 56.5529 26.3106 56.6201 27.1133C56.621 27.1218 56.621 27.1303 56.6201 27.1388C56.6311 27.2719 56.6402 27.405 56.6457 27.5399C56.6457 27.5672 56.6457 27.5964 56.6457 27.6256C56.6457 27.7532 56.6457 27.8826 56.6457 28.012C56.6457 28.7084 56.622 29.4103 56.6238 30.1066V30.1431V30.4585C56.6238 30.484 56.6238 30.5095 56.6238 30.535C56.6238 30.628 56.6238 30.7173 56.6347 30.8158V30.9142C56.6347 30.9999 56.6475 31.0874 56.6566 31.1731C56.6566 31.2096 56.6566 31.2478 56.6657 31.2843C56.6657 31.3682 56.6858 31.4502 56.6967 31.5322L56.7131 31.6489C56.7259 31.7309 56.7405 31.813 56.755 31.895L56.7769 32.008C56.7951 32.0955 56.817 32.1903 56.8389 32.2705C56.848 32.3015 56.8535 32.3307 56.8608 32.3617C56.8936 32.4832 56.93 32.5999 56.9701 32.7117C57.2431 33.4772 57.6938 34.1669 58.2851 34.7244C58.8765 35.2818 59.5916 35.691 60.3718 35.9183C60.6656 35.9993 60.9696 36.0374 61.2742 36.0314C61.8211 36.0186 62.3443 35.8491 62.6688 35.4753C62.749 35.5665 62.8274 35.6576 62.9113 35.7488C64.1003 37.0419 65.5835 38.0292 67.2353 38.627C68.8871 39.2248 70.6586 39.4155 72.3998 39.183C74.141 38.9504 75.8004 38.3014 77.2373 37.2911C78.6743 36.2807 79.8465 34.9387 80.6544 33.3789C80.8458 33.337 81.0354 33.2987 81.2268 33.2622C81.5586 33.2003 81.8922 33.1419 82.2276 33.0799L82.5503 33.0289L82.6779 33.007C84.3186 32.7482 85.9119 32.575 87.0531 32.4601L82.543 33.0198C82.543 33.0198 81.4492 38.2718 81.1339 38.8533C80.8185 39.4349 82.2276 40.4047 82.2276 40.4047C82.2276 40.4047 83.4472 41.8923 83.4472 42.3462C83.4472 42.8001 84.8582 44.0926 85.2429 44.8036C85.2918 44.8937 85.3532 44.9766 85.4252 45.0497C85.1404 45.1599 84.8775 45.3197 84.6486 45.5218C83.7571 46.3659 84.0543 47.8461 83.6459 49.0056C83.3907 49.7348 82.8566 50.3254 82.3425 50.8996C82.1579 51.0871 82.003 51.3017 81.8831 51.5359C81.8163 51.6911 81.775 51.856 81.761 52.0244C81.7518 52.1177 81.7482 52.2115 81.75 52.3052V52.338C81.75 52.4109 81.75 52.482 81.7646 52.5531C81.7646 52.5841 81.7646 52.6151 81.7646 52.6461C81.8539 53.4081 82.1128 54.1446 82.1912 54.9066C82.2696 55.6686 82.1748 56.4361 82.3316 57.178C82.3859 57.4367 82.4703 57.6882 82.5831 57.9273L79.9726 60.844C79.9726 60.844 79.9562 60.9881 79.9507 61.2251C77.7741 63.0316 74.4088 66.4406 75.6102 69.4467C75.7415 69.7761 75.863 70.0915 75.9748 70.3929C75.0906 70.9562 74.799 71.6252 76.1243 72.2924C76.3339 72.3981 76.5363 72.4893 76.735 72.5713C77.415 74.5675 77.6811 75.1235 78.8205 73.6524C78.9426 73.4919 79.0848 73.2878 79.2398 73.0672C80.844 73.0344 81.7719 72.2924 81.7719 72.2924C81.7719 72.2924 86.2619 72.0335 87.4232 72.7463C88.0047 73.1109 89.3719 73.1839 90.5824 73.1747C90.5662 74.4788 90.627 75.7827 90.7647 77.0796C90.7647 77.0796 90.5715 82.5777 91.0855 83.7426C91.5996 84.9075 91.884 86.9128 91.884 86.9128C91.884 86.9128 91.0217 88.8524 91.534 89.8879C92.0463 90.9234 91.0855 92.4109 91.0855 92.4109V96.2264L91.4501 96.2009C91.4228 96.4579 91.3882 96.7277 91.3426 96.9848C91.2369 97.5809 91.0782 98.115 90.834 98.2882C90.1923 98.7494 90.1285 101.205 90.1285 101.205C90.1285 101.205 89.1021 104.182 89.2936 104.7C89.485 105.217 88.0758 106.251 88.3966 107.028C88.7175 107.804 89.3738 112.719 89.9444 114.137C90.515 115.556 88.7813 115.173 88.7813 115.173L89.2936 118.859C89.2936 118.859 89.8076 122.611 89.423 122.869C89.0383 123.128 86.8252 125.004 88.3474 126.103C88.4659 126.189 88.5862 126.267 88.712 126.342C88.7188 126.512 88.7145 126.683 88.6993 126.853C88.6701 127.142 88.5972 127.374 88.4349 127.4C87.9828 127.465 87.0841 127.917 86.8945 127.724C86.7049 127.531 85.6184 128.213 84.5246 128.435L84.3733 128.459L82.9532 128.094C80.8985 127.311 78.6431 127.228 76.5363 127.857C76.5363 127.857 75.5063 128.018 75.0068 128.787C74.7534 129.181 74.6422 129.735 74.8682 130.508C75.5537 132.794 80.226 133.581 80.226 133.581C80.226 133.581 81.8448 133.915 83.7899 134.356C83.7261 134.356 83.6605 134.356 83.5949 134.356C83.058 134.352 82.5393 134.55 82.1411 134.91C81.7428 135.27 81.4941 135.766 81.4438 136.301C81.3936 136.835 81.5455 137.369 81.8697 137.797C82.1939 138.225 82.6667 138.516 83.1948 138.612C83.723 138.709 84.2681 138.604 84.7225 138.318C85.1769 138.032 85.5077 137.586 85.6495 137.068C85.7913 136.551 85.7339 135.998 85.4885 135.521C85.2431 135.043 84.8276 134.675 84.3241 134.489C86.5117 134.992 88.9344 135.605 89.9188 136.037C90.6518 136.313 91.4028 136.538 92.1666 136.711C92.2043 137.164 92.3853 137.592 92.6834 137.935C92.9815 138.277 93.381 138.516 93.824 138.615C94.2669 138.715 94.73 138.671 95.1461 138.489C95.5621 138.307 95.9092 137.997 96.137 137.605C99.114 138.226 101.982 138.753 101.982 138.753L106.771 138.831H106.803C106.239 138.835 105.699 139.063 105.302 139.464C104.905 139.865 104.683 140.407 104.685 140.972C104.687 141.536 104.913 142.077 105.312 142.475C105.712 142.873 106.254 143.097 106.818 143.097C107.382 143.097 107.924 142.873 108.324 142.475C108.723 142.077 108.949 141.536 108.951 140.972C108.953 140.407 108.731 139.865 108.334 139.464C107.937 139.063 107.397 138.835 106.833 138.831L114.083 138.95C113.996 139.245 113.973 139.555 114.017 139.86C114.061 140.164 114.169 140.456 114.336 140.714C114.503 140.973 114.723 141.193 114.982 141.358C115.241 141.524 115.533 141.632 115.838 141.675C116.142 141.718 116.453 141.694 116.747 141.606C117.042 141.518 117.314 141.368 117.546 141.165C117.777 140.962 117.962 140.712 118.088 140.432C118.214 140.151 118.278 139.846 118.275 139.539C118.275 139.363 118.253 139.188 118.21 139.017L124.605 139.121L125.881 137.718C125.952 137.581 125.995 137.432 126.007 137.278C126.045 136.817 125.806 136.117 124.173 135.82C124.052 135.798 120.72 135.851 117.776 135.9V134.744C117.776 134.744 117.694 134.108 117.643 133.359C117.628 133.138 117.615 132.909 117.61 132.683C117.777 132.797 117.962 132.881 118.157 132.932C119.376 133.127 121.045 129.569 121.045 129.569C121.045 129.569 121.045 127.564 121.429 125.947C121.814 124.33 122.523 118.895 122.523 118.895L124.065 112.364C124.065 112.364 124.703 99.0375 124.382 98.5197C124.062 98.002 124.769 97.096 124.769 97.096C124.769 97.096 125.281 94.2503 124.512 93.2805C123.743 92.3106 124.96 91.339 124.96 91.339C124.96 91.339 125.281 87.9756 124.382 86.6831C123.484 85.3906 124.804 84.4846 124.804 84.4846L125.124 79.2453C126.472 77.8872 127.689 69.8022 127.755 68.0558C127.772 67.0727 127.99 66.1036 128.397 65.2083C128.397 65.2083 129.294 63.8502 129.423 62.9441C129.552 62.0381 130.517 60.1641 130.517 60.1641L132.185 53.9531C132.857 51.4484 132.686 49.5962 132.239 48.2764C132.174 48.0904 132.105 47.9209 132.034 47.7586ZM101.898 48.1232C102.924 48.7704 102.603 48.9636 102.924 49.3519C103.245 49.7402 102.988 49.6746 102.731 50.3218C102.474 50.9689 102.667 50.7757 102.795 51.4866C102.922 52.1976 102.86 52.1976 102.86 52.1976L103.181 52.2432L102.734 55.2456C102.005 55.7214 101.672 56.6329 101.52 57.5736C101.09 57.0121 100.656 56.4288 100.268 55.8855C100.401 55.5884 100.375 55.2347 100.379 54.9011C100.394 53.8073 100.802 52.7627 100.99 51.6854C101.182 50.5894 101.146 49.4657 100.886 48.3839C100.792 47.9769 100.649 47.5831 100.458 47.2117C100.873 47.4888 101.4 47.817 101.898 48.1305V48.1232ZM103.052 111.514C103.052 111.514 103.863 110.967 104.65 110.469C104.915 112.389 105.164 114.385 105.341 116.19C105.059 115.563 104.862 115.136 104.862 115.136C104.572 114.788 104.399 114.359 104.366 113.908C104.335 113.204 103.052 111.521 103.052 111.521V111.514ZM98.2408 45.026C98.4231 45.0515 98.6819 45.283 98.9262 45.5601C98.7002 45.3778 98.4723 45.1955 98.239 45.0242L98.2408 45.026ZM86.4989 68.9582C85.7588 69.1915 83.2503 69.1569 81.7591 69.0694C82.317 68.1159 82.8712 67.1461 83.3634 66.2766C83.6536 66.3517 83.9492 66.4047 84.2475 66.4352L89.1313 62.1457C90.9684 62.79 92.9721 62.7771 94.8008 62.1092L94.9339 62.317C94.9904 62.4082 95.0505 62.4993 95.1162 62.6014L94.994 62.4027C94.994 62.4027 93.1091 63.5257 93.3005 64.0434C93.4919 64.5611 93.0453 65.8536 92.3398 67.2391C92.1575 67.5855 91.9989 67.9282 91.8457 68.2727C90.2488 68.4222 87.239 68.7248 86.4989 68.9582ZM95.7652 128.723L95.7378 128.211C96.0477 128.143 96.2519 128.081 96.2519 128.081C96.1878 127.321 96.0807 126.565 95.931 125.817C95.7378 125.041 95.8381 125.299 96.5891 124.723C97.3402 124.147 96.5891 117.614 96.5891 117.614C96.5891 117.614 96.9537 117.16 97.5316 118.325C98.1095 119.49 98.6892 120.201 98.8825 120.264C99.0757 120.328 98.1113 121.624 98.8825 122.853C99.3613 123.648 99.6871 124.525 99.8432 125.44C99.8432 125.44 99.3309 127.494 100.1 128.408C100.204 128.514 100.328 128.599 100.465 128.657C100.465 128.827 100.465 129.007 100.465 129.177C100.465 129.518 100.465 129.81 100.448 129.871C100.441 129.915 100.422 129.956 100.394 129.991C100.366 130.025 100.33 130.051 100.289 130.068C100.247 130.084 100.203 130.089 100.159 130.083C100.115 130.076 100.073 130.059 100.038 130.032C99.8395 129.902 98.5798 130.192 98.6655 131.004C98.3676 131.356 98.03 131.672 97.6592 131.946L95.911 131.494L95.7652 128.723Z" fill="url(#paint0_linear_2_1176)"/>
<path d="M80.0201 61.7081C80.0201 61.7081 79.4094 66.7123 84.2531 67.2245L84.9823 63.7608L83.4565 61.7081L81.2707 60.968L80.0201 61.7081Z" fill="#00B0FF"/>
<path opacity="0.1" d="M81.2707 60.968L80.0201 61.7063C80.0201 61.7063 79.4094 66.7104 84.2531 67.2227" fill="black"/>
<path d="M88.8086 33.4135C88.8086 33.4135 85.54 33.6141 82.2623 34.1573C81.9268 34.2144 81.5932 34.2752 81.2614 34.3396C81.0682 34.3761 80.8786 34.4144 80.689 34.4563C78.9718 34.81 77.4077 35.2693 76.4962 35.8563C75.4024 36.5582 75.0378 34.6678 75.0031 32.0408C74.9885 31.1166 75.0195 30.103 75.0688 29.0785C75.1326 27.8935 75.2255 26.694 75.324 25.6148C75.5409 23.223 75.7907 21.3636 75.7907 21.3636C75.7907 21.3636 76.9355 21.3636 78.465 21.3107L78.9572 21.2925C79.4366 21.2743 79.9452 21.2487 80.4575 21.2178C80.7 21.205 80.9442 21.1904 81.1867 21.1722C82.1565 21.1029 83.1136 21.0045 83.9212 20.8769C84.7816 20.7383 85.4798 20.5633 85.859 20.33C87.5909 19.2982 88.8086 33.4135 88.8086 33.4135Z" fill="#F8BDC5"/>
<path d="M103.373 51.8914L102.735 56.1262C102.735 56.1262 101.344 57.858 101.526 58.8205C101.708 59.7831 103.312 102.321 103.312 102.321C103.312 102.321 106.457 120.284 105.365 122.594C104.273 124.904 105.301 130.294 105.301 130.294L111.846 129.268L114.033 50.7356L103.373 51.8914Z" fill="#474463"/>
<path opacity="0.1" d="M103.373 51.8914L102.735 56.1262C102.735 56.1262 101.344 57.858 101.526 58.8205C101.708 59.7831 103.312 102.321 103.312 102.321C103.312 102.321 106.457 120.284 105.365 122.594C104.273 124.904 105.301 130.294 105.301 130.294L111.846 129.268L114.033 50.7356L103.373 51.8914Z" fill="black"/>
<path d="M117.809 131.385C117.601 131.729 117.617 132.743 117.676 133.605C117.727 134.347 117.809 134.978 117.809 134.978V139.34C117.809 139.34 110.816 136.903 106.966 134.336C105.378 133.277 104.926 132.292 105.013 131.505C105.141 130.384 106.362 129.653 106.966 129.653C107.542 129.653 109.361 128.648 110.852 127.76C112.024 127.066 112.998 126.444 112.998 126.444C112.998 126.444 118.193 130.743 117.809 131.385Z" fill="#575988"/>
<path opacity="0.1" d="M117.809 131.385C117.601 131.729 117.617 132.743 117.676 133.605C116.121 132.876 111.306 128.205 110.852 127.76C112.024 127.066 112.998 126.444 112.998 126.444C112.998 126.444 118.193 130.743 117.809 131.385Z" fill="black"/>
<path d="M132.181 54.8428L130.513 61.0026C130.513 61.0026 129.551 62.8621 129.419 63.7608C129.288 64.6596 128.393 66.0068 128.393 66.0068C127.988 66.8935 127.769 67.854 127.751 68.8287C127.688 70.5624 126.475 78.5817 125.121 79.9289L124.8 85.1263C124.8 85.1263 123.524 86.0232 124.415 87.3138C125.307 88.6045 124.993 91.9333 124.993 91.9333C124.993 91.9333 123.774 92.8958 124.545 93.8584C125.316 94.8209 124.8 97.6447 124.8 97.6447C124.8 97.6447 124.094 98.5416 124.415 99.0557C124.736 99.5698 124.098 112.786 124.098 112.786L122.556 119.265C122.556 119.265 121.849 124.656 121.462 126.26C121.076 127.864 121.077 129.851 121.077 129.851C121.077 129.851 119.409 133.381 118.19 133.189C116.97 132.998 111.069 127.221 111.069 127.221L111.902 107.715C111.902 107.715 112.608 99.4385 112.159 97.8343C111.711 96.2301 111.39 88.2108 111.39 88.2108L110.491 75.572L101.519 61.4566C101.519 61.4566 100.868 57.3494 102.727 56.1316L103.064 53.913L103.369 51.8968L114.021 50.741L130.316 46.5081C130.316 46.5081 131.572 47.2828 132.23 49.217C132.681 50.5205 132.854 52.358 132.181 54.8428Z" fill="#474463"/>
<path d="M103.828 61.3326C103.828 61.3326 96.2574 70.6298 96.5782 68.0321C96.7788 66.4005 95.7433 64.408 94.9376 63.1483C94.4618 62.3991 94.068 61.9087 94.068 61.9087C94.068 61.9087 98.6874 53.4409 98.9445 54.5949C99.0265 54.9594 99.5607 55.7962 100.248 56.7514C101.697 58.7531 103.828 61.3326 103.828 61.3326Z" fill="#FFC1C8"/>
<path opacity="0.3" d="M117.809 138.432V139.344C117.809 139.344 110.816 136.906 106.966 134.34C105.378 133.28 104.926 132.296 105.013 131.509C107.139 132.584 111.093 134.635 112.291 135.559C113.308 136.343 115.937 137.585 117.809 138.432Z" fill="white"/>
<path d="M116.163 141.894C117.344 141.894 118.301 140.937 118.301 139.756C118.301 138.575 117.344 137.617 116.163 137.617C114.982 137.617 114.024 138.575 114.024 139.756C114.024 140.937 114.982 141.894 116.163 141.894Z" fill="#474463"/>
<path d="M94.3195 138.892C95.5005 138.892 96.4579 137.934 96.4579 136.753C96.4579 135.572 95.5005 134.615 94.3195 134.615C93.1385 134.615 92.1812 135.572 92.1812 136.753C92.1812 137.934 93.1385 138.892 94.3195 138.892Z" fill="#474463"/>
<path d="M126.04 137.513C126.028 137.666 125.985 137.814 125.914 137.949L124.638 139.34L106.802 139.054L102.005 138.976C102.005 138.976 91.9096 137.138 89.9426 136.281C87.9756 135.424 80.2425 133.857 80.2425 133.857C80.2425 133.857 75.572 133.073 74.8866 130.807C74.655 130.039 74.7717 129.49 75.0251 129.1C75.5228 128.337 76.5546 128.176 76.5546 128.176C78.6622 127.554 80.9155 127.637 82.9715 128.413L112.869 136.104L113.332 136.223C113.332 136.223 123.989 136.024 124.204 136.062C125.839 136.361 126.078 137.056 126.04 137.513Z" fill="#00B0FF"/>
<path opacity="0.3" d="M126.04 137.513C124.246 137.28 121.118 136.936 120.312 137.267C120.312 137.267 114.622 136.564 106.794 139.054L102.005 138.975C102.005 138.975 91.9096 137.138 89.9426 136.281C87.9756 135.424 80.2425 133.857 80.2425 133.857C80.2425 133.857 75.572 133.073 74.8866 130.807C74.655 130.039 74.7717 129.49 75.0251 129.1C75.3441 130.03 75.9585 131.377 76.9392 131.755C78.4797 132.347 84.8109 133.554 84.8109 133.554L97.3421 136.622C97.3421 136.622 104.578 138.192 107.394 137.169C108.548 136.753 110.714 136.383 112.863 136.093L113.326 136.212C113.326 136.212 123.983 136.013 124.198 136.051C125.839 136.361 126.078 137.056 126.04 137.513Z" fill="white"/>
<path d="M108.734 135.204C108.719 135.472 108.685 135.74 108.634 136.004C108.634 136.004 101.546 136.257 97.8562 135.711C96.8371 135.559 96.261 135.233 95.9748 134.843C95.8471 134.658 95.7679 134.445 95.7446 134.222C95.7214 133.999 95.7548 133.773 95.8418 133.567C95.8826 133.448 95.9344 133.333 95.9967 133.224C96.272 132.743 96.6949 132.402 96.9264 132.447C97.5681 132.577 98.6692 131.261 98.6692 131.261C98.5817 130.457 99.845 130.167 100.042 130.298C100.077 130.325 100.119 130.343 100.162 130.349C100.206 130.355 100.251 130.35 100.292 130.334C100.334 130.318 100.37 130.291 100.398 130.257C100.426 130.222 100.445 130.181 100.452 130.138C100.465 130.077 100.469 129.788 100.469 129.449C100.469 128.883 100.452 128.172 100.452 128.172L107.576 129.038L107.859 130.4C108.118 131.614 108.479 133.282 108.634 133.853C108.741 134.295 108.775 134.751 108.734 135.204Z" fill="#474463"/>
<path opacity="0.1" d="M108.734 135.204C108.719 135.472 108.685 135.74 108.634 136.004C108.634 136.004 101.546 136.257 97.8562 135.711C96.8371 135.559 96.2611 135.233 95.9749 134.843C96.921 134.786 98.1515 134.755 98.9135 134.941C100 135.211 106.499 135.211 108.734 135.204Z" fill="black"/>
<path d="M95.9894 133.22C95.9971 133.286 95.9868 133.353 95.9595 133.413C95.9322 133.474 95.889 133.525 95.8344 133.563C94.9375 134.256 90.6334 133.503 90.6334 133.503C90.6334 133.503 81.8394 132.956 80.525 132.059C80.4063 131.981 80.3072 131.877 80.2351 131.755C79.6882 130.767 81.668 129.108 81.8393 129.108C82.0107 129.108 84.3751 128.785 84.5337 128.754C85.6275 128.533 86.7213 127.855 86.9036 128.048C87.0859 128.242 87.9974 127.791 88.4422 127.728C88.6045 127.704 88.6792 127.474 88.7065 127.181C88.7322 126.784 88.7188 126.385 88.6664 125.99L95.6904 127.881L95.7524 129L95.9547 132.726L95.9803 133.184C95.9847 133.196 95.9877 133.208 95.9894 133.22Z" fill="#474463"/>
<path opacity="0.1" d="M90.6409 133.503C90.6409 133.503 81.8468 132.956 80.5324 132.059C80.4138 131.981 80.3146 131.877 80.2426 131.755C82.0236 131.9 84.9933 132.147 85.5292 132.283C86.3003 132.466 90.6336 132.732 90.6336 132.732H95.9622L95.9877 133.189C96.2192 134.48 90.6409 133.503 90.6409 133.503Z" fill="black"/>
<path d="M83.6113 138.892C84.7923 138.892 85.7497 137.934 85.7497 136.753C85.7497 135.572 84.7923 134.615 83.6113 134.615C82.4303 134.615 81.4729 135.572 81.4729 136.753C81.4729 137.934 82.4303 138.892 83.6113 138.892Z" fill="#474463"/>
<path d="M106.836 143.331C108.017 143.331 108.974 142.373 108.974 141.192C108.974 140.011 108.017 139.054 106.836 139.054C105.655 139.054 104.698 140.011 104.698 141.192C104.698 142.373 105.655 143.331 106.836 143.331Z" fill="#474463"/>
<path d="M85.0879 64.0179C85.0879 64.0179 84.6832 64.7471 84.0744 65.8299C82.616 68.404 79.9927 72.9669 78.8643 74.4107C77.26 76.4634 77.3895 74.5401 75.6558 70.2415C74.3688 67.044 78.3301 63.3853 80.4484 61.7227C81.1776 61.1448 81.6881 60.8112 81.6881 60.8112L85.0879 64.0179Z" fill="#F8BDC5"/>
<path d="M92.8503 68.9582C92.8503 68.9582 87.5254 69.4066 86.4991 69.7275C85.4727 70.0483 81.0465 69.8551 80.6655 69.7275C80.2845 69.5999 72.7082 71.3317 76.1737 73.0635C79.6392 74.7954 81.8249 73.0635 81.8249 73.0635C81.8249 73.0635 86.3168 72.8065 87.4762 73.5138C88.6356 74.2211 92.8649 73.8347 92.8649 73.8347L92.8503 68.9582Z" fill="#FFC1C8"/>
<path opacity="0.1" d="M81.7884 29.6928C82.4447 31.3718 82.0345 32.8338 81.2616 34.3342C79.3256 34.6988 77.5044 35.2001 76.4908 35.8509C73.6032 37.7122 75.7853 21.3508 75.7853 21.3508C75.7853 21.3508 77.1817 21.3508 78.9518 21.2797C78.4159 23.7262 80.4467 26.2656 81.7884 29.6928Z" fill="black"/>
<path d="M81.9524 29.3282C81.949 32.0154 80.9564 34.6074 79.1642 36.6096C77.3719 38.6118 74.9052 39.8841 72.2348 40.1839C69.5644 40.4837 66.877 39.79 64.6854 38.2351C62.4937 36.6802 60.9512 34.3729 60.352 31.7533C59.7527 29.1337 60.1388 26.3853 61.4365 24.0322C62.7342 21.6791 64.8527 19.886 67.3879 18.9951C69.9232 18.1041 72.6976 18.1776 75.1821 19.2015C77.6666 20.2254 79.6873 22.128 80.8586 24.5465C81.5805 26.0371 81.9545 27.6721 81.9524 29.3282Z" fill="#F8BDC5"/>
<path opacity="0.1" d="M132.234 49.2116C131.888 49.7155 131.369 50.0754 130.776 50.2233C128.273 50.9288 110.628 55.1636 109.474 54.9066C108.455 54.6805 104.082 54.0516 103.074 53.9076L103.378 51.8914L114.03 50.7356L130.325 46.5026C130.325 46.5026 131.576 47.2774 132.234 49.2116Z" fill="black"/>
<path opacity="0.1" d="M88.8087 33.4136C86.7231 33.5386 84.6453 33.7698 82.5832 34.1063C82.6125 34.0125 82.6086 33.9114 82.5723 33.8201L86.8381 33.2932C86.8381 33.2932 86.2146 23.2668 83.9213 20.8641C84.7817 20.7256 85.4799 20.5505 85.8591 20.3172C87.591 19.2981 88.8087 33.4136 88.8087 33.4136Z" fill="black"/>
<path d="M83.2285 18.3557C83.2285 18.3557 87.0149 18.0148 87.5271 17.3731C88.0394 16.7314 91.6981 16.54 91.6981 16.54C91.6981 16.54 93.4938 16.2191 93.8857 15.7688C94.2777 15.3186 104.022 14.7425 104.984 15.2566C105.947 15.7707 106.845 16.0897 107.423 16.1553C108.001 16.2209 112.491 19.4258 112.94 19.4258C113.388 19.4258 125.7 31.04 125.7 31.04C125.7 31.04 126.977 33.9914 127.498 34.119C128.019 34.2467 132.631 45.9247 132.631 45.9247C132.631 45.9247 133.273 48.7467 130.772 49.454C128.271 50.1613 110.624 54.3943 109.47 54.1373C108.316 53.8802 102.862 53.1109 102.862 53.1109C102.862 53.1109 102.926 53.1109 102.798 52.4054C102.671 51.6999 102.477 51.8914 102.733 51.2497C102.988 50.608 103.247 50.6718 102.926 50.2871C102.605 49.9025 102.926 49.7092 101.9 49.0675C100.873 48.4259 99.712 47.7204 99.6536 47.5289C99.5953 47.3375 98.6911 46.0523 98.2426 45.9885C97.7942 45.9247 85.2174 42.3954 85.2174 42.3954L82.266 41.4329C82.266 41.4329 80.855 40.4703 81.1722 39.8943C81.4894 39.3182 82.5814 34.1063 82.5814 34.1063L87.0933 33.5503C87.0933 33.5503 86.4206 22.6853 83.8939 20.8623C81.3672 19.0393 83.2285 18.3557 83.2285 18.3557Z" fill="#00B0FF"/>
<path opacity="0.1" d="M85.0879 64.0179C85.0879 64.0179 84.6832 64.7471 84.0743 65.8299C83.9795 62.4829 81.6388 61.8339 80.4484 61.7227C81.1776 61.1448 81.688 60.8112 81.688 60.8112L85.0879 64.0179Z" fill="black"/>
<path d="M81.9525 39.701L82.2624 41.4329C82.2624 41.4329 83.482 42.9095 83.482 43.3579C83.482 43.8064 84.893 45.0898 85.2795 45.7953C85.6659 46.5008 87.0113 46.6302 86.4972 47.8498C85.9831 49.0694 83.0335 58.3721 83.0335 58.3721L80.0183 61.7081C80.0183 61.7081 85.0224 61.2579 84.2513 67.2245L90.732 61.5732L95.8072 52.3398C95.8072 52.3398 90.8669 42.9733 90.6755 42.204C90.4841 41.4347 81.9525 39.701 81.9525 39.701Z" fill="#00B0FF"/>
<path opacity="0.1" d="M96.9574 42.9095C96.9574 42.9095 101.063 40.0219 101.063 39.701C101.063 39.3802 96.9574 42.9095 96.9574 42.9095Z" fill="black"/>
<path opacity="0.1" d="M103.828 46.5026C103.828 46.5026 106.016 45.9885 106.198 44.8346C106.38 43.6806 103.828 46.5026 103.828 46.5026Z" fill="black"/>
<path opacity="0.1" d="M105.618 49.454C105.618 49.454 108.699 47.9282 108.57 47.6638C108.44 47.3995 105.618 49.454 105.618 49.454Z" fill="black"/>
<path opacity="0.1" d="M122.107 39.681C122.107 39.681 120.831 40.5141 121.211 41.2943C121.59 42.0746 122.107 39.681 122.107 39.681Z" fill="black"/>
<path opacity="0.1" d="M125.886 40.0219C125.886 40.0219 122.251 43.4855 123.073 43.5512C123.896 43.6168 125.886 40.0219 125.886 40.0219Z" fill="black"/>
<path opacity="0.1" d="M117.617 93.7234C117.617 93.7234 122.301 94.6222 122.428 94.9431C122.556 95.2639 117.617 93.7234 117.617 93.7234Z" fill="black"/>
<path opacity="0.1" d="M119.286 96.8025C119.286 96.8025 121.787 98.3429 121.85 98.7914C121.914 99.2398 119.286 96.8025 119.286 96.8025Z" fill="black"/>
<path opacity="0.1" d="M118.708 100.268C118.708 100.268 119.092 102 119.734 102.257C120.376 102.514 118.708 100.268 118.708 100.268Z" fill="black"/>
<path opacity="0.1" d="M80.8696 24.49C80.8696 24.5082 80.8696 24.5283 80.8605 24.5465C80.773 25.1171 80.5396 25.7351 80.0037 25.9247C79.6798 26.0158 79.3338 25.984 79.032 25.8354C78.1205 25.4362 77.3093 24.4773 76.3358 24.7088C75.8728 24.8182 75.5483 25.17 75.3186 25.602C75.1593 25.913 75.037 26.2416 74.954 26.581C74.7717 27.2956 74.6258 28.0722 74.9048 28.7522C74.9506 28.8634 75.0055 28.9707 75.0688 29.073C75.3277 29.4868 75.6923 29.8387 75.9475 30.2561C76.2647 30.7775 76.3468 31.5596 75.8527 31.9169C75.7288 31.9983 75.5882 32.0512 75.4413 32.0717C75.2944 32.0922 75.1447 32.0798 75.0032 32.0354C74.6413 31.9217 74.2933 31.7676 73.9659 31.576C73.3206 31.2387 72.5075 31.0291 71.895 31.4192C71.6835 31.5505 71.514 31.74 71.3117 31.8786C70.8911 32.1391 70.3921 32.243 69.9025 32.1721C68.7431 32.0536 68.3092 31.3189 67.4232 30.7502C66.7742 30.3309 65.4179 30.1522 65.0315 31.009C64.7835 31.5559 65.1518 32.245 64.9093 32.8028C64.6669 33.3607 63.8957 33.532 63.5384 34.0498C63.0681 34.7316 63.5056 35.7178 63.1611 36.4743C63.1083 36.5915 63.0376 36.6998 62.9514 36.7952C61.0196 34.7136 59.9703 31.964 60.0241 29.1246C60.0779 26.2852 61.2306 23.5773 63.2399 21.5704C65.2492 19.5634 67.9584 18.4139 70.7979 18.3634C73.6373 18.3129 76.3857 19.3655 78.4651 21.2998L78.9573 21.2816C79.4367 21.2633 79.9453 21.2378 80.4576 21.2068C80.5787 21.4633 80.6734 21.7314 80.7402 22.0071C80.9385 22.8193 80.9824 23.6616 80.8696 24.49Z" fill="black"/>
<path d="M64.7707 30.7538C64.5209 31.3007 64.8892 31.9898 64.6486 32.5458C64.4079 33.1018 63.6313 33.275 63.2777 33.7927C62.8055 34.4763 63.243 35.4626 62.9003 36.2173C62.5065 37.0796 61.318 37.2145 60.4065 36.9629C59.6278 36.7405 58.9131 36.3361 58.3216 35.7829C57.7302 35.2298 57.2788 34.5439 57.0048 33.7818C56.3868 32.0226 56.786 30.0866 56.6256 28.229C56.5573 27.4329 56.3857 26.6491 56.1151 25.8974C55.8508 25.1682 55.4899 24.4499 55.4042 23.6751C55.3429 23.0178 55.4799 22.3571 55.7977 21.7784C56.1155 21.1996 56.5994 20.7294 57.1871 20.4284C57.9381 20.0638 58.8624 19.9599 59.4093 19.3346C59.8286 18.8497 59.9179 18.1734 60.113 17.5627C60.6398 15.922 62.213 14.5839 63.9412 14.6003C65.3231 14.6112 66.6757 15.4261 68.0265 15.1053C68.7904 14.923 69.4849 14.3761 70.2725 14.4545C70.6497 14.5138 71.0111 14.6483 71.3353 14.8501C73.432 15.9826 75.4271 17.2939 77.2983 18.7695C77.6853 19.1028 78.1092 19.3909 78.5616 19.6281C78.8529 19.7417 79.1372 19.8725 79.4129 20.0201C80.0018 20.3847 80.3099 21.0792 80.4776 21.7537C80.6789 22.5654 80.7247 23.4079 80.6125 24.2366C80.5323 24.8218 80.3026 25.4781 79.7465 25.6731C79.4217 25.7637 79.0749 25.7306 78.7731 25.5802C77.8616 25.1846 77.0522 24.2257 76.0787 24.4554C75.2839 24.6377 74.901 25.5382 74.6932 26.3276C74.5109 27.0422 74.3614 27.8188 74.644 28.5006C74.8773 29.0657 75.3732 29.4795 75.6849 30.0027C75.9967 30.5259 76.086 31.308 75.5901 31.6635C75.0432 32.0591 74.3013 31.638 73.7015 31.3244C73.0598 30.9871 72.2431 30.7775 71.6324 31.1658C71.4228 31.2971 71.2532 31.4866 71.0491 31.627C70.6282 31.885 70.1305 31.9881 69.6417 31.9187C68.4805 31.8002 68.0466 31.0655 67.1625 30.4968C66.5116 30.0738 65.159 29.8952 64.7707 30.7538Z" fill="#474463"/>
<path opacity="0.1" d="M100.25 56.7423C100.201 57.0158 99.825 57.0468 99.7484 57.3129C99.0192 59.8852 97.415 62.1985 94.9394 63.1465C94.4636 62.3973 94.0698 61.9069 94.0698 61.9069C94.0698 61.9069 98.6893 53.4391 98.9463 54.593C99.0283 54.9522 99.5625 55.7871 100.25 56.7423Z" fill="black"/>
<path d="M100.386 54.9704C100.387 56.6456 99.8904 58.2833 98.96 59.6763C98.0295 61.0694 96.7069 62.1552 95.1593 62.7966C93.6117 63.4379 91.9087 63.6059 90.2657 63.2793C88.6226 62.9527 87.1133 62.1462 85.9286 60.9618C84.7439 59.7773 83.9371 58.2682 83.6101 56.6252C83.2832 54.9822 83.4508 53.2792 84.0918 51.7314C84.7328 50.1837 85.8184 48.8608 87.2112 47.9301C88.6041 46.9994 90.2417 46.5026 91.9169 46.5026C93.0301 46.4985 94.1332 46.7147 95.1625 47.1388C96.1918 47.5629 97.127 48.1864 97.9143 48.9735C98.7015 49.7606 99.3253 50.6957 99.7496 51.7249C100.174 52.7541 100.39 53.8571 100.386 54.9704Z" fill="#FFC1C8"/>
<path opacity="0.1" d="M95.705 127.886L95.767 129.006C95.0251 129.17 93.6141 129.385 92.7919 128.882C91.7291 128.231 90.1595 128.072 88.7211 127.186C88.7468 126.789 88.7333 126.39 88.681 125.996L95.705 127.886Z" fill="black"/>
<path opacity="0.1" d="M107.859 130.404C107.81 130.654 107.764 130.807 107.764 130.807C107.764 130.807 102.104 130.227 100.472 129.445C100.472 128.88 100.456 128.169 100.456 128.169L107.58 129.035L107.859 130.404Z" fill="black"/>
<path d="M106.581 104.951C106.196 105.978 106.003 106.171 106.39 106.683C106.776 107.195 106.581 109.892 105.968 110.147C105.356 110.402 103.052 111.942 103.052 111.942C103.052 111.942 104.328 113.61 104.366 114.312C104.4 114.761 104.573 115.187 104.862 115.532C104.862 115.532 106.838 119.767 107.232 121.114C107.626 122.461 107.987 124.578 107.987 124.578C107.987 124.578 107.296 126.503 107.773 127.595C108.251 128.687 107.773 130.289 107.773 130.289C107.773 130.289 100.88 129.583 100.117 128.677C99.3528 127.771 99.8614 125.733 99.8614 125.733C99.7039 124.825 99.3774 123.954 98.8989 123.167C98.1278 121.947 99.0812 120.665 98.8989 120.6C98.7166 120.534 98.1278 119.83 97.5481 118.677C96.9684 117.523 96.6074 117.969 96.6074 117.969C96.6074 117.969 97.3585 124.45 96.6074 125.028C95.8563 125.606 95.7542 125.349 95.9475 126.122C96.0972 126.863 96.2043 127.613 96.2683 128.368C96.2683 128.368 93.9586 129.073 92.8047 128.368C91.6507 127.662 89.9134 127.533 88.3875 126.442C86.8617 125.352 89.0785 123.491 89.4631 123.234C89.8478 122.977 89.3355 119.256 89.3355 119.256L88.8214 115.599C88.8214 115.599 90.5533 115.984 89.9845 114.573C89.4157 113.162 88.7576 108.285 88.4368 107.516C88.1159 106.747 89.5306 105.719 89.3355 105.206C89.1404 104.694 90.1686 101.743 90.1686 101.743C90.1686 101.743 90.2342 99.3054 90.8741 98.8479C91.1184 98.6765 91.277 98.1442 91.3827 97.5554C91.4949 96.8605 91.5613 96.1589 91.5814 95.4553C91.5814 95.4553 106.273 94.4289 108.646 95.8399C109.715 96.4743 109.64 97.6429 109.193 98.826C108.646 100.27 107.523 101.743 107.241 102.277C106.71 103.261 106.966 103.925 106.581 104.951Z" fill="#575988"/>
<path opacity="0.1" d="M109.175 98.826C107.352 99.3382 104.924 100.091 104.528 100.523C103.887 101.231 101.705 96.5454 101.705 96.5454C101.705 96.5454 101.834 100.067 98.9463 98.5945C96.447 97.3184 92.4127 97.4861 91.37 97.5554C91.4822 96.8605 91.5486 96.1589 91.5687 95.4553C91.5687 95.4553 106.26 94.4289 108.634 95.8399C109.702 96.4743 109.627 97.6429 109.175 98.826Z" fill="black"/>
<path d="M101.704 60.0401C101.704 60.0401 102.981 58.4997 103.245 59.0776C103.509 59.6555 105.015 60.8094 105.015 60.8094C105.015 60.8094 105.447 62.1566 106.207 62.3498C106.967 62.5431 112.677 70.2415 112.677 70.2415L110.623 74.4107L108.954 84.5483C108.954 84.5483 109.027 86.1526 108.573 86.7359C108.12 87.3193 106.386 87.1844 107.19 87.8899C107.994 88.5954 109.148 89.2371 109.789 92.4473C110.431 95.6576 111.2 97.5152 111.2 97.5152C111.2 97.5152 105.17 99.0557 104.528 99.7612C103.887 100.467 101.704 95.7834 101.704 95.7834C101.704 95.7834 101.834 99.3036 98.9463 97.8324C96.0587 96.3613 91.1184 96.8097 91.1184 96.8097V93.0179C91.1184 93.0179 92.0809 91.5413 91.5686 90.515C91.0564 89.4886 91.9187 87.5636 91.9187 87.5636C91.9187 87.5636 91.6325 85.5747 91.1184 84.4207C90.6043 83.2668 90.7975 77.8124 90.7975 77.8124C90.7975 77.8124 90.4074 74.2831 90.7629 72.4856C91.0646 70.9277 91.5973 69.4235 92.3434 68.023C93.0489 66.6484 93.4955 65.3651 93.3041 64.851C93.1127 64.3369 94.9977 63.2249 94.9977 63.2249L96.0423 64.9148L96.3084 65.9247C96.3084 65.9247 101.834 61.9652 101.704 60.0401Z" fill="#DCE6F2"/>
<path d="M110.938 68.9582C110.938 68.9582 114.531 72.4856 114.916 73.0635C115.3 73.6414 116.589 76.6457 114.921 77.5572C113.253 78.4687 106.718 79.8742 106.069 79.3893C105.42 78.9044 101.511 79.9362 101.511 79.9362C101.511 79.9362 94.974 81.5404 96.385 78.9099C97.796 76.2793 101.134 76.7223 101.134 76.7223C101.134 76.7223 106.526 76.7132 107.102 76.1754C107.678 75.6376 112.024 74.4836 111.04 72.1065C110.056 69.7293 110.938 68.9582 110.938 68.9582Z" fill="#FFC1C8"/>
<path opacity="0.1" d="M100.387 84.7416C100.387 84.7416 92.0172 91.9916 92.8503 91.9916C93.6834 91.9916 100.387 84.7416 100.387 84.7416Z" fill="black"/>
<path opacity="0.1" d="M105.968 87.693C105.968 87.693 103.309 88.3329 103.823 88.7193C104.337 89.1058 105.968 87.693 105.968 87.693Z" fill="black"/>
<path opacity="0.1" d="M96.5892 70.1121C96.5892 70.1121 99.9089 70.4093 99.3237 71.4484C98.7385 72.4875 96.5892 70.1121 96.5892 70.1121Z" fill="black"/>
<path opacity="0.1" d="M94.5201 101.272C94.5201 101.272 94.0698 102.578 94.5201 103.278C94.9703 103.978 94.5201 105.648 94.5201 105.648V111.481C94.5201 111.481 94.4581 115.716 95.9949 117.191L94.5201 101.272Z" fill="black"/>
<path opacity="0.1" d="M90.1249 119.451C90.1249 119.451 91.0218 120.766 91.1512 121.247C91.2806 121.728 90.1249 119.451 90.1249 119.451Z" fill="black"/>
<path opacity="0.1" d="M90.3491 116.821C90.3491 116.821 92.4346 116.436 92.7555 116.66C93.0763 116.885 90.3491 116.821 90.3491 116.821Z" fill="black"/>
<path opacity="0.1" d="M89.7403 124.68C89.7403 124.68 89.1296 124.743 90.3492 125.409C91.5688 126.074 93.9423 126.916 93.9733 126.628C94.0043 126.34 89.7403 124.68 89.7403 124.68Z" fill="black"/>
<path opacity="0.1" d="M98.6674 118.296C98.8825 118.296 101.568 118.135 101.413 118.553C101.258 118.97 98.6674 118.296 98.6674 118.296Z" fill="black"/>
<path opacity="0.1" d="M102.315 114.542C102.315 114.542 102.924 113.485 103.148 113.933C103.373 114.382 102.315 114.542 102.315 114.542Z" fill="black"/>
<path opacity="0.1" d="M100.387 54.9704C100.387 55.7577 100.278 56.5413 100.062 57.2983C99.7084 57.6192 99.0977 57.6228 98.662 57.384C98.1515 57.1033 97.8179 56.5928 97.4861 56.1079C97.1544 55.623 96.777 55.1381 96.2337 54.9303C95.5465 54.6714 94.7626 54.9303 94.1646 55.3605C93.5667 55.7907 93.0891 56.3595 92.5239 56.8189C91.9588 57.2783 91.2387 57.6502 90.5187 57.5372C90.0538 57.4661 89.6418 57.2035 89.2426 56.9501C88.6957 56.6056 88.1087 56.0696 87.5089 55.8381C86.9091 55.6066 86.4151 56.0204 85.8445 56.0204C85.3906 56.1845 84.8966 56.5582 84.9877 57.0304C85.0365 57.2055 85.1155 57.3709 85.221 57.5189C85.4042 57.8798 85.4766 58.2869 85.4289 58.6888C85.3812 59.0907 85.2156 59.4696 84.9531 59.7776C84.1974 58.6852 83.7093 57.4303 83.5282 56.1145C83.3471 54.7986 83.478 53.4585 83.9104 52.2026C84.3427 50.9466 85.0644 49.81 86.0172 48.8844C86.97 47.9589 88.127 47.2704 89.395 46.8746C90.663 46.4788 92.0062 46.3868 93.3163 46.606C94.6264 46.8252 95.8666 47.3494 96.9366 48.1364C98.0067 48.9234 98.8767 49.951 99.4763 51.1362C100.076 52.3215 100.388 53.6312 100.388 54.9594L100.387 54.9704Z" fill="black"/>
<path d="M85.8426 55.7743C85.3887 55.9384 84.8947 56.3121 84.984 56.7861C85.0347 56.9603 85.1141 57.1248 85.2192 57.2728C85.7515 58.2226 85.3012 59.5862 84.3077 60.0273C84.1519 60.1085 83.974 60.1366 83.8009 60.1076C83.6636 60.0649 83.5385 59.9899 83.4363 59.8888C82.9019 59.4112 82.5335 58.7759 82.3844 58.0749C82.2276 57.3457 82.3243 56.5728 82.244 55.8235C82.1638 55.0743 81.9068 54.336 81.8175 53.5813C81.7542 53.2082 81.7939 52.825 81.9323 52.4729C82.0526 52.2405 82.2075 52.0279 82.3917 51.8421C82.904 51.2715 83.4381 50.6882 83.6951 49.9645C84.1017 48.8123 83.8063 47.3448 84.696 46.5008C85.108 46.1143 85.684 45.9703 86.1945 45.726C86.6751 45.4709 87.1352 45.1789 87.5708 44.8528C89.2206 43.7189 91.2259 42.8475 93.1875 43.2486C93.9712 43.4383 94.7216 43.7456 95.4133 44.1601C96.6981 44.8683 97.9182 45.6882 99.0593 46.6102C99.5528 46.9752 99.9838 47.4178 100.335 47.9209C100.597 48.3516 100.786 48.8229 100.893 49.3155C101.155 50.3902 101.191 51.5075 100.999 52.5968C100.817 53.6651 100.403 54.7024 100.386 55.7871C100.386 56.1517 100.416 56.5454 100.228 56.859C99.9271 57.3585 99.1815 57.4059 98.671 57.1288C98.1606 56.8517 97.827 56.3376 97.497 55.8527C97.1671 55.3678 96.7879 54.8829 96.2446 54.6769C95.5574 54.4162 94.7735 54.6769 94.1755 55.1053C93.5776 55.5337 93.1018 56.1043 92.5348 56.5637C91.9679 57.0231 91.2587 57.395 90.5295 57.2819C90.0647 57.2108 89.6527 56.9501 89.2534 56.6968C88.7065 56.3504 88.1195 55.8144 87.5216 55.5847C86.9237 55.355 86.4114 55.7743 85.8426 55.7743Z" fill="#794F6A"/>
<path d="M105.298 68.9582C105.298 68.9582 95.8673 77.683 97.7906 82.0454C99.7138 86.4078 108.182 78.7093 108.182 78.7093L111.2 71.7236L105.298 68.9582Z" fill="#F8BDC5"/>
<g opacity="0.1">
<path opacity="0.1" d="M84.3042 59.5096C84.1491 59.5907 83.9717 59.6189 83.7992 59.5898C83.6613 59.5476 83.536 59.4718 83.4346 59.3692C82.9002 58.8922 82.5312 58.2576 82.3809 57.5572C82.2259 56.8189 82.3226 56.0532 82.2423 55.304C82.1621 54.5547 81.9033 53.8183 81.8158 53.0617C81.8158 53.0253 81.8158 52.987 81.8067 52.9487C81.7869 53.1574 81.79 53.3677 81.8158 53.5758C81.9033 54.3305 82.1621 55.0597 82.2423 55.8181C82.3226 56.5764 82.2259 57.333 82.3809 58.0694C82.5307 58.7706 82.8998 59.4058 83.4346 59.8833C83.5366 59.9847 83.6617 60.0598 83.7992 60.1021C83.9717 60.1311 84.1491 60.103 84.3042 60.0219C85.088 59.6737 85.531 58.7567 85.4271 57.9181C85.3891 58.2565 85.2662 58.5798 85.0699 58.858C84.8736 59.1362 84.6102 59.3604 84.3042 59.5096Z" fill="black"/>
<path opacity="0.1" d="M100.986 52.0809C100.804 53.1492 100.39 54.1865 100.376 55.2712C100.376 55.6358 100.405 56.0295 100.215 56.3431C99.9161 56.8426 99.1705 56.89 98.6601 56.6129C98.1497 56.3358 97.816 55.8235 97.4843 55.3368C97.1525 54.8501 96.7769 54.367 96.2319 54.161C95.5464 53.9021 94.7625 54.161 94.1646 54.5912C93.5667 55.0214 93.089 55.5884 92.5239 56.0496C91.9588 56.5108 91.2387 56.8809 90.5186 56.7697C90.0538 56.6967 89.6418 56.4361 89.2425 56.1827C88.6956 55.8363 88.1086 55.3022 87.5107 55.0706C86.9128 54.8391 86.4169 55.2529 85.8463 55.2529C85.3924 55.4188 84.8984 55.7907 84.9859 56.2665C84.997 56.3179 85.0135 56.368 85.0351 56.416C85.2137 56.1049 85.5036 55.873 85.8463 55.767C86.4151 55.767 86.9182 55.3587 87.5107 55.5847C88.1032 55.8108 88.7011 56.3504 89.2425 56.6967C89.6381 56.9501 90.0501 57.2108 90.5186 57.2819C91.2478 57.395 91.9624 57.0285 92.5239 56.5637C93.0854 56.0988 93.5685 55.5246 94.1646 55.1053C94.7607 54.686 95.5464 54.4162 96.2319 54.6769C96.7788 54.8829 97.1543 55.3733 97.4843 55.8527C97.8142 56.3322 98.1497 56.8408 98.6601 57.1288C99.1705 57.4168 99.9161 57.3585 100.215 56.859C100.397 56.5454 100.37 56.1535 100.376 55.7871C100.39 54.7024 100.798 53.6651 100.986 52.5968C101.082 52.0482 101.122 51.491 101.103 50.9343C101.091 51.3188 101.052 51.702 100.986 52.0809Z" fill="black"/>
</g>
<path opacity="0.1" d="M94.0061 24.5593C94.0061 24.5593 90.5424 30.8468 95.2822 34.0552C100.022 37.2637 100.48 36.9428 100.48 36.9428C100.48 36.9428 100.414 37.7121 100.48 37.9054C100.545 38.0986 101.756 38.5453 101.756 38.5453C101.756 38.5453 103.23 40.9151 105.347 41.9469C107.463 42.9788 107.85 45.4106 107.85 45.4106C107.85 45.4106 107.85 46.2456 108.944 47.0149C110.037 47.7842 110.88 50.0301 110.88 50.0301V52.0846C110.88 52.4054 111.264 53.3607 110.431 53.4628C109.598 53.5648 110.302 55.4845 110.302 55.4845C110.302 55.4845 109.405 56.5782 109.596 57.0887C109.788 57.5991 109.212 58.6273 109.212 58.6273C109.212 58.6273 108.506 59.6536 108.57 59.8469C108.634 60.0401 107.801 60.7456 107.992 61.194C108.183 61.6425 107.031 62.2204 107.223 62.7345C107.414 63.2486 106.402 63.5038 106.402 63.5038L103.63 69.9207C103.63 69.9207 109.463 71.1968 110.969 74.4107L118.323 60.937C118.323 60.937 122.428 50.865 122.558 50.2233C122.687 49.5816 121.659 47.2719 121.659 47.2719L116.655 38.157L109.148 27.5709C109.148 27.5709 103.181 14.8719 94.0061 24.5593Z" fill="black"/>
<path opacity="0.1" d="M101.413 27.2117C101.413 27.2117 92.4 30.3746 97.147 33.5831C101.894 36.7915 102.344 36.4689 102.344 36.4689C102.344 36.4689 102.281 37.24 102.344 37.4314C102.408 37.6228 103.62 38.0731 103.62 38.0731C103.62 38.0731 105.097 40.443 107.214 41.4748C109.33 42.5066 109.717 44.9385 109.717 44.9385C109.717 44.9385 109.717 45.7734 110.81 46.5427C111.904 47.312 112.735 49.5579 112.735 49.5579V51.6106C112.735 51.9315 113.12 52.8867 112.285 52.9906C111.45 53.0945 112.158 55.0123 112.158 55.0123C112.158 55.0123 111.259 56.1061 111.452 56.6147C111.645 57.1233 111.067 58.1551 111.067 58.1551C111.067 58.1551 110.362 59.1815 110.426 59.3747C110.49 59.568 109.655 60.2735 109.848 60.7219C110.041 61.1704 108.885 61.7483 109.079 62.2623C109.272 62.7764 108.256 63.0316 108.256 63.0316L105.485 69.4467C105.485 69.4467 110.291 69.6947 111.808 72.9104L120.177 60.4722C120.177 60.4722 124.284 50.4002 124.412 49.7585C124.539 49.1168 123.517 46.7998 123.517 46.7998L118.512 37.6848L107.097 31.1002C107.097 31.1002 110.588 17.5226 101.413 27.2117Z" fill="black"/>
<path d="M94.5202 24.5593C94.5202 24.5593 91.0565 30.8468 95.7962 34.0552C100.536 37.2637 100.994 36.9428 100.994 36.9428C100.994 36.9428 100.93 37.7122 100.994 37.9054C101.057 38.0986 102.27 38.5453 102.27 38.5453C102.27 38.5453 103.746 40.9151 105.863 41.947C107.979 42.9788 108.366 45.4106 108.366 45.4106C108.366 45.4106 108.366 46.2456 109.46 47.0149C110.553 47.7842 111.394 50.0301 111.394 50.0301V52.0846C111.394 52.4054 111.778 53.3607 110.943 53.4628C110.109 53.5649 110.816 55.4845 110.816 55.4845C110.816 55.4845 109.917 56.5783 110.11 57.0887C110.304 57.5991 109.726 58.6273 109.726 58.6273C109.726 58.6273 109.02 59.6536 109.084 59.8469C109.148 60.0401 108.313 60.7456 108.506 61.1941C108.699 61.6425 107.544 62.2204 107.737 62.7345C107.93 63.2486 106.915 63.5038 106.915 63.5038L104.144 69.9207C104.144 69.9207 109.966 71.1968 111.481 74.4107L118.835 60.937C118.835 60.937 122.942 50.865 123.07 50.2233C123.198 49.5816 122.171 47.2719 122.171 47.2719L117.167 38.157L109.662 27.5745C109.662 27.5745 103.693 14.8719 94.5202 24.5593Z" fill="#00B0FF"/>
<g opacity="0.1">
<path opacity="0.1" d="M56.6257 27.7167C56.5582 26.9199 56.3866 26.1354 56.1152 25.3833C55.8509 24.6541 55.4899 23.9358 55.4042 23.1611C55.4042 23.1374 55.4042 23.1155 55.4042 23.0918C55.3851 23.2858 55.3851 23.4812 55.4042 23.6751C55.4899 24.4499 55.8509 25.1627 56.1152 25.8974C56.3866 26.6489 56.5582 27.4328 56.6257 28.229C56.6512 28.5279 56.6621 28.8306 56.6658 29.1405C56.6712 28.6574 56.6658 28.1852 56.6257 27.7167Z" fill="black"/>
<path opacity="0.1" d="M62.9004 35.705C62.5084 36.5655 61.318 36.7022 60.4065 36.4488C59.6284 36.2258 58.9143 35.8213 58.323 35.2686C57.7316 34.7159 57.2799 34.0308 57.0048 33.2695C56.7515 32.4861 56.6283 31.6664 56.6402 30.8431C56.6293 31.8476 56.6676 32.8393 57.0048 33.7818C57.2798 34.5433 57.7315 35.2288 58.3228 35.7818C58.9142 36.3348 59.6283 36.7396 60.4065 36.9629C61.318 37.2145 62.5084 37.0796 62.9004 36.2173C63.0663 35.8527 63.0499 35.4298 63.0426 35.0141C63.0392 35.2513 62.991 35.4858 62.9004 35.705Z" fill="black"/>
<path opacity="0.1" d="M80.6125 23.7207C80.5341 24.3041 80.3026 24.9604 79.7466 25.1554C79.4226 25.2459 79.0765 25.2135 78.775 25.0643C77.8635 24.6669 77.0522 23.708 76.0788 23.9395C75.2839 24.1218 74.9029 25.0205 74.6933 25.8117C74.5412 26.3116 74.4753 26.8337 74.4982 27.3558C74.533 27.0068 74.5983 26.6615 74.6933 26.3239C74.9029 25.5346 75.2839 24.6413 76.0788 24.4517C77.0522 24.222 77.8562 25.1809 78.775 25.5765C79.0761 25.727 79.4224 25.7602 79.7466 25.6695C80.3026 25.4744 80.5341 24.8182 80.6125 24.233C80.6626 23.8603 80.6809 23.484 80.6672 23.1082C80.6581 23.3124 80.6399 23.5184 80.6125 23.7207Z" fill="black"/>
<path opacity="0.1" d="M75.5902 31.1476C75.0433 31.5432 74.3013 31.1221 73.7016 30.8067C73.0599 30.4694 72.2432 30.2598 71.6325 30.6481C71.4228 30.7793 71.2533 30.9689 71.0491 31.1093C70.629 31.3692 70.1306 31.4725 69.6418 31.401C68.4805 31.2825 68.0467 30.5478 67.1625 29.979C66.5135 29.5616 65.1572 29.3829 64.7707 30.2397C64.678 30.492 64.6523 30.7639 64.696 31.0291C64.708 30.9343 64.7331 30.8416 64.7707 30.7538C65.159 29.8952 66.5135 30.0738 67.1625 30.4931C68.0467 31.0619 68.4805 31.7966 69.6418 31.9151C70.1308 31.985 70.6288 31.8812 71.0491 31.6216C71.2533 31.483 71.4228 31.2934 71.6325 31.1622C72.2486 30.7793 73.0599 30.9799 73.7016 31.3208C74.3013 31.6343 75.0396 32.05 75.5902 31.6598C75.911 31.4301 75.9876 31.0218 75.9165 30.6189C75.8791 30.8303 75.7623 31.0194 75.5902 31.1476Z" fill="black"/>
<path opacity="0.1" d="M64.6486 32.0335C64.3988 32.606 63.6314 32.7627 63.2777 33.2786C63.0134 33.6615 63.0352 34.1391 63.0444 34.6185C63.041 34.3265 63.122 34.0398 63.2777 33.7927C63.6314 33.2768 64.3988 33.1182 64.6486 32.5458C64.7359 32.2967 64.7597 32.0298 64.7178 31.7692C64.7066 31.86 64.6833 31.9489 64.6486 32.0335Z" fill="black"/>
</g>
</g>
<defs>
<linearGradient id="paint0_linear_2_1176" x1="94.0443" y1="143.165" x2="94.0443" y2="13.2221" gradientUnits="userSpaceOnUse">
<stop stop-color="#808080" stop-opacity="0.25"/>
<stop offset="0.54" stop-color="#808080" stop-opacity="0.12"/>
<stop offset="1" stop-color="#808080" stop-opacity="0.1"/>
</linearGradient>
<clipPath id="clip0_2_1176">
<rect width="200" height="144.178" fill="white"/>
</clipPath>
</defs>
</svg>
