<svg width="200" height="96" viewBox="0 0 200 96" fill="none" xmlns="http://www.w3.org/2000/svg">
<g clip-path="url(#clip0_2_1072)">
<path d="M99.7192 79.8169L98.739 80.8216L98.6442 78.8288L98.5268 81.7712L97.6237 80.845L98.5187 81.9743L98.2223 89.4144H99.1478L98.7493 81.0403L99.7192 79.8169Z" fill="#E6E6E6"/>
<path d="M101.543 82.2944L100.563 83.2991L100.468 81.3063L100.351 84.2486L99.4475 83.3225L100.343 84.4518L100.046 91.8919H100.972L100.573 83.5178L101.543 82.2944Z" fill="#E6E6E6"/>
<path d="M104.279 80.943L103.299 81.9477L103.204 79.955L103.087 82.8973L102.184 81.9712L103.079 83.1005L102.782 90.5405H103.708L103.309 82.1664L104.279 80.943Z" fill="#E6E6E6"/>
<path d="M97.5912 82.0691L96.6108 83.0739L96.516 81.0811L96.3989 84.0234L95.4955 83.0973L96.3908 84.2266L96.0941 91.6667H97.0196L96.6212 83.2926L97.5912 82.0691Z" fill="#E6E6E6"/>
<path d="M76.8017 0H2.92786V94.5946H76.8017V0Z" fill="#E6E6E6"/>
<path d="M71.7448 5.70397H7.83154V46.1685H71.7448V5.70397Z" fill="white"/>
<path d="M71.7455 44.509H7.83105V87.8784H71.7455V44.509Z" fill="white"/>
<path d="M41.4483 5.49647H38.1282V46.1685H41.4483V5.49647Z" fill="#3F3D56"/>
<path d="M71.7449 5.49647H68.4247V46.1685H71.7449V5.49647Z" fill="#3F3D56"/>
<path d="M71.7448 42.8484H7.83154V46.1685H71.7448V42.8484Z" fill="#3F3D56"/>
<path d="M16.8639 27.4926L11.1517 31.3322V34.5088L19.8051 27.4926H16.8639Z" fill="white"/>
<path d="M26.2754 27.4926L11.1517 39.332V42.0381L30.8634 27.4926H26.2754Z" fill="#E6E6E6"/>
<path d="M11.1517 5.49647H7.83154V46.1685H11.1517V5.49647Z" fill="#3F3D56"/>
<path d="M62.5097 8.81667L49.7487 25.0025L53.6914 25.4173L64.6894 8.19415L62.5097 8.81667Z" fill="#E6E6E6"/>
<path d="M71.7448 5.49647H7.83154V8.81664H71.7448V5.49647Z" fill="#3F3D56"/>
<path d="M71.7448 24.1724H7.83154V27.4926H71.7448V24.1724Z" fill="#3F3D56"/>
<path d="M197.748 0H123.874V94.5946H197.748V0Z" fill="#E6E6E6"/>
<path d="M192.686 5.58507H128.772V46.0496H192.686V5.58507Z" fill="white"/>
<path d="M192.685 44.3896H128.772V87.759H192.685V44.3896Z" fill="white"/>
<path d="M162.389 5.37755H159.069V46.0496H162.389V5.37755Z" fill="#3F3D56"/>
<path d="M192.686 5.37755H189.365V46.0496H192.686V5.37755Z" fill="#3F3D56"/>
<path d="M192.686 42.7295H128.772V46.0496H192.686V42.7295Z" fill="#3F3D56"/>
<path d="M137.805 27.3736L132.092 31.2135V34.3899L140.746 27.3736H137.805Z" fill="#E6E6E6"/>
<path d="M147.216 27.3736L132.092 39.2131V41.9191L151.804 27.3736H147.216Z" fill="#E6E6E6"/>
<path d="M132.092 5.37755H128.772V46.0496H132.092V5.37755Z" fill="#3F3D56"/>
<path d="M183.451 8.69775L170.689 24.8836L174.632 25.2984L185.63 8.07523L183.451 8.69775Z" fill="#E6E6E6"/>
<path d="M192.685 5.37756H128.772V8.69773H192.685V5.37756Z" fill="#3F3D56"/>
<path d="M192.685 24.0535H128.772V27.3737H192.685V24.0535Z" fill="#3F3D56"/>
<path d="M159.315 54.2216C159.315 54.2216 159.558 55.032 158.181 55.7614C156.803 56.4908 156.398 59.2463 158.019 60.0568C159.639 60.8673 160.126 61.9208 159.315 62.6502C158.505 63.3796 157.046 65.3247 158.991 65.811C160.936 66.2972 161.179 67.2698 160.612 67.675C160.045 68.0802 161.909 66.9456 161.909 66.9456C161.909 66.9456 162.233 68.8907 163.935 68.4044C165.637 67.9181 170.418 58.679 167.987 57.3823C165.556 56.0856 159.315 54.2216 159.315 54.2216Z" fill="#2F2E41"/>
<path d="M157.104 72.705L149.327 78.1694C149.327 78.1694 143.443 72.0745 143.443 68.5016C143.443 64.9288 140.29 58.2034 138.819 60.9356C137.348 63.6678 140.5 70.183 140.5 70.183L146.385 84.0542C146.385 84.0542 149.748 84.6847 151.639 83.2135C153.531 81.7423 158.785 78.7999 158.785 78.7999L157.104 72.705Z" fill="#FFB9B9"/>
<path d="M164.775 63.5627C168.025 63.5627 170.66 60.928 170.66 57.6779C170.66 54.4279 168.025 51.7932 164.775 51.7932C161.525 51.7932 158.89 54.4279 158.89 57.6779C158.89 60.928 161.525 63.5627 164.775 63.5627Z" fill="#FFB9B9"/>
<path d="M161.727 61.7762C161.727 61.7762 163.829 67.2406 162.988 68.5017C162.148 69.7627 161.097 69.7627 160.256 70.183C159.836 70.3932 155.422 72.0745 155.422 73.3356C155.443 74.1458 155.659 74.9391 156.053 75.6474L156.683 79.2203L161.937 82.583L168.873 81.7423L174.127 78.7999C174.127 78.7999 174.968 71.0237 172.656 69.7627C170.344 68.5017 167.612 65.5593 167.822 64.5084C168.032 63.4576 168.243 60.9356 168.243 60.9356L161.727 61.7762Z" fill="#FFB9B9"/>
<path d="M172.867 77.75V77.7568L172.678 79.6126L172.437 81.9932L172.162 84.6847L171.851 87.759H156.622C156.417 86.0788 156.054 84.2973 155.421 83.214C155.023 82.5694 154.846 81.8127 154.917 81.0586C155.059 79.6509 156.052 78.6689 156.052 78.3806C156.052 78.0653 154.282 76.2162 153.396 75.3086C153.099 75.0045 152.901 74.8063 152.901 74.8063L155.633 72.7049L155.671 72.7703L156.054 73.4414L157.313 75.6464L156.894 77.3288C156.894 77.3288 157.545 77.4414 158.45 77.5856C160.016 77.8311 162.345 78.1689 163.408 78.1689C164.394 78.1689 165.599 78.6757 166.595 78.9662C166.626 78.9752 166.655 78.9842 166.685 78.9932C167.311 79.1689 167.847 79.25 168.185 79.0473C168.205 79.0359 168.225 79.0231 168.243 79.009C168.419 78.8897 168.61 78.7936 168.811 78.723H168.813C169.541 78.4654 170.286 78.2592 171.043 78.1059C171.894 77.9189 172.642 77.7883 172.824 77.7568C172.825 77.7565 172.825 77.7562 172.825 77.756C172.826 77.7559 172.826 77.7558 172.827 77.7558C172.827 77.7558 172.827 77.7559 172.828 77.756C172.828 77.7562 172.829 77.7565 172.829 77.7568C172.854 77.7523 172.867 77.75 172.867 77.75Z" fill="#00B0FF"/>
<path d="M173.522 77.4302C173.507 77.5428 173.493 77.6577 173.48 77.7703C173.414 78.2658 173.36 78.7613 173.313 79.2568C173.182 80.5721 173.104 81.8911 173.077 83.214C173.069 83.7079 173.017 84.2001 172.921 84.6847C172.712 85.7278 172.431 86.7551 172.079 87.759H166.128C166.286 86.5879 166.498 84.7861 166.601 82.8987V82.8964C166.617 82.6036 166.628 82.3086 166.64 82.0135C166.678 81.0218 166.665 80.0286 166.599 79.0383C166.597 79.0135 166.597 78.9887 166.595 78.9662C166.583 78.8378 166.572 78.714 166.561 78.5901C166.142 74.3874 168.662 69.7635 168.662 69.7635C169.516 69.7635 170.349 70.2342 171.092 70.8829C172 71.6939 172.696 72.7142 173.119 73.8552C173.543 74.9963 173.681 76.2235 173.522 77.4302Z" fill="#FFB9B9"/>
<path opacity="0.1" d="M173.077 83.214C173.069 83.7079 173.017 84.2001 172.921 84.6847C172.712 85.7278 172.431 86.755 172.079 87.759H166.083C166.266 85.8655 166.323 83.9618 166.252 82.0608C166.241 81.7815 166.225 81.4977 166.203 81.2162V81.2117C166.187 80.9685 166.167 80.7252 166.142 80.482C166.105 80.2008 166.12 79.9152 166.187 79.6396V79.6351C166.235 79.4258 166.349 79.2377 166.513 79.0991C166.54 79.0763 166.569 79.056 166.599 79.0383C166.626 79.0202 166.655 79.0051 166.685 78.9932C166.712 78.9782 166.741 78.9654 166.77 78.955C167.005 78.8773 167.255 78.8557 167.5 78.8919C167.733 78.9197 167.962 78.9717 168.185 79.0473C169.177 79.4109 170.104 79.9326 170.93 80.5923C171.479 81.0062 171.984 81.4756 172.437 81.9932C172.833 82.4617 173.077 82.8941 173.077 83.214Z" fill="black"/>
<path d="M165.931 80.061L166.601 82.8983L170.344 84.6847H173.497L174.968 77.9593C174.968 77.9593 172.37 77.4099 171.042 78.1049C169.714 78.7999 166.594 78.9663 166.594 78.9663L165.931 80.061Z" fill="#00B0FF"/>
<path d="M164.823 51.7716C164.823 51.7716 165.092 52.6694 163.566 53.4774C162.04 54.2855 161.591 57.338 163.386 58.2358C165.182 59.1336 165.721 60.3008 164.823 61.1088C163.925 61.9168 162.309 64.0716 164.464 64.6103C166.619 65.149 166.888 66.2263 166.259 66.6753C165.631 67.1242 167.696 65.8672 167.696 65.8672C167.696 65.8672 168.055 68.022 169.941 67.4833C171.826 66.9446 173.707 57.1525 171.605 54.6305C169.651 52.2854 164.823 51.7716 164.823 51.7716Z" fill="#2F2E41"/>
<path d="M164.249 50.8474C164.25 49.5321 172.425 50.9761 174.112 52.8126C175.28 54.0843 177.055 55.9976 175.568 57.3463C174.081 58.695 173.877 59.9642 174.959 60.5003C176.042 61.0363 178.179 62.6755 176.249 63.7752C174.32 64.8749 174.351 65.985 175.077 66.2479C175.803 66.5107 173.476 65.8571 173.476 65.8571C173.476 65.8571 173.711 68.0288 171.75 68.0184C169.789 68.008 164.164 57.2319 165.508 54.2366C166.757 51.4515 164.249 50.8474 164.249 50.8474Z" fill="#2F2E41"/>
<path d="M165.102 50.5592C159.839 50.2423 159.311 54.2035 159.311 54.2035C159.348 56.4958 162.988 55.3789 163.999 55.7206C165.219 54.8431 167.57 53.1828 169.252 51.9979C168.031 51.1383 166.593 50.6397 165.102 50.5592Z" fill="#2F2E41"/>
<path d="M93.7327 86.4865L94.1442 89.0766C94.1442 90.5998 94.7493 92.0606 95.8263 93.1377C96.9034 94.2147 98.3642 94.8198 99.8874 94.8198C101.411 94.8198 102.871 94.2147 103.949 93.1377C105.026 92.0606 105.631 90.5998 105.631 89.0766L105.634 89.0409L106.042 86.4865H93.7327Z" fill="#E6E6E6"/>
<path d="M200 94.5584H0V95.0089H200V94.5584Z" fill="#3F3D56"/>
<path d="M20.7734 87.2586V88.5826C20.7734 88.5826 19.8908 95.4231 17.4635 95.4231C15.0362 95.4231 17.0222 88.362 17.0222 88.362V87.2587L20.7734 87.2586Z" fill="#9E616A"/>
<path d="M57.6239 62.3239L57.1826 61.2206C57.1826 61.2206 54.314 57.028 56.3 55.9247C58.2859 54.8214 60.7132 60.3379 60.7132 60.3379L61.1545 62.1032L57.6239 62.3239Z" fill="#9E616A"/>
<path d="M48.4665 60.9771C51.6834 60.9771 54.2912 58.3693 54.2912 55.1524C54.2912 51.9355 51.6834 49.3277 48.4665 49.3277C45.2496 49.3277 42.6418 51.9355 42.6418 55.1524C42.6418 58.3693 45.2496 60.9771 48.4665 60.9771Z" fill="#9E616A"/>
<path d="M44.2739 55.8144L40.3022 58.9036L45.8187 63.5374L48.9076 59.7863L44.2739 55.8144Z" fill="#9E616A"/>
<path d="M47.8987 87.8784H27.6149L29.1532 71.5653L30.2951 59.4504V59.4482C30.3195 59.1883 30.3949 58.9357 30.5171 58.705C30.6393 58.4742 30.8057 58.2699 31.007 58.1035C31.2082 57.9372 31.4403 57.8122 31.6899 57.7357C31.9396 57.6592 32.2018 57.6327 32.4617 57.6577L40.8784 58.455L47.0721 62.0158L47.2523 63.6487L53.4324 68.0608L49.232 76.0518L46.5901 81.0811L47.8987 87.8784Z" fill="#00B0FF"/>
<path d="M30.4825 69.8264L24.7453 77.3289L21.2147 87.9206H15.9188L19.6701 72.2537L29.5719 58.7143C29.8267 58.3679 30.1865 58.113 30.5979 57.9878C31.0093 57.8625 31.4501 57.8736 31.8547 58.0193C31.9811 58.0714 32.1129 58.1089 32.2478 58.1313L30.4825 69.8264Z" fill="#00B0FF"/>
<path d="M48.5768 75.7842L62.3682 81.411L64.7953 78.984L61.3752 61.2205L56.9619 62.1034L58.7272 72.695L53.4315 68.0613L51.666 67.6198L48.5768 75.7842Z" fill="#00B0FF"/>
<path d="M42.763 57.039C42.4839 54.7215 42.7434 52.3708 43.5213 50.1699C44.8135 46.701 48.9337 47.7464 51.28 48.5331C53.6263 49.3198 56.7353 52.6105 55.9264 54.4066C55.1175 56.2027 51.2783 53.9336 49.9089 52.7767C48.5395 51.6198 46.147 55.1333 46.147 55.1333L42.763 57.039Z" fill="#2F2E41"/>
<path d="M46.8896 54.9542C47.1046 54.3627 47.0125 53.7863 46.6839 53.6669C46.3553 53.5474 45.9146 53.9301 45.6995 54.5216C45.4845 55.1131 45.5766 55.6895 45.9052 55.8089C46.2338 55.9284 46.6745 55.5457 46.8896 54.9542Z" fill="#9E616A"/>
</g>
<defs>
<clipPath id="clip0_2_1072">
<rect width="200" height="95.4231" fill="white"/>
</clipPath>
</defs>
</svg>
