<svg width="200" height="134" viewBox="0 0 200 134" fill="none" xmlns="http://www.w3.org/2000/svg">
<g clip-path="url(#clip0_2_859)">
<path opacity="0.1" d="M116.202 22.0691C103.38 21.6213 91.1699 17.4863 79.5166 12.9572C67.8633 8.42821 56.3055 3.40963 43.7912 1.01058C35.733 -0.532666 26.5274 -0.749657 20.0419 3.5676C13.8013 7.71995 11.7841 14.8893 10.7009 21.5397C9.885 26.5444 9.40588 31.8129 11.64 36.4965C13.1919 39.7496 15.9469 42.4837 17.8529 45.5997C24.4876 56.4388 19.8006 69.8072 12.6121 80.3929C9.24097 85.3577 5.33165 90.0951 2.73123 95.381C0.130805 100.667 -1.07219 106.724 1.20361 112.115C3.46032 117.459 8.83302 121.474 14.6553 124.296C26.4805 130.025 40.4148 131.672 54.0019 132.603C84.0804 134.66 114.319 133.769 144.477 132.877C155.637 132.547 166.848 132.212 177.826 130.487C183.924 129.528 190.219 128.008 194.645 124.335C200.264 119.674 201.657 111.78 197.891 105.934C191.576 96.1291 174.109 93.6954 169.698 83.1722C167.268 77.3811 169.764 70.9286 173.295 65.5577C180.871 54.0346 193.567 43.9262 194.237 30.754C194.696 21.7081 188.592 12.65 179.154 8.36051C169.259 3.87486 155.545 4.43904 148.246 11.8653C140.731 19.5208 127.524 22.4632 116.202 22.0691Z" fill="#00B0FF"/>
<g opacity="0.5">
<path opacity="0.5" d="M86.9285 69.8851L81.1201 70.0049L80.1705 71.3086V75.8133L81.3562 76.6431H86.9285L88.1142 75.3394V71.0707L86.9285 69.8851Z" fill="#00B0FF"/>
<path opacity="0.2" d="M86.807 70.5968C86.807 70.5968 81.4724 71.4266 80.9985 70.5968L81.1183 70.0049L86.807 69.8799V70.5968Z" fill="white"/>
<path opacity="0.5" d="M87.4025 82.9254L88.3503 83.8749V88.3884L87.4025 89.3223C87.4025 89.3223 83.9654 90.5079 81.7121 89.5584L80.6445 88.4925V83.9791L81.5941 82.9115L87.4025 82.9254Z" fill="#00B0FF"/>
<path opacity="0.2" d="M87.1646 83.993C87.1646 83.993 83.0157 84.9408 81.594 83.993V82.9254H87.4024L87.1646 83.993Z" fill="white"/>
<path opacity="0.5" d="M85.1492 76.6118V83.0243C85.1357 83.2783 85.0222 83.5165 84.8335 83.687C84.6448 83.8575 84.3963 83.9463 84.1423 83.934C83.8883 83.9463 83.6398 83.8575 83.4511 83.687C83.2625 83.5165 83.149 83.2783 83.1355 83.0243V76.6118C83.1355 76.0667 83.6563 75.6449 84.2604 75.7074C84.4941 75.7217 84.7142 75.8221 84.8783 75.9891C85.0424 76.156 85.1389 76.3779 85.1492 76.6118Z" fill="#00B0FF"/>
<path opacity="0.5" d="M96.2314 70.0691L90.4229 70.1871L89.4734 71.4908V75.9956L90.659 76.8253H96.2314L97.417 75.5216V71.253L96.2314 70.0691Z" fill="#00B0FF"/>
<path opacity="0.2" d="M96.1116 70.7791C96.1116 70.7791 90.7771 71.6088 90.3032 70.7791L90.4213 70.1871L96.1116 70.0691V70.7791Z" fill="white"/>
<path opacity="0.5" d="M96.7018 83.1077L97.6497 84.0572V88.5706L96.7018 89.5098C96.7018 89.5098 93.2629 90.6954 91.0114 89.7459L89.9438 88.68V84.1753L90.8934 83.1077H96.7018Z" fill="#00B0FF"/>
<path opacity="0.2" d="M96.4675 84.1753C96.4675 84.1753 92.3186 85.1231 90.8969 84.1753V83.1077H96.7018L96.4675 84.1753Z" fill="white"/>
<path opacity="0.5" d="M94.4451 76.7941V83.2066C94.4312 83.4604 94.3175 83.6984 94.129 83.8687C93.9404 84.0391 93.6921 84.1281 93.4383 84.1162C93.1841 84.1285 92.9354 84.0398 92.7464 83.8694C92.5575 83.699 92.4436 83.4607 92.4297 83.2066V76.7941C92.4297 76.249 92.9505 75.8272 93.5563 75.8897C93.79 75.904 94.0101 76.0044 94.1742 76.1713C94.3383 76.3383 94.4348 76.5602 94.4451 76.7941Z" fill="#00B0FF"/>
<path opacity="0.5" d="M108.074 73.4976L103.291 73.5965L102.51 74.6693V78.3773L103.486 79.0612H108.074L109.049 77.9867V74.4731L108.074 73.4976Z" fill="#00B0FF"/>
<path opacity="0.2" d="M107.975 74.0843C107.975 74.0843 103.585 74.7665 103.194 74.0843L103.291 73.5965L107.978 73.4975L107.975 74.0843Z" fill="white"/>
<path opacity="0.5" d="M108.463 84.2325L109.244 85.0137V88.7216L108.463 89.5028C108.463 89.5028 105.633 90.4784 103.776 89.6972L102.897 88.8188V85.1109L103.679 84.2325H108.463Z" fill="#00B0FF"/>
<path opacity="0.2" d="M108.268 85.1109C108.268 85.1109 104.852 85.8921 103.682 85.1109V84.2325H108.463L108.268 85.1109Z" fill="white"/>
<path opacity="0.5" d="M106.609 79.0351V84.3141C106.598 84.5232 106.504 84.7194 106.348 84.8596C106.193 84.9998 105.988 85.0727 105.779 85.0623C105.57 85.0727 105.365 84.9998 105.21 84.8595C105.055 84.7192 104.962 84.5231 104.951 84.3141V79.0351C104.958 78.9235 104.987 78.8144 105.039 78.715C105.09 78.6156 105.162 78.528 105.249 78.4579C105.336 78.3878 105.437 78.3366 105.545 78.3078C105.653 78.279 105.766 78.273 105.876 78.2904C106.069 78.3022 106.25 78.3848 106.385 78.5223C106.52 78.6598 106.6 78.8425 106.609 79.0351Z" fill="#00B0FF"/>
<path opacity="0.5" d="M115.731 73.6486L110.949 73.7458L110.169 74.8186V78.5283L111.145 79.2105H115.731L116.707 78.1377V74.6242L115.731 73.6486Z" fill="#00B0FF"/>
<path opacity="0.2" d="M115.634 74.2336C115.634 74.2336 111.242 74.9175 110.851 74.2336L110.949 73.7458L115.636 73.6486L115.634 74.2336Z" fill="white"/>
<path opacity="0.5" d="M116.122 84.3836L116.901 85.163V88.8709L116.122 89.6521C116.122 89.6521 113.29 90.6277 111.435 89.8483L110.558 88.9751V85.262L111.339 84.3836H116.122Z" fill="#00B0FF"/>
<path opacity="0.2" d="M115.926 85.2619C115.926 85.2619 112.511 86.0413 111.339 85.2619V84.3836H116.122L115.926 85.2619Z" fill="white"/>
<path opacity="0.5" d="M114.268 79.1844V84.4617C114.256 84.6708 114.163 84.8669 114.007 85.0071C113.852 85.1474 113.647 85.2203 113.438 85.2099C113.229 85.2203 113.024 85.1474 112.869 85.0071C112.713 84.8669 112.619 84.6708 112.608 84.4617V79.1844C112.608 78.7366 113.042 78.3894 113.535 78.4415C113.727 78.4529 113.909 78.5351 114.044 78.6723C114.179 78.8095 114.259 78.992 114.268 79.1844Z" fill="#00B0FF"/>
</g>
<path d="M182.11 92.8063C181.736 92.131 181.038 91.6866 180.304 91.4818C179.561 91.3032 178.793 91.255 178.034 91.3395C176.807 91.4267 175.59 91.6272 174.4 91.9383C173.662 92.1328 172.897 92.3932 172.399 92.9799C172.385 92.9973 172.369 93.0181 172.354 93.0355C171.592 93.2351 170.835 93.5424 170.097 93.7923C169.357 94.038 168.603 94.2426 167.84 94.4051C168.838 93.8375 169.81 93.2368 170.633 92.4348C171.022 92.0574 171.371 91.6409 171.675 91.1919C172.239 91.3534 172.83 91.393 173.411 91.3082C174.586 91.1068 175.536 90.2666 176.419 89.4473L179.261 86.833C179.714 86.4164 180.174 85.9893 180.476 85.4442C180.884 84.6856 180.92 83.7829 180.931 82.9167C180.945 81.7259 180.931 80.535 180.896 79.3459L181.795 80.0403C181.659 78.5736 181.931 77.0977 182.583 75.7768C182.896 75.1467 183.306 74.52 183.314 73.8135C183.328 72.7233 182.391 71.8658 181.431 71.3832C180.471 70.9006 179.391 70.5916 178.605 69.8504C177.435 68.7481 177.216 66.9896 176.638 65.4793C176.295 64.6524 175.889 63.8532 175.423 63.0889L174.298 61.1273C173.732 60.0936 173.101 59.0969 172.409 58.1433C171.239 56.6 169.765 55.3276 168.302 54.069L160.692 47.5124C158.841 45.9171 156.984 44.32 154.982 42.9244C150.922 40.0931 146.341 38.1488 141.789 36.2237C140.643 35.7376 139.451 35.2446 138.211 35.3036C137.278 35.3641 136.393 35.7427 135.705 36.3764C135.052 36.1783 134.414 35.9359 133.795 35.6508L133.747 35.6282C133.76 35.5258 133.776 35.4251 133.786 35.3227C133.802 35.1873 133.811 35.0519 133.821 34.9148C134.164 34.8619 134.496 34.7535 134.804 34.5936C134.96 34.5198 135.098 34.4125 135.208 34.2794C135.348 34.0476 135.42 33.7811 135.415 33.5104C135.554 31.6964 135.692 29.8649 135.543 28.0596C135.394 26.2542 134.941 24.4263 133.981 22.8917C133.684 22.4161 133.313 21.9526 132.797 21.746C132.103 21.4683 131.299 21.7269 130.558 21.6019C129.275 21.3849 128.474 20.1298 127.546 19.2046C125.197 16.8628 121.18 16.5104 118.469 18.4061C117.441 19.1265 116.618 20.1038 115.702 20.9648C114.785 21.8259 113.71 22.6053 112.473 22.7737C112.245 22.7833 112.021 22.8426 111.818 22.9473C111.565 23.107 111.45 23.4142 111.353 23.6989C111.006 24.6815 110.673 25.69 110.567 26.7177C110.554 26.6552 110.544 26.5927 110.534 26.5302C110.486 26.9108 110.477 27.2951 110.504 27.6777C110.539 28.1652 110.68 28.6392 110.917 29.0664C111.115 29.4726 111.452 29.7941 111.867 29.9726C112.16 30.0764 112.47 30.1264 112.782 30.1201H112.919C112.868 30.2538 112.82 30.3875 112.775 30.5229C112.388 31.6701 112.192 32.8727 112.193 34.0833C112.193 40.159 117.042 45.0821 123.027 45.0821C123.748 45.0786 124.466 45.003 125.171 44.8564C125.405 44.9311 125.64 45.0075 125.865 45.0891C126.328 45.2418 126.781 45.4203 127.223 45.6237C127.41 45.7123 128.169 46.1549 129.086 46.726L129.023 46.8562C128.129 47.6914 127.473 48.7494 127.122 49.9217C126.772 51.094 126.739 52.3385 127.028 53.5274C127.692 56.1087 129.867 58.3221 129.648 60.9798C129.617 61.3582 129.537 61.7418 129.601 62.1168C129.69 62.6376 130.042 63.0611 130.394 63.4465C130.7 63.7833 131.018 64.1096 131.341 64.4291C131.314 66.1251 131.167 67.8193 131.007 69.5101C130.993 69.6577 130.99 69.807 130.988 69.958C130.997 70.689 131.263 71.3936 131.738 71.9491C132.241 72.5619 132.443 73.4802 132.347 74.2996C132.21 75.473 131.632 76.5372 131.245 77.6499C129.499 82.6546 131.644 88.2981 130.436 93.466C130.139 94.7384 129.639 95.9761 129.568 97.285C129.528 98.1026 129.657 98.9602 129.342 99.7153C129.07 100.371 128.502 100.845 127.966 101.305C127.208 101.955 126.469 102.626 125.751 103.319C124.665 102.725 123.543 102.198 122.394 101.739C122.206 101.664 122.015 101.598 121.821 101.542C120.463 100.271 118.752 99.4584 117.144 98.5245C115.811 97.752 114.54 96.884 113.263 96.016C112.047 95.1828 110.806 94.3426 109.779 93.2715C109.258 92.7299 108.794 92.1328 108.234 91.638C107.741 91.2278 107.219 90.8541 106.671 90.5201C104.208 88.9245 101.86 87.1582 99.6442 85.2342C97.9551 83.7691 96.5733 81.8821 94.7679 80.568C93.6622 79.7625 92.3758 79.0282 91.0218 79.1793C90.5907 79.23 90.1725 79.3588 89.7876 79.5594C89.4287 79.4073 89.0452 79.3214 88.6557 79.306C87.5552 79.2713 86.5448 79.8684 85.6005 80.443C80.0455 83.8188 74.4037 87.0442 68.6752 90.1191C67.519 90.7406 66.356 91.3568 65.2519 92.0685C63.0977 93.462 61.189 95.2023 59.6032 97.219C59.3116 97.5888 58.9436 98.0089 58.4801 97.9533C58.3532 97.9339 58.2312 97.8903 58.1207 97.8249C57.4073 97.4378 56.9698 96.6896 56.5584 95.9796C56.2598 95.4588 55.9369 94.9155 55.4995 94.5197C55.4058 94.2733 55.281 94.0399 55.128 93.8253C55.7442 92.3046 56.2754 90.7475 56.7684 89.18C57.0254 88.3571 57.2736 87.5291 57.6017 86.7306C58.4106 84.7551 59.7004 82.9653 60.157 80.8753C60.2663 80.3701 60.3306 79.8511 60.4156 79.3407C65.4064 78.3582 69.1734 73.9003 69.1734 68.5467C69.1734 62.4709 64.3232 57.5478 58.3395 57.5478C52.3557 57.5478 47.5072 62.4709 47.5072 68.5467C47.5019 70.396 47.9617 72.217 48.8445 73.842C49.7272 75.467 51.0045 76.844 52.5588 77.8461C52.5588 77.8669 52.5588 77.8877 52.5588 77.9068C52.5484 78.2559 52.5142 78.6039 52.4564 78.9484C52.2567 80.1115 51.762 81.2051 51.2638 82.2657C50.934 82.9757 50.6041 83.6892 50.2622 84.3975C50.0981 84.3645 49.9388 84.3108 49.7883 84.2378C49.4949 84.0746 49.3664 83.717 49.2553 83.401C48.7637 81.9534 48.1619 80.5454 47.4552 79.1897C47.1795 78.6134 46.8293 78.0759 46.4136 77.5909C45.681 76.7889 44.6777 76.3132 43.7073 75.8324C43.5337 75.7491 43.3723 75.6588 43.2056 75.5789C43.0615 75.4718 42.9107 75.3738 42.7543 75.2856C41.9471 74.829 41.0513 74.5009 40.3778 73.8621C39.8726 73.383 39.5254 72.7598 39.0533 72.2512C38.2669 71.4058 37.1819 70.9232 36.1282 70.4632C35.5797 70.2236 35.0033 69.9788 34.4044 70.0118C34.3201 70.0159 34.236 70.0252 34.1527 70.0396C34.0087 70.0642 33.8662 70.0966 33.7257 70.1368C33.589 70.0642 33.4599 69.9781 33.3403 69.8799C32.6963 69.3834 32.4463 68.5311 32.2363 67.7377C31.8891 66.4115 31.5228 65.0384 31.7381 63.6809C31.7755 63.4467 31.8265 63.2148 31.8908 62.9865C31.9446 62.898 31.9967 62.8129 32.0436 62.7174C33.4256 62.302 34.6884 61.5623 35.7267 60.56C36.765 59.5577 37.5487 58.3218 38.0125 56.9552C38.4764 55.5886 38.6069 54.131 38.3933 52.7038C38.1797 51.2765 37.628 49.921 36.7844 48.7501C36.6959 48.6286 36.6108 48.5106 36.5119 48.3925L36.616 48.3352C37.576 47.7485 37.7947 46.3459 37.3503 45.3008C36.9059 44.2558 35.9616 43.518 35.0051 42.9382C34.8662 42.8532 34.7256 42.7733 34.5832 42.6935L34.4617 42.6275C34.3541 42.5685 34.2482 42.5112 34.1406 42.4539L34.0139 42.3897C33.8871 42.3255 33.7604 42.2647 33.6337 42.2057L33.5764 42.1779C33.4184 42.1067 33.2605 42.0373 33.1008 41.9713C32.9463 41.9071 32.7918 41.8481 32.6355 41.7977L32.5713 41.7734C32.4237 41.7196 32.2745 41.6693 32.1252 41.6207L32.0922 41.6103C31.0003 41.2553 29.862 41.0635 28.7141 41.0409C27.5904 41.0476 26.4704 41.1715 25.3724 41.4106C24.3034 41.6042 23.2565 41.9049 22.2477 42.3081C20.5804 43.0147 19.1105 44.117 17.9652 45.5196C17.7238 45.5379 17.4845 45.5774 17.25 45.6376C16.3108 45.8754 15.4654 46.3997 14.693 46.9934C14.0459 47.469 13.4727 48.0376 12.9917 48.6807C12.4253 49.5047 12.0347 50.4366 11.8443 51.4183C11.1864 54.4961 11.9953 57.6676 12.5907 60.761C13.1862 63.8545 13.5299 67.2256 12.07 70.0014C11.5197 71.043 10.7385 71.9474 10.1604 72.9698C9.58238 73.9923 9.18138 75.2265 9.51468 76.3601C9.91915 77.7367 11.2506 78.6029 11.945 79.8528C12.7574 81.3092 12.5335 83.2656 11.4711 84.5398C11.4242 84.5954 11.3773 84.6509 11.327 84.7134C11.2766 84.7759 11.2055 84.8419 11.1395 84.9009C12.2349 85.2863 13.4552 84.8714 14.4378 84.2534C15.2235 83.7892 15.8899 83.1478 16.3838 82.3803C17.6249 80.3423 17.0677 77.7072 17.5052 75.3515C18.0798 72.2668 20.399 69.5153 20.0795 66.3924C19.8643 64.2971 18.4964 62.5456 17.4218 60.7437C16.7076 59.5343 16.1089 58.2603 15.6338 56.9385C15.6147 56.883 15.5956 56.8257 15.5748 56.7649C15.2606 55.8709 15.0193 54.9231 15.1808 53.9874C15.2358 53.6844 15.3267 53.3889 15.4516 53.1073C15.4516 53.1403 15.4516 53.175 15.4516 53.208C15.4727 54.113 15.6739 55.0047 16.0435 55.831C17.1285 58.0877 19.7393 59.1293 21.3971 60.9589C21.4666 61.0353 21.5325 61.1134 21.5985 61.1933C21.6176 61.2141 21.6349 61.2367 21.6523 61.2593L21.7929 61.4328L21.8519 61.5144C21.8953 61.5752 21.9387 61.6359 21.9787 61.6984L22.0325 61.7766C22.088 61.8651 22.1436 61.9501 22.1956 62.0456C22.6175 61.5787 23.0532 61.0874 23.2233 60.4833C23.2389 60.4312 23.2494 60.3774 23.2598 60.3236C23.2737 60.3375 23.2858 60.3531 23.2997 60.3687C23.3327 60.5545 23.3587 60.7402 23.383 60.9277C23.383 61.1955 23.4115 61.4627 23.4681 61.7245C23.6 63.391 23.4941 65.1026 23.383 66.7743C23.324 67.6683 23.5566 68.9963 22.9872 69.6629L22.9699 69.682C22.9365 69.7209 22.8999 69.7569 22.8605 69.7896C22.7633 69.8903 22.6643 69.9892 22.5723 70.0934C20.6628 72.246 19.7949 75.3012 19.84 78.228C19.8851 81.5592 20.9493 84.7863 22.1557 87.8849C22.5771 89.0162 23.0735 90.1181 23.6417 91.1832C23.935 91.7583 24.3229 92.28 24.7891 92.7265C25.2769 93.1587 25.8706 93.4434 26.4556 93.7212C26.6014 93.7906 26.749 93.8583 26.8948 93.9295L27.268 94.1031L30.1098 95.4536C30.6305 96.2192 31.134 97.0055 31.6426 97.7936C31.7155 97.9047 31.7867 98.0193 31.8613 98.1304C32.4168 98.9984 32.9758 99.8663 33.5452 100.71L38.3346 107.803C38.6818 108.324 39.0446 108.845 39.5324 109.23C39.6712 109.339 39.8213 109.433 39.9803 109.509C40.061 109.548 40.1438 109.582 40.2285 109.612C40.1234 109.77 40.0784 109.96 40.1018 110.148C40.1658 110.333 40.2875 110.492 40.449 110.601C41.5322 111.497 42.7352 112.441 43.0754 113.818C43.3167 114.799 43.0754 115.849 43.2924 116.835C43.6899 118.613 45.4484 119.691 47.1115 120.375C50.8385 121.906 54.9787 122.494 58.9383 121.782C62.898 121.071 66.6598 119.017 69.2237 115.88C70.0118 114.912 70.6837 113.854 71.4318 112.855C71.9526 112.15 72.5255 111.478 73.1174 110.83C73.7562 110.538 74.3719 110.198 74.9592 109.813C76.2109 108.982 77.2889 107.914 78.4311 106.925C79.2834 106.182 80.1757 105.48 80.9586 104.668C81.6616 103.897 82.3183 103.086 82.9254 102.238C84.3142 100.398 85.7486 98.5939 87.2288 96.8267C88.0204 95.8806 88.8588 94.9172 89.9646 94.3964L90.015 94.3756C90.1469 95.1533 90.7632 95.813 91.1954 96.4847C92.9834 99.2622 94.8547 102.121 97.6183 103.892C99.1321 104.861 100.844 105.454 102.552 105.996C106.892 107.367 111.301 108.444 115.714 109.522C115.859 109.244 116.002 108.987 116.162 108.737C116.23 108.809 116.294 108.886 116.353 108.966C116.372 108.994 116.387 109.023 116.406 109.051C116.374 109.057 116.343 109.066 116.313 109.077C116.029 109.209 115.807 109.444 115.689 109.733C115.214 110.686 115.169 111.792 115.146 112.858C115.13 113.9 115.146 114.941 115.146 115.983C115.121 116.372 115.18 116.761 115.32 117.125C115.656 117.819 116.512 118.078 117.278 118.167C118.607 118.314 119.948 118.189 121.27 118.01C121.347 118.322 121.472 118.62 121.64 118.894C122.383 120.109 123.666 120.911 125.001 121.381C126.336 121.852 127.751 122.039 129.138 122.315C131.601 122.805 134.121 123.588 136.571 123.036C137.548 122.815 138.48 122.388 139.458 122.201C141.695 121.777 144.015 122.635 146.268 122.291C147.356 122.117 148.386 121.684 149.372 121.185C149.869 120.967 150.319 120.656 150.7 120.269C151.061 119.863 151.278 119.286 151.128 118.76C151.043 118.458 150.849 118.201 150.719 117.917C150.544 117.461 150.445 116.98 150.425 116.493C150.244 114.649 149.932 112.821 149.491 111.021C149.479 110.971 149.465 110.919 149.451 110.867C151.154 110.192 152.68 109.131 154.187 108.076L157.428 105.808C158.47 105.074 159.537 104.336 160.707 103.823C162.502 103.034 164.49 102.809 166.446 102.81C167.247 102.81 168.048 102.85 168.845 102.923C168.744 103.034 168.667 103.166 168.621 103.309C168.462 103.805 168.715 104.35 169.092 104.713C169.468 105.076 169.96 105.281 170.402 105.532C171.626 106.221 172.644 107.222 173.354 108.433C173.798 109.195 174.121 110.12 173.84 110.959C173.492 112.011 172.255 112.737 172.326 113.844C172.367 114.497 172.893 115.037 173.492 115.278C174.091 115.519 174.756 115.516 175.402 115.497C176.459 115.464 177.548 115.382 178.494 114.901C179.131 114.577 179.671 114.087 180.2 113.603C180.683 113.16 181.176 112.7 181.45 112.103C181.707 111.54 181.747 110.903 181.759 110.285C181.811 107.376 181.309 104.427 181.887 101.576C182.061 100.708 182.339 99.8594 182.486 98.9845C182.719 97.5957 182.63 96.1931 182.542 94.7974C182.498 94.11 182.446 93.4017 182.11 92.8063Z" fill="url(#paint0_linear_2_859)"/>
<path opacity="0.06" d="M145.433 52.5692C144.751 53.0292 144.513 53.918 144.426 54.7373C144.056 58.2213 145.494 61.6706 145.398 65.172C145.322 67.9582 144.284 70.6159 143.259 73.2076C141.513 77.6291 140.603 82.4306 140.251 87.1715C139.899 91.9123 139.383 96.8493 136.838 100.859C136.26 101.767 135.587 102.611 135.021 103.524C134.427 104.479 133.957 105.503 133.432 106.496C131.888 109.428 129.897 112.103 127.53 114.424C126.836 115.101 126.1 115.757 125.214 116.148C124.644 116.395 124.03 116.526 123.408 116.533C122.786 116.539 122.169 116.421 121.593 116.186C120.406 115.695 119.406 114.587 119.357 113.302C119.314 112.153 120 111.117 120.687 110.197C123.017 107.08 125.696 104.24 128.672 101.732C129.212 101.278 129.782 100.807 130.061 100.158C130.375 99.4098 130.247 98.5609 130.287 97.7502C130.351 96.4569 130.854 95.2296 131.155 93.9694C132.37 88.8501 130.21 83.2604 131.967 78.3009C132.358 77.1985 132.938 76.1448 133.075 74.9835C133.172 74.1711 132.971 73.2632 132.462 72.6539C131.986 72.1064 131.719 71.4075 131.71 70.6819C131.71 70.5326 131.71 70.385 131.728 70.2392C131.939 67.9669 132.149 65.6841 132.035 63.4048C131.92 61.1256 131.467 58.8341 130.415 56.8083C129.87 55.7581 129.165 54.7755 128.829 53.642C128.287 51.8071 128.787 49.8229 129.594 48.087C130.224 46.7295 131.065 45.4362 132.238 44.5058C134.418 42.7785 137.682 42.5789 140.069 44.0076C141.829 45.0595 143.034 46.8284 144.011 48.6321C144.712 49.9496 145.443 51.0658 145.433 52.5692Z" fill="black"/>
<path d="M139.647 38.7338C139.314 39.633 138.982 40.5322 138.652 41.4314C138.434 42.0217 138.217 42.6171 137.991 43.2073C136.949 45.9275 135.785 48.6043 133.962 50.8558C134.234 50.519 131.67 48.8248 129.78 47.6686C128.858 47.101 128.094 46.6635 127.907 46.5767C127.461 46.3754 127.005 46.1981 126.541 46.0455C125.82 45.8025 125.091 45.5925 124.371 45.3303C122.704 44.728 123.869 43.8235 124.583 42.8514C126.917 39.6677 127.36 35.3175 130.011 32.3925C130.983 34.2395 132.521 35.7268 134.399 36.6368C134.436 36.6559 134.474 36.6733 134.512 36.6889C136.087 37.4249 137.826 37.7426 139.454 38.3588C139.543 38.3918 139.645 38.4387 139.675 38.5324C139.686 38.6008 139.676 38.671 139.647 38.7338Z" fill="#A1616A"/>
<path d="M135.114 103.036C134.36 104.116 133.891 105.37 133.75 106.68C133.609 107.99 133.8 109.314 134.307 110.53C134.435 110.87 134.635 111.178 134.892 111.435C135.22 111.691 135.602 111.869 136.008 111.955C139.456 112.936 143.136 112.743 146.667 112.129C147.863 111.945 149.039 111.645 150.177 111.235C151.925 110.567 153.486 109.499 155.027 108.433L158.287 106.187C159.343 105.459 160.407 104.729 161.586 104.218C163.391 103.439 165.391 103.215 167.358 103.217C169.047 103.219 170.733 103.38 172.392 103.698C173.498 103.911 174.822 104.132 175.6 103.324C176.044 102.868 176.176 102.199 176.263 101.569C176.606 99.1175 176.6 96.6294 176.244 94.1794C176.235 93.9733 176.16 93.7755 176.03 93.6152C175.908 93.5112 175.759 93.4433 175.6 93.4191C174.064 93.0719 172.522 93.7923 171.029 94.287C167.927 95.3182 164.596 95.4414 161.44 96.2903C158.128 97.1808 155.017 98.8664 151.594 99.2084C149.962 99.3716 148.323 99.2292 146.688 99.2657C145.171 99.2987 143.756 99.8229 142.27 99.8854C139.406 100.012 136.915 100.512 135.114 103.036Z" fill="#A1616A"/>
<path opacity="0.06" d="M135.114 103.036C134.36 104.116 133.891 105.37 133.75 106.68C133.609 107.99 133.8 109.314 134.307 110.53C134.435 110.87 134.635 111.178 134.892 111.435C135.22 111.691 135.602 111.869 136.008 111.955C139.456 112.936 143.136 112.743 146.667 112.129C147.863 111.945 149.039 111.645 150.177 111.235C151.925 110.567 153.486 109.499 155.027 108.433L158.287 106.187C159.343 105.459 160.407 104.729 161.586 104.218C163.391 103.439 165.391 103.215 167.358 103.217C169.047 103.219 170.733 103.38 172.392 103.698C173.498 103.911 174.822 104.132 175.6 103.324C176.044 102.868 176.176 102.199 176.263 101.569C176.606 99.1175 176.6 96.6294 176.244 94.1794C176.235 93.9733 176.16 93.7755 176.03 93.6152C175.908 93.5112 175.759 93.4433 175.6 93.4191C174.064 93.0719 172.522 93.7923 171.029 94.287C167.927 95.3182 164.596 95.4414 161.44 96.2903C158.128 97.1808 155.017 98.8664 151.594 99.2084C149.962 99.3716 148.323 99.2292 146.688 99.2657C145.171 99.2987 143.756 99.8229 142.27 99.8854C139.406 100.012 136.915 100.512 135.114 103.036Z" fill="black"/>
<path d="M137.916 99.3664C137.835 99.75 137.762 100.156 137.876 100.531C138.018 100.9 138.259 101.223 138.571 101.465C141.522 104.107 145.738 104.654 149.681 105.083C150.748 105.199 151.835 105.315 152.892 105.123C153.856 104.949 154.755 104.524 155.642 104.104C157.551 103.199 159.471 102.284 161.108 100.955C162.714 99.6528 164.002 97.9863 165.665 96.759C167.556 95.3703 169.88 94.5752 171.567 92.94C172.787 91.763 173.598 90.2263 173.881 88.555C174.072 87.4145 174.01 86.2497 173.881 85.1005C173.744 83.7794 173.524 82.4358 172.895 81.2658C172.168 79.9118 170.946 78.8893 169.656 78.0491C166.927 76.275 163.714 75.1744 160.456 75.2022C155.942 75.2421 151.776 77.8686 148.537 80.8179C145.11 83.9417 142.337 87.7137 140.378 91.9158C139.272 94.2956 138.446 96.7959 137.916 99.3664Z" fill="#464353"/>
<path opacity="0.06" d="M137.916 99.3664C137.835 99.75 137.762 100.156 137.876 100.531C138.018 100.9 138.259 101.223 138.571 101.465C141.522 104.107 145.738 104.654 149.681 105.083C150.748 105.199 151.835 105.315 152.892 105.123C153.856 104.949 154.755 104.524 155.642 104.104C157.551 103.199 159.471 102.284 161.108 100.955C162.714 99.6528 164.002 97.9863 165.665 96.759C167.556 95.3703 169.88 94.5752 171.567 92.94C172.787 91.763 173.598 90.2263 173.881 88.555C174.072 87.4145 174.01 86.2497 173.881 85.1005C173.744 83.7794 173.524 82.4358 172.895 81.2658C172.168 79.9118 170.946 78.8893 169.656 78.0491C166.927 76.275 163.714 75.1744 160.456 75.2022C155.942 75.2421 151.776 77.8686 148.537 80.8179C145.11 83.9417 142.337 87.7137 140.378 91.9158C139.272 94.2956 138.446 96.7959 137.916 99.3664Z" fill="black"/>
<path d="M145.433 52.5692C144.751 53.0292 144.513 53.918 144.426 54.7373C144.056 58.2213 145.494 61.6706 145.398 65.172C145.322 67.9582 144.284 70.6159 143.259 73.2076C141.513 77.6291 140.603 82.4306 140.251 87.1715C139.899 91.9123 139.383 96.8493 136.838 100.859C136.26 101.767 135.587 102.611 135.021 103.524C134.427 104.479 133.957 105.503 133.432 106.496C131.888 109.428 129.897 112.103 127.53 114.424C126.836 115.101 126.1 115.757 125.214 116.148C124.644 116.395 124.03 116.526 123.408 116.533C122.786 116.539 122.169 116.421 121.593 116.186C120.406 115.695 119.406 114.587 119.357 113.302C119.314 112.153 120 111.117 120.687 110.197C123.017 107.08 125.696 104.24 128.672 101.732C129.212 101.278 129.782 100.807 130.061 100.158C130.375 99.4098 130.247 98.5609 130.287 97.7502C130.351 96.4569 130.854 95.2296 131.155 93.9694C132.37 88.8501 130.21 83.2604 131.967 78.3009C132.358 77.1985 132.938 76.1448 133.075 74.9835C133.172 74.1711 132.971 73.2632 132.462 72.6539C131.986 72.1064 131.719 71.4075 131.71 70.6819C131.71 70.5326 131.71 70.385 131.728 70.2392C131.939 67.9669 132.149 65.6841 132.035 63.4048C131.92 61.1256 131.467 58.8341 130.415 56.8083C129.87 55.7581 129.165 54.7755 128.829 53.642C128.287 51.8071 128.787 49.8229 129.594 48.087C130.224 46.7295 131.065 45.4362 132.238 44.5058C134.418 42.7785 137.682 42.5789 140.069 44.0076C141.829 45.0595 143.034 46.8284 144.011 48.6321C144.712 49.9496 145.443 51.0658 145.433 52.5692Z" fill="#A1616A"/>
<path d="M135.842 64.2312C139.47 64.2312 142.412 59.6153 142.412 53.9215C142.412 48.2276 139.47 43.6118 135.842 43.6118C132.213 43.6118 129.271 48.2276 129.271 53.9215C129.271 59.6153 132.213 64.2312 135.842 64.2312Z" fill="#A1616A"/>
<path d="M119.085 107.796C119.279 108.07 119.411 108.382 119.471 108.712C119.531 109.042 119.517 109.381 119.432 109.706C120.051 110.15 120.804 110.37 121.565 110.327C122.321 110.286 123.064 110.115 123.761 109.822C124.368 109.601 124.943 109.299 125.47 108.926C126.376 108.256 127.032 107.298 127.553 106.305C127.846 105.756 128.096 105.046 127.726 104.553C127.581 104.386 127.404 104.249 127.206 104.151C125.868 103.388 124.475 102.726 123.039 102.17C122.645 101.988 122.217 101.892 121.782 101.889C121.25 101.918 120.765 102.21 120.342 102.536C119.39 103.276 118.622 104.227 118.099 105.314C117.936 105.661 117.443 106.485 117.687 106.843C117.799 107.008 118.208 107.065 118.382 107.169C118.658 107.326 118.897 107.54 119.085 107.796Z" fill="#FBBEBE"/>
<path opacity="0.03" d="M119.085 107.796C119.279 108.07 119.411 108.382 119.471 108.712C119.531 109.042 119.517 109.381 119.432 109.706C120.051 110.15 120.804 110.37 121.565 110.327C122.321 110.286 123.064 110.115 123.761 109.822C124.368 109.601 124.943 109.299 125.47 108.926C126.376 108.256 127.032 107.298 127.553 106.305C127.846 105.756 128.096 105.046 127.726 104.553C127.581 104.386 127.404 104.249 127.206 104.151C125.868 103.388 124.475 102.726 123.039 102.17C122.645 101.988 122.217 101.892 121.782 101.889C121.25 101.918 120.765 102.21 120.342 102.536C119.39 103.276 118.622 104.227 118.099 105.314C117.936 105.661 117.443 106.485 117.687 106.843C117.799 107.008 118.208 107.065 118.382 107.169C118.658 107.326 118.897 107.54 119.085 107.796Z" fill="black"/>
<path d="M126.273 103.774C129.21 104.319 131.912 105.739 134.798 106.505C135.967 106.814 137.17 107.025 138.286 107.48C139.402 107.935 140.454 108.713 140.935 109.82C141.138 110.352 141.273 110.907 141.336 111.473C141.461 112.273 141.563 113.167 141.088 113.823C140.586 114.518 139.638 114.67 138.789 114.773C135.738 115.136 132.686 115.5 129.624 115.757C129.004 115.795 128.386 115.868 127.775 115.977C127.271 116.078 126.78 116.231 126.28 116.349C125.633 116.5 124.975 116.595 124.319 116.696C122.64 116.937 120.942 117.179 119.257 116.995C118.488 116.91 117.627 116.661 117.288 115.967C117.148 115.607 117.088 115.221 117.115 114.835C117.106 113.804 117.097 112.775 117.115 111.745C117.13 110.688 117.182 109.591 117.661 108.648C117.78 108.36 118.004 108.127 118.288 107.997C118.463 107.947 118.645 107.931 118.826 107.949C119.729 107.98 120.663 108.018 121.47 108.421C122.111 108.739 122.631 109.268 123.284 109.556C124.52 110.105 126.011 109.711 127.263 110.226C127.554 109.327 127.488 108.418 127.271 107.496C127.054 106.574 126.751 105.67 126.659 104.729C126.655 104.522 126.615 104.317 126.541 104.125C126.447 103.932 126.478 103.744 126.273 103.774Z" fill="#464353"/>
<path opacity="0.06" d="M126.273 103.774C129.21 104.319 131.912 105.739 134.798 106.505C135.967 106.814 137.17 107.025 138.286 107.48C139.402 107.935 140.454 108.713 140.935 109.82C141.138 110.352 141.273 110.907 141.336 111.473C141.461 112.273 141.563 113.167 141.088 113.823C140.586 114.518 139.638 114.67 138.789 114.773C135.738 115.136 132.686 115.5 129.624 115.757C129.004 115.795 128.386 115.868 127.775 115.977C127.271 116.078 126.78 116.231 126.28 116.349C125.633 116.5 124.975 116.595 124.319 116.696C122.64 116.937 120.942 117.179 119.257 116.995C118.488 116.91 117.627 116.661 117.288 115.967C117.148 115.607 117.088 115.221 117.115 114.835C117.106 113.804 117.097 112.775 117.115 111.745C117.13 110.688 117.182 109.591 117.661 108.648C117.78 108.36 118.004 108.127 118.288 107.997C118.463 107.947 118.645 107.931 118.826 107.949C119.729 107.98 120.663 108.018 121.47 108.421C122.111 108.739 122.631 109.268 123.284 109.556C124.52 110.105 126.011 109.711 127.263 110.226C127.554 109.327 127.488 108.418 127.271 107.496C127.054 106.574 126.751 105.67 126.659 104.729C126.655 104.522 126.615 104.317 126.541 104.125C126.447 103.932 126.478 103.744 126.273 103.774Z" fill="black"/>
<path d="M28.1567 74.1746C27.5648 73.9871 26.9936 74.5113 26.6621 75.0425C25.2837 77.209 25.3966 80.101 26.4989 82.4202C26.7612 83.0084 27.1229 83.5469 27.5682 84.0121C28.1654 84.6006 28.9344 84.9773 29.6513 85.4008C31.6406 86.5761 33.3455 88.1766 34.6439 90.0878C35.4928 91.3394 36.1611 92.716 37.1245 93.8808C39.4958 96.7486 43.393 98.0471 45.6931 100.963C46.2434 101.658 46.7086 102.463 47.4429 102.968C47.8794 103.269 48.3881 103.447 48.9165 103.484C49.4449 103.522 49.9738 103.418 50.4485 103.183C50.9233 102.948 51.3267 102.591 51.6171 102.148C51.9075 101.705 52.0743 101.192 52.1004 100.663C52.9944 99.349 53.7252 97.8978 54.4213 96.4674C55.4513 94.2841 56.3215 92.029 57.0252 89.7198C57.2839 88.9039 57.5339 88.0828 57.8637 87.2895C58.6778 85.3314 59.9746 83.559 60.4329 81.4898C60.6169 80.66 60.662 79.7972 60.9293 78.9918C61.1688 78.2688 61.5784 77.6139 62.1237 77.0822C63.929 75.3272 64.9012 72.7702 66.3368 70.7044C66.92 69.8695 67.5259 69.0362 67.9113 68.0919C68.2966 67.1475 68.4442 66.066 68.0849 65.1113C67.7255 64.1565 66.7864 63.3858 65.7691 63.4396C65.3139 63.4868 64.8722 63.6224 64.4689 63.8388C63.067 64.5041 61.781 65.3903 60.6603 66.4636C60.1702 66.9352 59.7066 67.4336 59.2715 67.9565C57.1502 70.4909 55.4907 73.567 55.3449 76.8687C55.2963 78.0006 55.3865 79.2556 54.6678 80.1323C52.6854 82.5539 52.0483 85.8834 50.3575 88.5186C49.5746 89.7337 48.6771 90.9923 47.3387 91.546C47.1411 91.6411 46.9224 91.6841 46.7034 91.671C46.1687 91.6103 45.8615 91.0478 45.6358 90.5583C44.7539 88.649 43.7333 86.8069 42.5823 85.0467C42.1275 84.3523 41.6258 83.6406 40.8984 83.2326C40.402 82.9566 39.8256 82.8334 39.3587 82.5105C38.7077 82.0609 38.3675 81.2953 38.0289 80.5784C36.9319 78.2629 35.5428 76.0974 33.8957 74.1346C33.1423 73.2372 32.1494 72.3102 30.9863 72.4438C29.8788 72.574 29.2017 73.7388 28.1567 74.1746Z" fill="#FBBEBE"/>
<path opacity="0.03" d="M28.1567 74.1746C27.5648 73.9871 26.9936 74.5113 26.6621 75.0425C25.2837 77.209 25.3966 80.101 26.4989 82.4202C26.7612 83.0084 27.1229 83.5469 27.5682 84.0121C28.1654 84.6006 28.9344 84.9773 29.6513 85.4008C31.6406 86.5761 33.3455 88.1766 34.6439 90.0878C35.4928 91.3394 36.1611 92.716 37.1245 93.8808C39.4958 96.7486 43.393 98.0471 45.6931 100.963C46.2434 101.658 46.7086 102.463 47.4429 102.968C47.8794 103.269 48.3881 103.447 48.9165 103.484C49.4449 103.522 49.9738 103.418 50.4485 103.183C50.9233 102.948 51.3267 102.591 51.6171 102.148C51.9075 101.705 52.0743 101.192 52.1004 100.663C52.9944 99.349 53.7252 97.8978 54.4213 96.4674C55.4513 94.2841 56.3215 92.029 57.0252 89.7198C57.2839 88.9039 57.5339 88.0828 57.8637 87.2895C58.6778 85.3314 59.9746 83.559 60.4329 81.4898C60.6169 80.66 60.662 79.7972 60.9293 78.9918C61.1688 78.2688 61.5784 77.6139 62.1237 77.0822C63.929 75.3272 64.9012 72.7702 66.3368 70.7044C66.92 69.8695 67.5259 69.0362 67.9113 68.0919C68.2966 67.1475 68.4442 66.066 68.0849 65.1113C67.7255 64.1565 66.7864 63.3858 65.7691 63.4396C65.3139 63.4868 64.8722 63.6224 64.4689 63.8388C63.067 64.5041 61.781 65.3903 60.6603 66.4636C60.1702 66.9352 59.7066 67.4336 59.2715 67.9565C57.1502 70.4909 55.4907 73.567 55.3449 76.8687C55.2963 78.0006 55.3865 79.2556 54.6678 80.1323C52.6854 82.5539 52.0483 85.8834 50.3575 88.5186C49.5746 89.7337 48.6771 90.9923 47.3387 91.546C47.1411 91.6411 46.9224 91.6841 46.7034 91.671C46.1687 91.6103 45.8615 91.0478 45.6358 90.5583C44.7539 88.649 43.7333 86.8069 42.5823 85.0467C42.1275 84.3523 41.6258 83.6406 40.8984 83.2326C40.402 82.9566 39.8256 82.8334 39.3587 82.5105C38.7077 82.0609 38.3675 81.2953 38.0289 80.5784C36.9319 78.2629 35.5428 76.0974 33.8957 74.1346C33.1423 73.2372 32.1494 72.3102 30.9863 72.4438C29.8788 72.574 29.2017 73.7388 28.1567 74.1746Z" fill="black"/>
<path d="M28.0353 65.8803C30.5625 65.8803 32.6112 64.0313 32.6112 61.7505C32.6112 59.4697 30.5625 57.6207 28.0353 57.6207C25.5081 57.6207 23.4594 59.4697 23.4594 61.7505C23.4594 64.0313 25.5081 65.8803 28.0353 65.8803Z" fill="#FBBEBE"/>
<path d="M32.3265 62.549C33.2363 62.549 33.9739 61.8115 33.9739 60.9016C33.9739 59.9918 33.2363 59.2542 32.3265 59.2542C31.4166 59.2542 30.6791 59.9918 30.6791 60.9016C30.6791 61.8115 31.4166 62.549 32.3265 62.549Z" fill="#FBBEBE"/>
<path d="M28.6359 61.7505C32.1171 61.7505 34.9391 60.9958 34.9391 60.0649C34.9391 59.134 32.1171 58.3793 28.6359 58.3793C25.1548 58.3793 22.3328 59.134 22.3328 60.0649C22.3328 60.9958 25.1548 61.7505 28.6359 61.7505Z" fill="#FBBEBE"/>
<path d="M23.015 59.7056C23.1683 60.1917 23.2889 60.6875 23.376 61.1898C22.8468 60.6525 22.3883 60.0499 22.0116 59.3966C21.9101 59.2839 21.8285 59.1548 21.7703 59.0147C21.2079 57.7058 20.8242 56.3813 20.8242 54.9474C20.8241 53.2849 21.2888 51.6554 22.1659 50.2431C23.043 48.8307 24.2975 47.6917 25.7878 46.9548C27.2781 46.2178 28.9447 45.9122 30.5995 46.0725C32.2543 46.2328 33.8313 46.8526 35.1525 47.8618C36.4736 48.8711 37.4862 50.2297 38.0759 51.7841C38.6657 53.3385 38.809 55.0269 38.4898 56.6585C38.1706 58.2901 37.4016 59.8 36.2695 61.0175C35.1375 62.2351 33.6875 63.1119 32.0835 63.5489C32.356 62.6705 32.7292 61.813 32.7778 60.9016C32.8071 60.5976 32.7631 60.2911 32.6494 60.0076C32.497 59.7061 32.2722 59.4472 31.9949 59.2542C31.002 58.4956 29.7243 58.1641 28.4745 58.1849C27.2231 58.2369 25.9939 58.5317 24.8551 59.0529C24.4957 59.2074 24.0652 59.4157 23.6399 59.558C23.4371 59.6283 23.2277 59.6777 23.015 59.7056Z" fill="#FBBEBE"/>
<path d="M45.6254 79.214C45.0543 80.1288 43.8339 80.4083 42.7611 80.3267C40.7614 80.1791 38.9421 79.1115 37.3971 77.827C35.8521 76.5424 34.5016 75.0495 32.9219 73.8135C29.983 71.5099 26.6725 70.5847 22.9333 70.5308C23.6642 69.925 23.3951 68.4876 23.4541 67.5433C23.5826 65.6338 23.7041 63.6739 23.4541 61.7922C23.4281 61.5891 23.3986 61.3894 23.3639 61.1898C23.4229 61.2523 23.4854 61.3131 23.5496 61.3755C24.6616 62.4427 26.0309 63.2037 27.5242 63.5845C29.0176 63.9654 30.5841 63.9531 32.0713 63.5489C31.9756 63.8513 31.9008 64.1599 31.8473 64.4724C31.6321 65.8143 31.9932 67.1753 32.349 68.4894C32.5608 69.2758 32.8125 70.1194 33.46 70.6107C33.8801 70.9301 34.4096 71.0551 34.9078 71.2235C35.9009 71.562 36.8176 72.0929 37.6054 72.7858C38.154 73.2667 38.647 73.8274 39.2355 74.2457C39.7951 74.5998 40.3847 74.9041 40.9974 75.1554C42.5013 75.8493 43.9221 76.7106 45.2331 77.7228C45.4805 77.8772 45.673 78.1056 45.7834 78.3755C45.8158 78.5186 45.8185 78.6669 45.7913 78.8111C45.7642 78.9553 45.7077 79.0924 45.6254 79.214Z" fill="#FBBEBE"/>
<path d="M55.8797 96.0334C55.7599 96.825 55.0342 97.443 54.5222 98.0575C53.1299 99.7379 51.7186 101.423 50.1615 102.962C48.495 104.605 46.6653 106.071 44.8374 107.536L42.4661 109.433C42.1736 109.701 41.8307 109.907 41.4575 110.041C41.0204 110.15 40.5584 110.095 40.1591 109.886C40 109.81 39.8493 109.717 39.7095 109.61C39.2182 109.228 38.8571 108.707 38.5047 108.195C36.9007 105.854 35.295 103.512 33.6875 101.17C33.1147 100.333 32.5522 99.474 31.9932 98.6147C31.9186 98.5036 31.8474 98.3908 31.7728 98.2797C31.2624 97.4985 30.7538 96.7174 30.2313 95.9622L27.3739 94.6238L26.999 94.4502L26.5563 94.2437C25.9678 93.9676 25.3707 93.6864 24.8811 93.2594C24.4124 92.8188 24.022 92.3016 23.7267 91.73C23.155 90.673 22.6551 89.5786 22.2304 88.4543C21.0152 85.3869 19.9459 82.1894 19.9007 78.8876C19.8608 75.9834 20.7184 72.9629 22.6487 70.8312C22.9126 70.5378 23.1962 70.2629 23.4976 70.0083C23.8691 69.6976 24.2527 69.5153 24.7301 69.583C25.2075 69.6507 25.6606 69.7202 26.1188 69.7983C27.3826 70.0158 28.6365 70.282 29.8806 70.5968C31.002 70.8832 32.1634 71.2096 33.2969 70.9822C33.4792 70.9457 33.6597 70.8937 33.8403 70.8468C33.9878 70.8086 34.1336 70.7721 34.2847 70.7478C34.3685 70.7333 34.4531 70.7241 34.5381 70.7201C35.1405 70.6888 35.7185 70.9301 36.274 71.1679C37.3347 71.6227 38.4266 72.1019 39.2251 72.9386C39.7008 73.442 40.0497 74.06 40.5566 74.5339C41.2336 75.1675 42.1363 75.4921 42.9487 75.9452C43.1056 76.0323 43.257 76.1291 43.4018 76.2351C43.7222 76.4753 44.0135 76.752 44.2697 77.0597C45.3217 78.3009 45.9467 79.976 47.108 81.2103C48.0374 82.1963 48.8452 83.2902 49.514 84.4686C49.6234 84.6648 49.7292 84.8627 49.8334 85.064C50.007 85.3991 50.1684 85.7393 50.3177 86.0831C50.3559 86.1716 50.3941 86.2566 50.4288 86.3486C50.6473 86.8688 50.8379 87.4001 51 87.9405C51.394 89.2511 51.6561 90.6659 52.531 91.7179C53.1421 92.4487 53.9892 92.933 54.7027 93.5632C55.1622 93.9524 55.5237 94.4441 55.7581 94.9988C55.887 95.3275 55.9288 95.6838 55.8797 96.0334Z" fill="#FBBEBE"/>
<path opacity="0.06" d="M51.0468 85.6074C50.8477 85.8585 50.6435 86.1062 50.434 86.3504C50.3993 86.3955 50.3611 86.4389 50.3229 86.4823C48.4956 88.6199 46.4038 90.5162 44.0978 92.1258C42.6709 93.1222 41.1659 94.0058 39.6643 94.8877L36.8868 96.5142C35.7255 97.1965 34.5485 97.8839 33.2604 98.2762C32.8473 98.3995 32.415 98.4984 31.9932 98.6147C31.9186 98.5036 31.8474 98.3908 31.7727 98.2797C31.2624 97.4985 30.7538 96.7173 30.2312 95.9622L27.3739 94.6238C28.9519 93.6264 30.3519 92.3719 31.5158 90.9124C33.2518 88.772 34.5867 86.3313 35.9025 83.9062C36.1358 83.5147 36.3173 83.0945 36.4424 82.6563C36.616 81.929 36.4702 81.1652 36.2566 80.4499C35.475 77.8856 33.8316 75.67 31.6044 74.178C30.042 73.1365 28.2644 72.5029 26.4973 71.8918C25.263 71.4648 23.9107 71.0516 22.6556 71.227C22.9191 70.9338 23.2027 70.6594 23.5045 70.4059C23.876 70.0934 24.2596 69.9111 24.737 69.9788C25.2144 70.0465 25.6675 70.116 26.1258 70.1958C27.0545 70.4805 27.9676 70.8207 28.8755 71.1714C29.4727 71.3903 30.053 71.6532 30.6114 71.9578C31.1673 72.2971 31.7012 72.6711 32.2102 73.0775C33.7154 74.2248 35.3002 75.2638 36.9528 76.1865C38.8623 77.2402 40.8673 78.096 42.8705 78.964C43.083 79.0731 43.3175 79.1325 43.5562 79.1376C43.6758 79.1374 43.792 79.0973 43.8863 79.0238C43.9806 78.9502 44.0477 78.8473 44.077 78.7314C44.0849 78.6049 44.056 78.4789 43.9937 78.3686C43.6465 77.6586 42.8584 77.301 42.1449 76.9555C39.1834 75.5216 36.5795 73.4576 34.0034 71.4092C33.9408 71.3596 33.8859 71.3011 33.8402 71.2356L34.2846 71.1367C37.1676 73.2074 40.2124 75.043 43.3896 76.6257C43.5574 76.7113 43.7258 76.7947 43.8947 76.8757C44.0163 76.9364 44.136 76.9954 44.2593 77.0493C45.1151 77.4694 45.9709 77.9172 46.6149 78.6116C47.0303 79.0905 47.3805 79.6223 47.6565 80.193C48.366 81.5335 48.9719 82.9263 49.4688 84.3593C49.4783 84.3899 49.4893 84.42 49.5018 84.4495C49.5648 84.6684 49.6737 84.8714 49.8212 85.045C49.8732 85.1031 49.9348 85.1519 50.0035 85.189C50.3298 85.3817 50.7777 85.3609 51.0468 85.6074Z" fill="black"/>
<path d="M34.2916 70.7478C37.1742 72.8186 40.219 74.6536 43.3965 76.2351L43.9017 76.4868C44.8738 76.9625 45.8858 77.4346 46.6236 78.2227C47.0386 78.7026 47.3888 79.2349 47.6652 79.8059C48.3752 81.1459 48.9805 82.5388 49.4758 83.9721C49.5869 84.2898 49.717 84.6387 50.0122 84.8019C50.3073 84.9651 50.776 84.9529 51.0381 85.1995C50.802 85.4946 50.5624 85.7862 50.3142 86.0674C48.4874 88.206 46.3956 90.103 44.0892 91.7127C42.6622 92.7091 41.1572 93.5927 39.6556 94.4745L36.8781 96.1011C35.7168 96.7816 34.5398 97.469 33.2518 97.8613C32.7674 98.0089 32.2553 98.12 31.7641 98.2623C31.2537 97.4812 30.7451 96.7 30.2226 95.9449L26.9903 94.4311C28.7262 93.4486 30.2399 92.0512 31.5037 90.4975C33.2396 88.3588 34.5745 85.9181 35.8904 83.493C36.1233 83.1014 36.3048 82.6813 36.4302 82.2432C36.6038 81.5158 36.458 80.7503 36.2445 80.0351C35.4625 77.4789 33.8239 75.2702 31.6044 73.7805C30.042 72.7389 28.2644 72.1071 26.4973 71.4943C25.263 71.069 23.9107 70.6541 22.6556 70.8312C22.9195 70.5378 23.2031 70.2629 23.5045 70.0083C23.876 69.6976 24.2596 69.5153 24.737 69.583C25.2144 69.6507 25.6675 69.7202 26.1258 69.7983C27.0545 70.0847 27.9676 70.4249 28.8755 70.7756C29.473 70.9938 30.0533 71.2567 30.6114 71.562C31.1673 71.9013 31.7012 72.2753 32.2102 72.6817C33.7179 73.8264 35.305 74.8625 36.9597 75.782C38.8692 76.8375 40.8742 77.7002 42.8775 78.5595C43.0899 78.6688 43.3244 78.7281 43.5632 78.7331C43.6829 78.7335 43.7994 78.6937 43.8938 78.62C43.9882 78.5464 44.0552 78.4431 44.084 78.3269C44.0917 78.201 44.0628 78.0756 44.0006 77.9658C43.6534 77.2558 42.8653 76.8965 42.1519 76.5528C39.1904 75.1189 36.5865 73.0531 34.0104 70.9978C33.9473 70.9488 33.8922 70.8902 33.8472 70.8242L34.2916 70.7478Z" fill="#00B0FF"/>
<path d="M58.6137 80.1722C64.6317 80.1722 69.5102 75.2937 69.5102 69.2758C69.5102 63.2578 64.6317 58.3793 58.6137 58.3793C52.5958 58.3793 47.7173 63.2578 47.7173 69.2758C47.7173 75.2937 52.5958 80.1722 58.6137 80.1722Z" fill="#00B0FF"/>
<path d="M69.4476 112.643C71.4873 112.002 73.5583 111.349 75.3498 110.178C76.6083 109.355 77.6933 108.296 78.8355 107.317C79.6948 106.581 80.5905 105.887 81.3786 105.074C82.0847 104.314 82.7455 103.513 83.3576 102.675C84.751 100.851 86.1901 99.062 87.6749 97.3075C88.4716 96.3719 89.3136 95.4189 90.4263 94.8981C92.4035 93.9694 94.7245 94.596 96.8111 95.2331C99.9357 96.1879 103.045 97.1999 105.968 98.6529C107.631 99.4809 109.242 100.404 110.921 101.198C113.99 102.647 117.248 103.642 120.494 104.631C120.736 104.734 121.003 104.756 121.258 104.694C121.44 104.61 121.597 104.48 121.711 104.315C122.135 103.793 122.474 103.207 122.716 102.58C122.763 102.508 122.78 102.422 122.765 102.339C122.75 102.255 122.703 102.18 122.635 102.13C121.246 100.778 119.444 99.9462 117.76 98.9827C116.42 98.2172 115.137 97.3579 113.856 96.4986C112.625 95.674 111.384 94.8408 110.351 93.7801C109.831 93.2437 109.362 92.6518 108.798 92.1623C108.299 91.7545 107.771 91.3843 107.218 91.0547C104.743 89.4745 102.382 87.7246 100.149 85.8174C98.4515 84.3662 97.061 82.4966 95.247 81.1947C94.1342 80.3961 92.8392 79.6688 91.4783 79.8146C89.8222 79.9882 88.6001 81.3769 87.4457 82.5747C83.5659 86.6038 78.6706 89.4872 74.3412 93.0302C70.8068 95.9188 67.5033 99.3507 63.1982 100.875C63.3909 101.514 63.4586 102.153 63.6531 102.784C63.8953 103.663 64.1975 104.523 64.5575 105.361C64.9144 106.102 65.3161 106.821 65.7605 107.513L67.486 110.33C67.8332 110.903 68.196 111.485 68.6925 111.94C68.9528 112.19 69.4476 112.28 69.4476 112.643Z" fill="#464353"/>
<path opacity="0.06" d="M69.4476 112.643C71.4873 112.002 73.5583 111.349 75.3498 110.178C76.6083 109.355 77.6933 108.296 78.8355 107.317C79.6948 106.581 80.5905 105.887 81.3786 105.074C82.0847 104.314 82.7455 103.513 83.3576 102.675C84.751 100.851 86.1901 99.062 87.6749 97.3075C88.4716 96.3719 89.3136 95.4189 90.4263 94.8981C92.4035 93.9694 94.7245 94.596 96.8111 95.2331C99.9357 96.1879 103.045 97.1999 105.968 98.6529C107.631 99.4809 109.242 100.404 110.921 101.198C113.99 102.647 117.248 103.642 120.494 104.631C120.736 104.734 121.003 104.756 121.258 104.694C121.44 104.61 121.597 104.48 121.711 104.315C122.135 103.793 122.474 103.207 122.716 102.58C122.763 102.508 122.78 102.422 122.765 102.339C122.75 102.255 122.703 102.18 122.635 102.13C121.246 100.778 119.444 99.9462 117.76 98.9827C116.42 98.2172 115.137 97.3579 113.856 96.4986C112.625 95.674 111.384 94.8408 110.351 93.7801C109.831 93.2437 109.362 92.6518 108.798 92.1623C108.299 91.7545 107.771 91.3843 107.218 91.0547C104.743 89.4745 102.382 87.7246 100.149 85.8174C98.4515 84.3662 97.061 82.4966 95.247 81.1947C94.1342 80.3961 92.8392 79.6688 91.4783 79.8146C89.8222 79.9882 88.6001 81.3769 87.4457 82.5747C83.5659 86.6038 78.6706 89.4872 74.3412 93.0302C70.8068 95.9188 67.5033 99.3507 63.1982 100.875C63.3909 101.514 63.4586 102.153 63.6531 102.784C63.8953 103.663 64.1975 104.523 64.5575 105.361C64.9144 106.102 65.3161 106.821 65.7605 107.513L67.486 110.33C67.8332 110.903 68.196 111.485 68.6925 111.94C68.9528 112.19 69.4476 112.28 69.4476 112.643Z" fill="black"/>
<path d="M116.97 109.336C117.164 109.61 117.296 109.922 117.356 110.252C117.416 110.582 117.403 110.921 117.318 111.245C117.935 111.691 118.686 111.912 119.446 111.872C120.203 111.83 120.947 111.66 121.647 111.369C122.253 111.147 122.828 110.845 123.355 110.473C124.263 109.803 124.918 108.845 125.447 107.85C125.74 107.303 125.99 106.593 125.612 106.1C125.467 105.932 125.29 105.795 125.091 105.697C123.756 104.935 122.367 104.273 120.934 103.717C120.539 103.535 120.111 103.439 119.677 103.434C119.142 103.463 118.658 103.757 118.234 104.083C117.283 104.823 116.516 105.774 115.993 106.86C115.83 107.208 115.337 108.034 115.58 108.391C115.691 108.556 116.101 108.614 116.274 108.716C116.547 108.872 116.784 109.083 116.97 109.336Z" fill="#FBBEBE"/>
<path d="M124.919 105.229C127.856 105.775 130.558 107.194 133.444 107.959C134.613 108.268 135.816 108.48 136.932 108.935C138.048 109.39 139.1 110.167 139.581 111.275C139.784 111.807 139.919 112.362 139.982 112.927C140.107 113.728 140.209 114.622 139.734 115.278C139.232 115.972 138.284 116.127 137.435 116.227C134.384 116.592 131.332 116.955 128.27 117.212C127.651 117.25 127.035 117.324 126.424 117.432C125.921 117.535 125.43 117.686 124.93 117.804C124.284 117.956 123.624 118.05 122.968 118.151C121.289 118.39 119.592 118.633 117.906 118.448C117.137 118.363 116.276 118.114 115.938 117.42C115.797 117.06 115.738 116.674 115.764 116.288C115.764 115.259 115.747 114.228 115.764 113.198C115.78 112.141 115.832 111.044 116.311 110.101C116.43 109.813 116.654 109.581 116.937 109.45C117.112 109.4 117.295 109.384 117.476 109.402C118.378 109.433 119.312 109.471 120.119 109.874C120.76 110.192 121.222 109.242 121.874 109.527C123.112 110.074 122.274 108.416 123.524 108.931C123.815 108.032 125.055 108.567 124.839 107.645C124.624 106.723 125.397 107.124 125.308 106.176C125.304 105.97 125.264 105.765 125.19 105.572C125.093 105.387 125.124 105.199 124.919 105.229Z" fill="#464353"/>
<path opacity="0.06" d="M36.9354 49.6875C36.2619 50.0799 35.4269 50.0069 34.6422 49.9896C33.956 49.9754 33.2697 50.0108 32.5886 50.0955C32.3434 50.1126 32.1036 50.1762 31.8821 50.283C31.5937 50.469 31.3657 50.735 31.2259 51.0485C30.9481 51.5821 30.761 52.1582 30.6722 52.7532C30.575 53.4215 30.5854 54.1524 30.1687 54.6818C29.6011 55.4022 28.7158 55.2911 27.912 55.4335C27.2126 55.5677 26.5421 55.8239 25.9313 56.1903C25.3291 56.554 24.8124 57.0432 24.4163 57.6247C24.0203 58.2062 23.7543 58.8662 23.6365 59.5598C23.6139 59.7177 23.5983 59.874 23.5913 60.032C23.574 60.4798 23.6191 60.9364 23.5601 61.3756C23.5458 61.4852 23.5237 61.5937 23.4941 61.7002C23.4864 61.7315 23.4766 61.7622 23.4646 61.7922C23.4386 61.5891 23.409 61.3895 23.3743 61.1898C22.8451 60.6525 22.3866 60.0499 22.0099 59.3966C21.9083 59.2839 21.8267 59.1548 21.7686 59.0147C21.2061 57.7058 20.8225 56.3813 20.8225 54.9474C20.8224 53.067 21.4169 51.2347 22.5211 49.7126C23.6252 48.1905 25.1825 47.0566 26.97 46.473C28.7576 45.8894 30.6839 45.886 32.4735 46.4634C34.2631 47.0408 35.8242 48.1693 36.9337 49.6875H36.9354Z" fill="black"/>
<path d="M37.5065 46.2712C37.0604 45.2383 36.1178 44.5058 35.1491 43.9312C33.2396 42.7924 31.0419 42.0772 28.813 42.0477C27.6884 42.048 26.5668 42.1643 25.4661 42.3949C24.3935 42.5866 23.3427 42.8849 22.3293 43.2854C20.6572 43.9808 19.1791 45.0722 18.0224 46.4656C17.7795 46.4841 17.5385 46.523 17.302 46.582C16.3577 46.818 15.5071 47.3371 14.7311 47.9256C14.0818 48.3959 13.5051 48.9592 13.0195 49.5973C12.4512 50.4121 12.0581 51.336 11.8651 52.3105C11.2037 55.3588 12.0179 58.5043 12.615 61.5648C13.2122 64.6252 13.5611 67.9686 12.0942 70.7183C11.5405 71.7599 10.7541 72.6452 10.1639 73.659C9.57367 74.6728 9.18135 75.8932 9.51638 77.018C9.91565 78.3859 11.2593 79.2539 11.9606 80.4847C12.3901 81.2898 12.5434 82.2137 12.3969 83.1143C12.2505 84.015 11.8124 84.8427 11.1499 85.4703C12.2522 85.8522 13.4795 85.4408 14.4725 84.8297C15.2597 84.3713 15.9295 83.736 16.4289 82.974C17.677 80.9534 17.1232 78.3443 17.5572 76.0095C18.1353 72.9542 20.4684 70.2288 20.1472 67.1354C19.9302 65.0523 18.5554 63.325 17.4739 61.5387C16.7525 60.3475 16.1462 59.0902 15.6633 57.7839C15.3161 56.8517 15.0349 55.8501 15.2068 54.871C15.2636 54.5721 15.3551 54.2808 15.4793 54.0031C15.4793 54.036 15.4793 54.069 15.4793 54.102C15.4991 55.0012 15.7011 55.887 16.073 56.7059C17.3645 59.3445 20.8034 60.3166 22.2598 62.8667C22.6852 62.4032 23.1278 61.9172 23.3014 61.3131C23.4542 60.7749 23.376 60.2021 23.3986 59.6431C23.4594 58.0808 24.4089 56.6087 25.7387 55.8032C26.3489 55.4362 27.0196 55.1805 27.7193 55.0481C28.5213 54.904 29.4067 55.0134 29.9761 54.293C30.3927 53.7722 30.3823 53.0327 30.4812 52.3661C30.5692 51.7703 30.7564 51.1935 31.035 50.6597C31.1742 50.3463 31.4024 50.0807 31.6912 49.8958C31.9129 49.7882 32.1534 49.7246 32.3994 49.7084C33.0799 49.6236 33.7657 49.5882 34.4513 49.6025C35.2446 49.6216 36.0935 49.6927 36.774 49.2848C37.7322 48.7015 37.9527 47.3128 37.5065 46.2712Z" fill="#464353"/>
<path opacity="0.06" d="M134.512 36.6889C134.512 36.7132 134.512 36.7358 134.512 36.7601C134.198 39.4681 131.594 39.3431 130.986 43.61C130.747 45.2817 128.209 45.5907 126.541 46.0403C125.82 45.7973 125.091 45.5872 124.371 45.3251C122.704 44.7228 123.869 43.8183 124.583 42.8462C126.917 39.6625 127.36 35.3123 130.011 32.3873C130.983 34.2343 132.521 35.7216 134.399 36.6316C134.436 36.6559 134.474 36.6733 134.512 36.6889Z" fill="black"/>
<path d="M134.573 35.1352C134.572 35.5459 134.549 35.9562 134.503 36.3643C134.183 39.1828 132.777 41.7656 130.583 43.5636C128.389 45.3617 125.581 46.2334 122.754 45.9935C119.928 45.7535 117.307 44.4208 115.447 42.2786C113.588 40.1364 112.637 37.3535 112.797 34.5215C112.957 31.6894 114.215 29.0313 116.304 27.1122C118.393 25.193 121.148 24.1641 123.983 24.244C126.819 24.3239 129.511 25.5064 131.489 27.5402C133.466 29.5739 134.572 32.2986 134.573 35.1352Z" fill="#A1616A"/>
<path d="M138.956 36.3539C140.204 36.2931 141.404 36.7826 142.556 37.2635C147.127 39.173 151.736 41.0982 155.821 43.9017C157.834 45.2904 159.7 46.8667 161.563 48.4481L169.217 54.9509C170.687 56.199 172.168 57.4593 173.348 58.9869C174.043 59.9291 174.677 60.9148 175.246 61.938L176.381 63.8736C176.846 64.6312 177.252 65.4233 177.596 66.2431C178.179 67.7377 178.396 69.4806 179.573 70.5725C180.363 71.3068 181.452 71.6054 182.417 72.0897C183.382 72.5741 184.326 73.4247 184.311 74.5044C184.311 75.1988 183.891 75.8237 183.575 76.4486C182.92 77.7545 182.646 79.218 182.783 80.6722L170.267 71.1072C169.769 70.727 169.248 70.3347 168.635 70.2062C167.84 70.0326 167.029 70.333 166.262 70.6038C160.213 72.7369 153.785 73.5819 147.391 73.0844C144.563 72.8622 141.692 72.3536 139.216 70.97C137.847 70.2062 136.635 69.1942 135.432 68.1926C133.931 66.9357 132.424 65.6755 131.092 64.2381C130.745 63.8545 130.384 63.4326 130.295 62.9188C130.23 62.5473 130.311 62.1689 130.342 61.7939C130.561 59.1605 128.374 56.968 127.707 54.411C127.411 53.2053 127.452 51.9414 127.826 50.7574C128.2 49.5735 128.892 48.5152 129.827 47.6982C131.318 49.0036 131.264 51.2967 131.091 53.2705C130.856 55.9282 131.599 57.2458 131.365 59.9052C132.309 59.8705 132.137 60.4781 132.54 59.6223C132.943 58.7665 133.021 57.8013 133.097 56.8587C133.376 53.4493 133.715 50.0457 134.113 46.6479C134.311 44.9485 134.536 43.2524 134.753 41.5547C134.885 40.5218 134.868 39.5566 135.413 38.6401C136.17 37.3711 137.456 36.425 138.956 36.3539Z" fill="#00B0FF"/>
<path d="M140.59 39.4507C141.385 39.2008 142.24 39.4299 143.039 39.6677C144.451 40.0867 145.855 40.5293 147.25 40.9957C148.391 41.3759 149.547 41.7838 150.512 42.5008C151.514 43.2438 152.248 44.2766 152.975 45.2921C153.496 46.023 154.017 46.7625 154.364 47.5923C154.815 48.679 154.937 49.8698 155.058 51.0398C155.138 51.5447 155.132 52.0595 155.039 52.5622C154.876 53.1081 154.589 53.6089 154.201 54.0256C153.603 54.733 152.91 55.354 152.142 55.8709C150.099 57.2458 147.629 57.8186 145.223 58.3238C143.075 58.7734 140.912 59.1918 138.722 59.3272C137.869 59.381 136.88 59.3272 136.359 58.6536C136.211 58.4436 136.094 58.2132 136.012 57.9697C134.732 54.5795 134.178 50.9584 134.385 47.3406C134.404 46.6811 134.506 46.0267 134.689 45.3928C134.869 44.8856 135.093 44.3948 135.357 43.926C136.015 42.6813 136.708 41.3932 137.842 40.56C139.027 39.692 140.563 39.4178 142.034 39.4733" fill="#A1616A"/>
<path opacity="0.06" d="M148.587 52.3244C147.905 52.7844 147.667 53.6732 147.58 54.4926C147.21 57.9766 148.648 61.4259 148.552 64.9273C148.476 67.7047 147.438 70.3711 146.414 72.9629C144.667 77.3843 143.758 82.1859 143.405 86.9267C143.053 91.6675 142.537 96.6045 139.992 100.615C139.414 101.522 138.741 102.366 138.175 103.279C137.581 104.234 137.111 105.258 136.586 106.251C135.042 109.184 133.051 111.858 130.684 114.179C129.99 114.856 129.254 115.512 128.369 115.903C127.798 116.15 127.184 116.281 126.562 116.288C125.94 116.294 125.323 116.176 124.747 115.941C123.56 115.45 122.56 114.342 122.511 113.058C122.468 111.908 123.154 110.872 123.841 109.952C126.171 106.835 128.85 103.995 131.827 101.488C132.366 101.033 132.936 100.562 133.215 99.9132C133.529 99.165 133.401 98.3161 133.441 97.5055C133.505 96.2122 134.009 94.9849 134.309 93.7246C135.524 88.6053 133.365 83.0156 135.121 78.0561C135.512 76.9538 136.092 75.9001 136.229 74.7387C136.326 73.9263 136.123 73.0184 135.616 72.4091C135.14 71.8614 134.873 71.1628 134.863 70.4371C134.863 70.2878 134.863 70.1403 134.882 69.9944C135.094 67.7221 135.304 65.4394 135.189 63.1601C135.074 60.8808 134.621 58.5894 133.569 56.5635C133.024 55.5133 132.32 54.5308 131.983 53.3972C131.441 51.5623 131.941 49.5782 132.748 47.8422C133.378 46.4847 134.219 45.1915 135.392 44.261C137.572 42.5338 140.836 42.3341 143.223 43.7628C144.983 44.8148 146.188 46.5837 147.165 48.3873C147.867 49.7049 148.606 50.8211 148.587 52.3244Z" fill="black"/>
<path d="M148.983 52.3244C148.301 52.7844 148.063 53.6732 147.976 54.4926C147.606 57.9766 149.044 61.4259 148.948 64.9273C148.872 67.7047 147.834 70.3711 146.809 72.9629C145.063 77.3843 144.155 82.1859 143.801 86.9267C143.447 91.6675 142.933 96.6045 140.388 100.615C139.81 101.522 139.138 102.366 138.571 103.279C137.979 104.234 137.507 105.258 136.982 106.251C135.437 109.183 133.446 111.858 131.08 114.179C130.386 114.856 129.648 115.512 128.763 115.903C128.192 116.15 127.578 116.281 126.956 116.288C126.334 116.294 125.717 116.176 125.142 115.941C123.956 115.45 122.956 114.342 122.907 113.058C122.862 111.908 123.548 110.872 124.237 109.952C126.567 106.835 129.246 103.995 132.222 101.488C132.762 101.033 133.333 100.562 133.611 99.9132C133.927 99.165 133.797 98.3161 133.837 97.5055C133.901 96.2122 134.404 94.9849 134.705 93.7246C135.92 88.6053 133.76 83.0156 135.517 78.0561C135.908 76.9538 136.489 75.9001 136.626 74.7387C136.722 73.9263 136.521 73.0184 136.014 72.4091C135.529 71.8652 135.254 71.1657 135.239 70.4371C135.239 70.2878 135.239 70.1403 135.259 69.9944C135.469 67.7221 135.679 65.4394 135.564 63.1601C135.449 60.8808 134.996 58.5894 133.944 56.5635C133.399 55.5133 132.695 54.5308 132.358 53.3972C131.816 51.5623 132.316 49.5782 133.123 47.8422C133.755 46.4847 134.594 45.1915 135.767 44.261C137.947 42.5338 141.211 42.3341 143.598 43.7628C145.358 44.8148 146.563 46.5837 147.54 48.3873C148.259 49.7049 148.995 50.8211 148.983 52.3244Z" fill="#A1616A"/>
<path d="M166.538 97.6547L166.389 97.6999L166.538 97.6547Z" fill="#464353"/>
<path d="M136.133 105.4C136.14 105.342 136.15 105.284 136.165 105.227L136.133 105.4Z" fill="#464353"/>
<path d="M173.352 93.4885C173.852 92.9105 174.622 92.6518 175.364 92.4591C176.558 92.1503 177.778 91.9516 179.009 91.8654C179.773 91.7832 180.545 91.8307 181.294 92.006C182.033 92.2091 182.734 92.6501 183.109 93.3184C183.441 93.9086 183.493 94.6099 183.536 95.2852C183.627 96.6739 183.71 98.0627 183.481 99.4306C183.333 100.299 183.057 101.139 182.878 102C182.299 104.822 182.802 107.744 182.75 110.626C182.738 111.24 182.698 111.87 182.439 112.428C182.163 113.019 181.667 113.469 181.182 113.913C180.65 114.394 180.108 114.879 179.466 115.2C178.514 115.677 177.419 115.757 176.355 115.79C175.707 115.809 175.041 115.811 174.445 115.573C173.85 115.335 173.313 114.801 173.27 114.153C173.201 113.054 174.44 112.336 174.794 111.294C175.075 110.464 174.753 109.548 174.305 108.792C173.586 107.589 172.561 106.597 171.334 105.92C170.88 105.67 170.395 105.46 170.017 105.107C169.638 104.755 169.382 104.208 169.543 103.718C169.736 103.126 170.425 102.85 171.045 102.791C171.664 102.732 172.319 102.777 172.876 102.501C173.372 102.257 173.718 101.785 173.956 101.286C174.462 100.223 174.532 99.0037 174.152 97.8891C174.001 97.4651 173.783 97.0683 173.506 96.7139C173.246 96.3806 172.711 96.0994 172.525 95.7348C172.196 95.0786 172.909 94.0093 173.352 93.4885Z" fill="#00B0FF"/>
<path opacity="0.06" d="M163.264 68.3314C160.396 65.797 156.399 65.1078 152.649 64.3388C150.717 63.9441 148.795 63.5044 146.882 63.0195C145.625 62.7001 144.365 62.3598 143.063 62.2713C141.761 62.1828 140.421 62.365 139.307 63.0282C138.192 63.6913 137.352 64.8925 137.345 66.1893C137.345 66.7101 137.468 67.2204 137.43 67.736C137.369 68.5658 136.909 69.2983 136.595 70.0743C136.115 71.3009 136.041 72.6495 136.385 73.9211C136.94 75.9469 138.541 77.7315 138.402 79.8233C138.171 83.3247 138.242 86.984 138.961 90.4125C139.68 93.8409 140.577 97.285 140.556 100.793C140.536 104.302 139.473 107.99 136.854 110.327C138.629 111.993 140.799 113.179 143.16 113.773C145.179 114.278 147.58 114.228 149.017 112.723C149.351 112.375 149.627 111.912 149.557 111.435C149.486 111.133 149.359 110.848 149.184 110.593C148.196 108.824 148.316 106.643 148.754 104.668C149.191 102.692 149.939 100.772 150.128 98.7553C150.267 97.2919 150.111 95.8043 150.39 94.36C150.606 93.2542 151.071 92.2126 151.35 91.1207C152.175 87.8815 151.309 84.4808 150.448 81.2537C151.168 82.9115 152.531 84.2048 153.94 85.3296C156.079 87.0343 158.666 88.5394 161.384 88.2373C163.804 87.9665 165.865 86.2844 167.286 84.3107C167.298 82.0279 168.09 79.8701 167.949 77.5926C167.859 76.5922 167.68 75.6018 167.415 74.6328C167.149 73.5496 166.877 72.456 166.373 71.4613C165.708 70.1403 164.372 69.3087 163.264 68.3314Z" fill="black"/>
<path d="M163.858 68.3314C160.99 65.797 156.994 65.1078 153.243 64.3388C151.311 63.9441 149.39 63.5044 147.478 63.0195C146.221 62.7001 144.959 62.3598 143.659 62.2713C142.358 62.1828 141.018 62.365 139.904 63.0282C138.789 63.6913 137.947 64.8925 137.942 66.1893C137.942 66.7101 138.064 67.2204 138.026 67.736C137.967 68.5658 137.496 69.2983 137.191 70.0743C136.711 71.3011 136.638 72.6497 136.982 73.9211C137.536 75.9469 139.137 77.7315 138.999 79.8233C138.767 83.3247 138.838 86.984 139.557 90.4125C140.275 93.8409 141.173 97.285 141.152 100.793C141.131 104.302 140.062 107.978 137.441 110.311C139.216 111.978 141.386 113.163 143.747 113.757C145.766 114.262 148.169 114.212 149.604 112.707C149.938 112.36 150.214 111.896 150.144 111.419C150.072 111.118 149.946 110.832 149.771 110.577C148.783 108.808 148.903 106.628 149.34 104.652C149.778 102.677 150.526 100.757 150.717 98.7397C150.854 97.2763 150.698 95.7886 150.979 94.3443C151.193 93.2385 151.66 92.197 151.937 91.1051C152.762 87.8658 151.897 84.4652 151.035 81.2381C151.755 82.8959 153.118 84.1891 154.529 85.314C156.668 87.0187 159.253 88.5238 161.971 88.2217C164.391 87.9509 166.451 86.2688 167.873 84.295C167.884 82.0123 168.675 79.8545 168.535 77.577C168.444 76.5766 168.265 75.5861 168 74.6172C167.736 73.534 167.462 72.4404 166.958 71.4457C166.313 70.1403 164.965 69.3087 163.858 68.3314Z" fill="#A1616A"/>
<path d="M143.936 112.138C142.663 111.362 141.563 110.332 140.706 109.112C140.397 108.674 140.119 108.209 139.734 107.838C139.348 107.466 138.826 107.19 138.293 107.246C137.691 107.308 137.208 107.767 136.826 108.239C135.802 109.508 135.142 111.06 134.005 112.231C132.693 113.587 130.861 114.314 129.033 114.78C127.206 115.245 125.319 115.49 123.527 116.078C122.965 116.262 122.373 116.512 122.069 117.021C121.684 117.668 121.895 118.517 122.301 119.159C123.05 120.375 124.338 121.158 125.681 121.623C127.025 122.088 128.447 122.274 129.848 122.548C132.323 123.032 134.859 123.808 137.322 123.261C138.305 123.043 139.232 122.619 140.225 122.435C142.482 122.015 144.81 122.864 147.075 122.524C148.17 122.359 149.205 121.921 150.2 121.428C150.698 121.213 151.152 120.905 151.536 120.52C151.899 120.118 152.118 119.547 151.969 119.026C151.883 118.725 151.687 118.472 151.557 118.189C151.352 117.752 151.311 117.26 151.262 116.779C151.075 114.949 150.757 113.135 150.311 111.35C150.156 110.726 149.925 110.032 149.344 109.759C149.225 109.695 149.086 109.68 148.957 109.716C148.75 109.794 148.682 110.044 148.62 110.254C148.45 110.835 148.123 111.358 147.677 111.766C147.23 112.174 146.68 112.453 146.086 112.57C145.492 112.688 144.878 112.641 144.309 112.434C143.74 112.227 143.239 111.868 142.86 111.396" fill="#00B0FF"/>
<path opacity="0.06" d="M134.573 35.1352C134.573 35.5459 134.549 35.9562 134.503 36.3643C133.956 36.4462 133.398 36.3979 132.873 36.2232C132.348 36.0486 131.872 35.7525 131.483 35.3592C131.117 34.9703 130.842 34.4999 130.479 34.1075C130.117 33.7152 129.612 33.3889 129.091 33.4305C128.646 33.4635 128.261 33.7447 127.957 34.0711C127.562 34.496 127.272 35.008 127.112 35.5657C126.995 35.9598 126.938 36.4076 126.612 36.6698C126.285 36.9319 125.884 36.9145 125.497 36.9007C124.996 36.8833 124.475 36.859 124.032 36.6229C123.199 36.1733 122.918 35.1439 122.609 34.2482C122.088 32.7431 120.916 29.8962 119.095 29.5924C118.227 29.4483 117.172 29.9066 116.491 30.4013C115.465 31.1461 114.709 31.6286 113.382 31.6078C114.218 29.1676 115.893 27.1031 118.108 25.7815C120.323 24.4599 122.936 23.9669 125.48 24.3901C128.025 24.8133 130.337 26.1253 132.005 28.0928C133.673 30.0603 134.589 32.5557 134.59 35.1352H134.573Z" fill="black"/>
<path d="M113.367 31.2103C113.054 31.217 112.742 31.1677 112.447 31.0645C111.605 30.7346 111.195 29.7625 111.124 28.8616C111.013 27.4885 111.471 26.1414 111.931 24.8412C112.028 24.5582 112.145 24.2544 112.398 24.0965C112.603 23.9957 112.827 23.9395 113.056 23.9315C114.302 23.7579 115.384 22.9959 116.304 22.1418C117.224 21.2877 118.054 20.3191 119.081 19.6073C121.807 17.7273 125.852 18.078 128.209 20.3972C129.143 21.3138 129.945 22.5567 131.24 22.7719C131.986 22.8952 132.787 22.6383 133.497 22.916C134.017 23.1191 134.389 23.5791 134.687 24.0496C135.656 25.5703 136.111 27.3721 136.262 29.1688C136.413 30.9655 136.274 32.7726 136.133 34.5693C136.141 34.8383 136.072 35.104 135.934 35.3349C135.823 35.468 135.683 35.5748 135.526 35.6473C134.866 35.9727 134.12 36.082 133.394 35.9599C132.669 35.8378 132 35.4903 131.483 34.9668C131.115 34.5797 130.842 34.1093 130.48 33.7152C130.117 33.3212 129.612 32.9983 129.091 33.04C128.648 33.0729 128.259 33.3542 127.957 33.6805C127.562 34.1054 127.272 34.6174 127.112 35.1751C126.997 35.5692 126.938 36.0171 126.612 36.2775C126.285 36.5379 125.884 36.524 125.496 36.5101C124.996 36.491 124.475 36.4684 124.032 36.2306C123.197 35.7827 122.916 34.7533 122.609 33.8576C122.088 32.3525 120.918 29.5039 119.095 29.2018C118.227 29.056 117.172 29.516 116.491 30.0108C115.45 30.7503 114.7 31.2329 113.367 31.2103Z" fill="#464353"/>
<path opacity="0.06" d="M55.8797 96.0334C55.7599 96.825 55.0343 97.443 54.5222 98.0575C53.1299 99.7379 51.7186 101.423 50.1615 102.961C48.495 104.605 46.6653 106.071 44.8374 107.536L42.4661 109.433C42.1736 109.7 41.8307 109.907 41.4575 110.041C41.0204 110.15 40.5584 110.095 40.1591 109.886C40.1938 109.817 40.2302 109.752 40.2702 109.688L43.1136 104.923C43.6726 103.989 44.0389 103.139 44.676 102.262C45.6359 100.95 46.6046 99.6302 47.7867 98.5175C49.2814 97.1097 51.1979 96.0872 52.9754 95.07C53.2324 94.2992 54.3086 94.0857 55.036 94.4502C55.3056 94.5899 55.5483 94.7762 55.7529 95.0005C55.8832 95.3282 55.9269 95.6839 55.8797 96.0334Z" fill="black"/>
<path d="M43.3115 105.119L40.4681 109.886C40.3518 110.079 40.232 110.298 40.2823 110.516C40.3462 110.7 40.4681 110.858 40.6295 110.966C41.7197 111.853 42.9279 112.789 43.2699 114.151C43.5146 115.123 43.2699 116.165 43.4886 117.141C43.8896 118.901 45.6585 119.97 47.3319 120.647C51.0815 122.164 55.2443 122.748 59.2283 122.036C63.2122 121.324 66.9931 119.297 69.5727 116.179C70.3642 115.221 71.0413 114.172 71.7929 113.183C73.876 110.449 76.5199 108.204 79.1428 105.982C82.5192 103.121 84.5086 98.8543 87.4753 95.5664C88.0152 94.9676 88.6106 94.3513 89.3848 94.1534C89.8188 94.044 90.4264 94.2055 90.4437 94.6534C90.4837 95.5213 91.1815 96.2313 91.6589 96.9569C93.4573 99.7066 95.3391 102.541 98.1183 104.295C99.639 105.256 101.363 105.845 103.081 106.378C107.438 107.735 111.881 108.808 116.318 109.871C116.542 109.423 116.81 108.999 117.12 108.605C117.58 108.041 118.186 107.61 118.647 107.043C119.493 106.02 119.79 104.668 120.06 103.369C117.41 101.746 114.689 100.071 112.075 98.3839C110.759 97.5367 109.435 96.6705 108.369 95.5248C107.675 94.7714 107.091 93.9086 106.395 93.15C105.683 92.4139 104.916 91.7332 104.1 91.1138L97.851 86.1091C96.056 84.6735 94.2263 83.158 92.4696 81.6721C91.4818 80.8354 90.3865 79.9552 89.0949 79.9153C87.9891 79.8806 86.9719 80.4725 86.0206 81.0419C80.4332 84.3876 74.7625 87.5829 69.0085 90.6277C67.8437 91.2423 66.6737 91.8533 65.5627 92.5598C63.401 93.935 61.4818 95.6583 59.8827 97.66C59.5893 98.0263 59.2178 98.4429 58.7526 98.3873C58.6247 98.3685 58.5016 98.3255 58.3898 98.2606C57.6729 97.877 57.2337 97.1357 56.8275 96.4327C56.4213 95.7296 55.9682 94.9901 55.2408 94.6256C54.5135 94.261 53.4389 94.4746 53.1803 95.247C51.394 96.2938 49.4845 97.3076 47.9881 98.7154C46.8059 99.8282 45.8373 101.146 44.8773 102.46C44.2368 103.336 43.8687 104.187 43.3115 105.119Z" fill="#464353"/>
<path opacity="0.06" d="M38.6539 76.0459C38.6539 76.0459 41.513 77.3149 43.5631 78.747L38.6539 76.0459Z" fill="black"/>
<path d="M181.844 78.655C181.896 80.2746 181.938 81.8977 181.918 83.5156C181.908 84.3731 181.872 85.2671 181.46 86.0188C181.167 86.5587 180.703 86.9805 180.245 87.3936L177.386 89.9854C176.499 90.7891 175.542 91.6276 174.36 91.8272C173.008 92.0563 171.687 91.3984 170.387 90.9592C169.077 90.5181 167.706 90.2878 166.325 90.277C165.533 90.277 164.735 90.3395 163.953 90.2145C163.388 90.107 162.834 89.9496 162.297 89.7441L159.716 88.8484C159.789 88.1974 160.41 87.7825 160.931 87.3711C162.78 85.8712 163.591 83.46 164.174 81.153C164.648 79.3519 164.986 77.5176 165.184 75.6657C165.273 74.7491 165.313 73.8169 165.12 72.916C164.938 72.1892 164.682 71.483 164.356 70.8086L163.448 68.7619C162.927 67.6058 161.886 67.092 160.825 66.4097C162.426 67.0173 164.377 67.2551 165.594 68.4599C165.829 68.7268 166.107 68.9522 166.417 69.1265C166.748 69.2844 167.125 69.3001 167.488 69.3591C169.295 69.6299 170.831 70.7652 172.324 71.8154C174.151 73.1023 176.03 74.3111 177.959 75.4418C178.827 75.9521 179.722 76.4538 180.453 77.1499C181.184 77.846 181.757 78.773 181.804 79.7816" fill="#464353"/>
<path opacity="0.06" d="M26.1725 75.8115C23.8967 76.2612 22.7128 78.9362 22.8465 81.2502C22.975 83.3171 23.8239 85.2735 25.2456 86.7792C26.1951 87.7773 27.379 88.5481 28.2366 89.6261C29.5038 91.2162 29.9447 93.3184 31.0783 95.0075C31.9011 96.233 33.0555 97.1947 34.203 98.1165C36.8485 100.227 39.5803 102.225 42.3983 104.111C43.544 104.876 44.7973 105.65 46.1757 105.621C47.4741 105.593 48.6702 104.831 49.5173 103.845C50.3645 102.859 50.9061 101.661 51.4564 100.481C53.4388 96.1584 55.4351 91.789 56.3829 87.1298C56.6798 85.6664 56.8794 84.1579 57.5425 82.8195C58.0633 81.7779 58.8341 80.8857 59.5215 79.9448C61.1456 77.7122 62.2855 75.165 62.8684 72.4664C63.2468 70.7062 63.3735 68.821 62.7521 67.1371C62.1306 65.4532 60.6221 63.9933 58.8254 63.8614C57.4037 63.7572 56.008 64.4863 55.0532 65.547C54.0985 66.6076 53.536 67.9634 53.1524 69.3365C52.6024 71.3119 52.3911 73.3663 52.5274 75.4123C52.6385 77.0631 52.9753 78.7296 52.6906 80.3614C52.4893 81.5123 51.9876 82.5869 51.4911 83.6458C50.2082 86.3782 48.9046 89.1452 46.9655 91.4575C46.3336 92.2109 45.4639 92.973 44.497 92.7959C43.1604 92.5529 42.8062 90.8603 42.1466 89.6712C41.3376 88.213 39.8031 87.3364 38.6001 86.1785C36.8884 84.5294 35.8625 82.3178 34.6456 80.2764C33.4287 78.2349 31.8542 76.2195 29.6114 75.4366C27.3686 74.6537 24.3793 75.6588 23.803 77.9641" fill="black"/>
<path opacity="0.06" d="M27.8895 77.3965C25.6119 77.8461 22.7129 78.1394 22.8553 80.4569C22.9823 82.5241 23.8314 84.481 25.2543 85.9858C26.2039 86.9857 27.3878 87.7565 28.2453 88.8345C29.5126 90.4246 29.9535 92.5251 31.087 94.2159C31.9099 95.4432 33.0643 96.4049 34.2117 97.3249C36.8573 99.437 39.5891 101.435 42.407 103.319C43.5528 104.086 44.8061 104.861 46.1844 104.831C47.4829 104.803 48.679 104.04 49.5261 103.055C50.3732 102.071 50.9148 100.871 51.4651 99.6893C53.4476 95.3668 55.4439 90.9975 56.3917 86.3382C56.6885 84.8766 56.8882 83.3663 57.5513 82.0297C58.0721 80.9881 58.8428 80.0958 59.5303 79.1532C61.1546 76.9214 62.2946 74.3747 62.8771 71.6766C63.2556 69.9146 63.3823 68.0311 62.7608 66.3455C62.1394 64.6599 60.6308 63.2035 58.8342 63.0698C57.4124 62.9657 56.0167 63.6965 55.062 64.7554C54.1072 65.8143 53.5448 67.1718 53.1611 68.5467C52.6111 70.5221 52.3997 72.5764 52.5362 74.6224C52.6473 76.275 52.9841 77.9415 52.6994 79.5716C52.498 80.7242 51.9963 81.7988 51.4998 82.8577C50.217 85.59 48.9133 88.3554 46.9743 90.6694C46.3424 91.4228 45.4727 92.1831 44.5058 92.0078C43.1691 91.763 42.815 90.0705 42.1553 88.8831C41.3464 87.4249 39.8118 86.5483 38.6088 85.3904C36.8972 83.743 35.8713 81.5297 34.6544 79.4882C33.4375 77.4468 31.863 75.4331 29.6202 74.6485C27.3774 73.8638 30.1861 78.8894 29.608 81.1947" fill="black"/>
<path d="M26.1725 75.414C23.8967 75.8636 22.7128 78.5387 22.8465 80.8527C22.9746 82.9201 23.8235 84.8772 25.2456 86.3834C26.1951 87.3815 27.379 88.1523 28.2366 89.2303C29.5038 90.8204 29.9447 92.9226 31.0783 94.6117C31.9011 95.839 33.0555 96.8007 34.203 97.7225C36.8485 99.8334 39.5803 101.831 42.3983 103.715C43.544 104.482 44.7973 105.256 46.1757 105.227C47.4741 105.199 48.6702 104.437 49.5173 103.451C50.3645 102.465 50.9061 101.267 51.4564 100.087C53.4388 95.7643 55.4351 91.395 56.3829 86.734C56.6798 85.2724 56.8794 83.7621 57.5425 82.4254C58.0633 81.3839 58.8341 80.4916 59.5215 79.549C61.1458 77.3172 62.2858 74.7705 62.8684 72.0724C63.2468 70.3104 63.3735 68.4269 62.7521 66.7413C62.1306 65.0557 60.6221 63.5993 58.8254 63.4673C57.4037 63.3615 56.008 64.0923 55.0532 65.1529C54.0985 66.2136 53.536 67.5693 53.1524 68.9425C52.6024 70.9179 52.3911 72.9722 52.5274 75.0182C52.6385 76.6691 52.9753 78.3356 52.6906 79.9656C52.4893 81.1183 51.9876 82.1928 51.4911 83.2518C50.2082 85.9841 48.9046 88.7512 46.9655 91.0634C46.3336 91.8168 45.4639 92.5772 44.497 92.4018C43.1604 92.1571 42.8062 90.4663 42.1466 89.2772C41.3376 87.8172 39.8031 86.9406 38.6001 85.7845C36.8884 84.1353 35.8625 81.9238 34.6456 79.8823C33.4287 77.8408 31.8542 75.8272 29.6114 75.0443C27.3686 74.2614 24.3793 75.2665 23.803 77.5718" fill="#FBBEBE"/>
<g opacity="0.06">
<path opacity="0.06" d="M17.4739 61.5474C16.7525 60.3561 16.1463 59.0988 15.6633 57.7926L15.6043 57.619C15.238 57.2258 14.9299 56.7821 14.6895 56.3014C14.3173 55.4826 14.1153 54.5967 14.0958 53.6975C14.0958 53.6645 14.0958 53.6316 14.0958 53.5986C13.9716 53.8763 13.8801 54.1676 13.8233 54.4665C13.6497 55.4456 13.9361 56.4455 14.2798 57.3794C14.7631 58.6855 15.3693 59.9428 16.0904 61.1343C17.1684 62.9361 18.545 64.6721 18.7585 66.7396C19.0797 69.833 16.7466 72.5567 16.1702 75.6136C15.7293 77.9485 16.2883 80.5576 15.0402 82.5782C14.5413 83.3401 13.8713 83.9749 13.0838 84.4322C12.5898 84.747 12.049 84.9813 11.4815 85.1265C11.378 85.2493 11.2667 85.3653 11.1482 85.4737C12.2505 85.8556 13.4778 85.4442 14.4708 84.8332C15.258 84.3748 15.9278 83.7394 16.4272 82.9775C17.6753 80.9568 17.1215 78.3477 17.5555 76.0129C18.1336 72.9577 20.4667 70.2323 20.1455 67.1388C19.9303 65.0592 18.5554 63.325 17.4739 61.5474Z" fill="black"/>
<path opacity="0.06" d="M37.5066 46.2712C37.0604 45.2383 36.1178 44.5058 35.1492 43.9312C33.9213 43.1944 32.585 42.6554 31.1895 42.3341C32.0851 42.6468 32.947 43.0486 33.7622 43.5337C34.7308 44.11 35.6717 44.8408 36.1213 45.8754C36.5709 46.91 36.347 48.3057 35.3818 48.8821C34.7013 49.29 33.8524 49.2171 33.0591 49.1997C32.3735 49.1841 31.6877 49.2189 31.0072 49.3039C30.7615 49.3216 30.5213 49.3852 30.299 49.4914C30.0093 49.679 29.7811 49.9477 29.6428 50.2639C29.3637 50.7977 29.1759 51.3744 29.0873 51.9703C28.9901 52.6369 28.9988 53.3677 28.5821 53.8972C28.0162 54.6176 27.1309 54.5082 26.3254 54.6505C25.6259 54.7848 24.9555 55.041 24.3447 55.4074C23.015 56.2112 22.0655 57.6797 22.0047 59.2473C21.9839 59.8063 22.0603 60.3774 21.9092 60.9155C21.8118 61.2295 21.6589 61.5234 21.4579 61.7835C21.7655 62.1123 22.0346 62.4751 22.2599 62.865C22.6852 62.4015 23.1278 61.9154 23.3014 61.3113C23.4542 60.7732 23.3761 60.2003 23.3987 59.6413C23.4594 58.079 24.409 56.6069 25.7387 55.8015C26.349 55.4344 27.0196 55.1787 27.7194 55.0463C28.5214 54.9023 29.4067 55.0116 29.9761 54.2912C30.3927 53.7704 30.3823 53.0309 30.4813 52.3643C30.5692 51.7686 30.7564 51.1918 31.035 50.6579C31.1743 50.3446 31.4024 50.079 31.6912 49.8941C31.913 49.7865 32.1535 49.7228 32.3995 49.7066C33.08 49.6219 33.7657 49.5865 34.4513 49.6007C35.2446 49.6198 36.0935 49.691 36.774 49.2831C37.7322 48.7015 37.9527 47.3128 37.5066 46.2712Z" fill="black"/>
</g>
<path opacity="0.06" d="M26.1396 62.858C26.1396 62.858 28.1898 64.6218 32.0835 63.5524C32.0835 63.5489 29.6723 64.4985 26.1396 62.858Z" fill="black"/>
<path opacity="0.06" d="M136.095 33.1042C136.099 33.3723 136.027 33.6359 135.887 33.8645C135.776 33.9972 135.636 34.1034 135.479 34.1753C134.819 34.501 134.074 34.6107 133.349 34.4888C132.623 34.367 131.955 34.0198 131.438 33.4965C131.07 33.1077 130.797 32.6285 130.434 32.2449C130.072 31.8613 129.566 31.5262 129.046 31.5679C128.603 31.6026 128.216 31.8838 127.912 32.2085C127.519 32.6347 127.229 33.1463 127.067 33.7031C126.954 34.0989 126.893 34.545 126.568 34.8071C126.244 35.0693 125.841 35.0519 125.452 35.038C124.951 35.0207 124.43 34.9981 123.989 34.7603C123.154 34.3124 122.873 33.2813 122.564 32.3873C122.043 30.8805 120.873 28.0335 119.052 27.7298C118.184 27.5857 117.127 28.0457 116.448 28.5387C115.422 29.2834 114.665 29.766 113.337 29.7538C113.024 29.7599 112.713 29.7105 112.417 29.608C111.653 29.3077 111.245 28.4779 111.122 27.6551C111.075 28.0322 111.065 28.4131 111.093 28.7921C111.166 29.6914 111.575 30.6635 112.417 30.995C112.713 31.0975 113.024 31.1469 113.337 31.1409C114.665 31.1617 115.42 30.6791 116.448 29.9344C117.13 29.4414 118.184 28.9796 119.052 29.1254C120.866 29.4205 122.046 32.2675 122.557 33.7725C122.866 34.6683 123.147 35.6994 123.982 36.1473C124.423 36.3834 124.944 36.4077 125.445 36.425C125.834 36.4389 126.261 36.4407 126.562 36.1941C126.862 35.9476 126.947 35.4842 127.06 35.0901C127.222 34.5331 127.511 34.0215 127.905 33.5955C128.209 33.2708 128.599 32.9896 129.039 32.9549C129.573 32.9132 130.08 33.2379 130.427 33.6319C130.775 34.026 131.063 34.4999 131.431 34.8835C131.948 35.4068 132.616 35.754 133.342 35.8758C134.067 35.9977 134.813 35.888 135.472 35.5623C135.629 35.4898 135.768 35.3837 135.88 35.2515C136.02 35.0224 136.093 34.7581 136.088 34.4895C136.224 33.0273 136.282 31.5589 136.262 30.0906C136.248 31.0957 136.173 32.1008 136.095 33.1042Z" fill="black"/>
<path d="M15.5904 107.159C15.5904 107.159 15.8664 106.852 15.3474 106.73V106.225H15.6599C15.6592 105.615 15.449 105.023 15.0645 104.549C14.6799 104.075 14.1443 103.748 13.5472 103.621V103.008H13.6288V102.212H11.6203V103.008H11.6776V103.628C11.0861 103.761 10.5575 104.091 10.1788 104.564C9.80013 105.038 9.59405 105.626 9.59452 106.232H9.87053V106.716C9.87053 106.716 9.21262 107.027 9.87053 107.584C10.5284 108.142 10.426 108.544 10.426 108.544C10.426 108.544 10.15 109.586 9.59626 109.721V119.378C9.59603 119.66 9.65136 119.939 9.75908 120.2C9.86681 120.46 10.0248 120.697 10.2241 120.896C10.4233 121.096 10.6599 121.254 10.9204 121.362C11.1808 121.47 11.46 121.526 11.7419 121.526H13.4379C14.0074 121.526 14.5536 121.299 14.9563 120.897C15.359 120.494 15.5852 119.948 15.5852 119.378V109.721C15.5852 109.721 14.6148 108.994 14.7884 108.544C15.0213 108.063 15.2894 107.6 15.5904 107.159Z" fill="#464353"/>
</g>
<defs>
<linearGradient id="paint0_linear_2_859" x1="96.3459" y1="123.229" x2="96.3459" y2="17.1805" gradientUnits="userSpaceOnUse">
<stop stop-color="#808080" stop-opacity="0.25"/>
<stop offset="0.54" stop-color="#808080" stop-opacity="0.12"/>
<stop offset="1" stop-color="#808080" stop-opacity="0.1"/>
</linearGradient>
<clipPath id="clip0_2_859">
<rect width="200" height="133.858" fill="white"/>
</clipPath>
</defs>
</svg>
