<svg width="559" height="428" viewBox="0 0 559 428" fill="none" xmlns="http://www.w3.org/2000/svg">
<g clip-path="url(#clip0_2_64)">
<path d="M232.757 390.285C231.829 390.276 230.909 390.103 230.038 389.776C229.407 389.529 228.834 389.15 228.355 388.664C227.877 388.179 227.504 387.596 227.26 386.955C226.938 386.071 226.769 385.137 226.759 384.194C226.69 382.629 226.674 382.158 226.674 378.19C226.674 374.221 226.674 373.75 226.759 372.185C226.769 371.252 226.935 370.328 227.25 369.451C227.484 368.805 227.858 368.221 228.343 367.74C228.815 367.246 229.391 366.867 230.027 366.63C230.898 366.303 231.818 366.131 232.747 366.121C234.288 366.051 234.752 366.034 238.66 366.034C242.568 366.034 243.032 366.034 244.573 366.121C245.501 366.132 246.421 366.304 247.292 366.63C247.923 366.877 248.497 367.256 248.975 367.742C249.454 368.228 249.827 368.81 250.07 369.451C250.392 370.335 250.562 371.269 250.571 372.212C250.64 373.782 250.657 374.248 250.657 378.217C250.657 382.185 250.656 382.656 250.571 384.221C250.561 385.164 250.391 386.098 250.07 386.982C249.827 387.624 249.454 388.206 248.975 388.692C248.497 389.177 247.923 389.556 247.292 389.803C246.421 390.13 245.501 390.303 244.573 390.312C243.032 390.383 242.568 390.399 238.66 390.399C234.752 390.399 234.288 390.399 232.747 390.312" fill="url(#paint0_radial_2_64)"/>
<path d="M232.757 390.285C231.829 390.276 230.909 390.103 230.038 389.776C229.407 389.529 228.834 389.15 228.355 388.664C227.877 388.179 227.504 387.596 227.26 386.955C226.938 386.071 226.769 385.137 226.759 384.194C226.69 382.629 226.674 382.158 226.674 378.19C226.674 374.221 226.674 373.75 226.759 372.185C226.769 371.252 226.935 370.328 227.25 369.451C227.484 368.805 227.858 368.221 228.343 367.74C228.815 367.246 229.391 366.867 230.027 366.63C230.898 366.303 231.818 366.131 232.747 366.121C234.288 366.051 234.752 366.034 238.66 366.034C242.568 366.034 243.032 366.034 244.573 366.121C245.501 366.132 246.421 366.304 247.292 366.63C247.923 366.877 248.497 367.256 248.975 367.742C249.454 368.228 249.827 368.81 250.07 369.451C250.392 370.335 250.562 371.269 250.571 372.212C250.64 373.782 250.657 374.248 250.657 378.217C250.657 382.185 250.656 382.656 250.571 384.221C250.561 385.164 250.391 386.098 250.07 386.982C249.827 387.624 249.454 388.206 248.975 388.692C248.497 389.177 247.923 389.556 247.292 389.803C246.421 390.13 245.501 390.303 244.573 390.312C243.032 390.383 242.568 390.399 238.66 390.399C234.752 390.399 234.288 390.399 232.747 390.312" fill="url(#paint1_radial_2_64)"/>
<path d="M235.722 378.238C235.722 377.642 235.896 377.059 236.223 376.563C236.549 376.067 237.013 375.68 237.555 375.452C238.098 375.224 238.695 375.164 239.271 375.281C239.847 375.397 240.376 375.684 240.792 376.106C241.207 376.528 241.49 377.065 241.604 377.65C241.719 378.235 241.66 378.841 241.435 379.393C241.211 379.944 240.83 380.415 240.342 380.746C239.853 381.077 239.279 381.254 238.692 381.254C238.302 381.254 237.916 381.176 237.555 381.025C237.195 380.873 236.868 380.651 236.592 380.371C236.316 380.091 236.097 379.758 235.948 379.393C235.799 379.027 235.722 378.634 235.722 378.238ZM234.123 378.238C234.123 379.157 234.391 380.055 234.894 380.819C235.396 381.583 236.111 382.179 236.947 382.53C237.782 382.882 238.702 382.974 239.589 382.795C240.477 382.615 241.292 382.173 241.932 381.523C242.571 380.874 243.007 380.046 243.183 379.145C243.36 378.244 243.269 377.31 242.923 376.461C242.577 375.612 241.991 374.886 241.238 374.376C240.486 373.865 239.602 373.593 238.697 373.593C238.096 373.593 237.502 373.713 236.947 373.946C236.392 374.18 235.887 374.522 235.463 374.954C235.038 375.385 234.701 375.897 234.471 376.461C234.241 377.024 234.123 377.628 234.123 378.238ZM242.386 373.409C242.386 373.623 242.449 373.832 242.566 374.01C242.683 374.188 242.85 374.327 243.045 374.409C243.239 374.491 243.454 374.513 243.661 374.471C243.867 374.429 244.057 374.326 244.207 374.175C244.356 374.023 244.457 373.83 244.498 373.62C244.54 373.41 244.518 373.192 244.438 372.994C244.357 372.797 244.22 372.627 244.045 372.508C243.87 372.389 243.664 372.326 243.453 372.326C243.17 372.326 242.899 372.44 242.699 372.643C242.499 372.846 242.386 373.122 242.386 373.409ZM235.098 385.607C234.534 385.6 233.975 385.493 233.446 385.293C233.062 385.143 232.713 384.912 232.422 384.617C232.131 384.321 231.904 383.967 231.756 383.577C231.559 383.04 231.454 382.472 231.447 381.899C231.404 380.946 231.393 380.659 231.393 378.238C231.393 375.818 231.393 375.531 231.447 374.578C231.455 374.005 231.559 373.437 231.756 372.9C231.904 372.51 232.131 372.156 232.422 371.86C232.713 371.564 233.062 371.334 233.446 371.183C233.975 370.983 234.534 370.877 235.098 370.869C236.037 370.826 236.319 370.815 238.697 370.815C241.075 370.815 241.363 370.815 242.301 370.869C242.866 370.878 243.424 370.984 243.954 371.183C244.338 371.334 244.687 371.564 244.978 371.86C245.269 372.156 245.496 372.51 245.644 372.9C245.841 373.437 245.946 374.005 245.953 374.578C245.996 375.531 246.006 375.818 246.006 378.238C246.006 380.659 246.006 380.946 245.953 381.899C245.945 382.472 245.84 383.04 245.644 383.577C245.495 383.967 245.268 384.321 244.977 384.617C244.686 384.912 244.338 385.143 243.954 385.293C243.425 385.494 242.866 385.6 242.301 385.607C241.363 385.651 241.08 385.662 238.697 385.662C236.314 385.662 236.031 385.662 235.098 385.607ZM235.024 369.245C234.284 369.26 233.552 369.403 232.859 369.667C232.267 369.9 231.729 370.256 231.28 370.712C230.832 371.168 230.481 371.714 230.252 372.315C229.992 373.019 229.852 373.762 229.836 374.513C229.794 375.477 229.783 375.786 229.783 378.244C229.783 380.702 229.783 381.011 229.836 381.974C229.852 382.726 229.992 383.469 230.252 384.173C230.481 384.774 230.832 385.32 231.28 385.776C231.729 386.232 232.267 386.588 232.859 386.82C233.552 387.084 234.284 387.227 235.024 387.242C235.973 387.286 236.277 387.297 238.697 387.297C241.117 387.297 241.421 387.297 242.37 387.242C243.11 387.227 243.842 387.084 244.535 386.82C245.127 386.588 245.665 386.232 246.114 385.776C246.563 385.32 246.913 384.774 247.142 384.173C247.402 383.469 247.543 382.726 247.558 381.974C247.6 381.011 247.611 380.702 247.611 378.244C247.611 375.786 247.611 375.477 247.558 374.513C247.543 373.762 247.402 373.019 247.142 372.315C246.913 371.714 246.563 371.168 246.114 370.712C245.665 370.256 245.127 369.9 244.535 369.667C243.842 369.403 243.11 369.26 242.37 369.245C241.421 369.202 241.117 369.191 238.697 369.191C236.277 369.191 235.973 369.191 235.024 369.245Z" fill="white"/>
<g opacity="0.2">
<path opacity="0.2" d="M411.469 219.512C408.803 198.207 417.179 176.23 412.215 155.347C408.382 139.224 396.972 125.753 393.272 109.597C387.785 85.649 400.341 61.0626 416.368 42.6323C427.389 29.9574 441.219 18.4574 457.715 16.1346C467.898 14.6999 478.359 16.936 487.769 21.1483C497.329 25.501 505.902 31.8076 512.954 39.6745C520.007 47.5415 525.387 56.7999 528.759 66.8722C530.892 73.4181 532.187 80.2672 534.853 86.6127C539.449 97.5497 547.9 106.375 553.146 117.009C556.647 124.218 558.625 132.092 558.954 140.123C559.283 148.155 557.954 156.168 555.055 163.648C548.977 179.051 536.25 191.932 534.341 208.413C532.971 220.292 537.359 233.319 531.675 243.769C527.373 251.668 518.517 255.68 510.125 258.636C490.617 265.577 463.367 276.753 443.794 266.113C426.653 256.833 413.948 239.199 411.469 219.512Z" fill="#00B0FF"/>
<path opacity="0.2" d="M466.192 234.667C466.192 234.667 494.913 222.913 498.533 216.296C502.153 209.68 507.224 170.697 507.224 170.697" stroke="#333333" stroke-width="3" stroke-miterlimit="10"/>
<path opacity="0.2" d="M465.947 414.877V161.135" stroke="#333333" stroke-width="3" stroke-miterlimit="10"/>
</g>
<g opacity="0.3">
<path opacity="0.3" d="M153.839 203.811C156.505 182.506 148.129 160.529 153.092 139.646C156.926 123.522 168.336 110.051 172.036 93.895C177.522 69.9475 164.966 45.3611 148.939 26.9308C137.919 14.2721 124.088 2.75589 107.598 0.433151C97.4142 -1.00164 86.9536 1.23447 77.5432 5.4468C67.9841 9.79955 59.4109 16.1061 52.3586 23.9731C45.3062 31.84 39.926 41.0984 36.5537 51.1707C34.421 57.7166 33.1254 64.5657 30.4596 70.9113C25.8637 81.8482 17.4131 90.6735 12.1668 101.307C8.66496 108.517 6.68575 116.39 6.35613 124.421C6.02652 132.453 7.35376 140.466 10.2527 147.946C16.3308 163.35 29.0574 176.231 30.9661 192.712C32.3363 204.591 27.9484 217.618 33.6319 228.067C37.9345 235.967 46.7904 239.979 55.1824 242.935C74.6908 249.876 101.941 261.051 121.513 250.412C138.649 241.132 151.36 223.497 153.839 203.811Z" fill="#00B0FF"/>
<path opacity="0.3" d="M99.115 218.966C99.115 218.966 70.3935 207.211 66.768 200.595C63.1424 193.979 58.0774 154.995 58.0774 154.995" stroke="#333333" stroke-width="3" stroke-miterlimit="10"/>
<path opacity="0.3" d="M99.3656 399.176V145.434" stroke="#333333" stroke-width="3" stroke-miterlimit="10"/>
</g>
<g opacity="0.4">
<path opacity="0.4" d="M247.084 218.933C245.111 203.232 251.29 187.07 247.617 171.699C244.791 159.825 236.42 149.912 233.669 138.016C229.628 120.387 238.873 102.282 250.672 88.746C258.787 79.4171 268.97 70.9491 281.11 69.2545C288.606 68.1716 296.311 69.8446 303.231 72.947C310.269 76.1512 316.58 80.7938 321.772 86.5853C326.964 92.3767 330.925 99.1927 333.408 106.608C335.008 111.427 335.93 116.467 337.897 121.14C341.283 129.191 347.494 135.688 351.36 143.517C353.936 148.825 355.392 154.62 355.634 160.533C355.875 166.445 354.897 172.343 352.762 177.849C348.289 189.187 338.9 198.673 337.513 210.806C336.548 219.513 339.747 229.096 335.557 236.8C332.39 242.615 325.869 245.55 319.695 247.748C305.332 252.859 285.274 261.084 270.863 253.249C258.264 246.4 248.907 233.433 247.084 218.933Z" fill="#00B0FF"/>
<path opacity="0.2" d="M247.084 218.933C245.111 203.232 251.29 187.07 247.617 171.699C244.791 159.825 236.42 149.912 233.669 138.016C229.628 120.387 238.873 102.282 250.672 88.746C258.787 79.4171 268.97 70.9491 281.11 69.2545C288.606 68.1716 296.311 69.8446 303.231 72.947C310.269 76.1512 316.58 80.7938 321.772 86.5853C326.964 92.3767 330.925 99.1927 333.408 106.608C335.008 111.427 335.93 116.467 337.897 121.14C341.283 129.191 347.494 135.688 351.36 143.517C353.936 148.825 355.392 154.62 355.634 160.533C355.875 166.445 354.897 172.343 352.762 177.849C348.289 189.187 338.9 198.673 337.513 210.806C336.548 219.513 339.747 229.096 335.557 236.8C332.39 242.615 325.869 245.55 319.695 247.748C305.332 252.859 285.274 261.084 270.863 253.249C258.264 246.4 248.907 233.433 247.084 218.933Z" fill="black"/>
<path opacity="0.4" d="M287.369 230.097C287.369 230.097 308.515 221.435 311.181 216.562C313.846 211.689 317.578 182.993 317.578 182.993" stroke="#333333" stroke-width="3" stroke-miterlimit="10"/>
<path opacity="0.4" d="M287.188 362.759V175.965" stroke="#333333" stroke-width="3" stroke-miterlimit="10"/>
</g>
<g opacity="0.5">
<path opacity="0.5" d="M443.224 283.093C443.229 281.84 442.79 280.627 441.987 279.676C441.594 279.287 441.222 278.877 440.873 278.447C440.386 277.656 440.122 276.744 440.11 275.81C439.961 273.591 440.329 271.235 439.625 269.08C438.98 267.115 437.023 266.076 435.216 265.426C434.573 265.138 433.868 265.022 433.169 265.09C432.017 265.296 431.212 266.4 430.871 267.537C430.529 268.674 430.54 269.882 430.337 271.051C430.135 272.221 429.596 273.428 428.567 273.986C427.538 274.544 426.323 274.322 425.176 274.192C423.677 274.016 422.163 274.001 420.661 274.148C420.277 274.185 419.897 274.254 419.525 274.354C417.925 268.842 413.383 262.6 403.914 262.6C393.554 262.6 388.772 268.36 386.927 274.165H386.767C385.265 274.017 383.751 274.032 382.251 274.208C381.105 274.343 379.873 274.554 378.86 274.002C377.847 273.45 377.309 272.237 377.09 271.068C376.872 269.898 376.877 268.691 376.557 267.554C376.237 266.417 375.411 265.312 374.259 265.106C373.56 265.039 372.855 265.154 372.212 265.442C370.404 266.097 368.442 267.131 367.802 269.097C367.093 271.262 367.467 273.607 367.317 275.827C367.305 276.76 367.042 277.672 366.555 278.464C366.205 278.893 365.833 279.303 365.441 279.693C364.637 280.643 364.198 281.856 364.204 283.109C364.189 283.994 364.402 284.868 364.822 285.643C365.926 287.619 368.149 288.632 369.685 290.288C370.254 290.843 370.628 291.571 370.751 292.362C370.842 293.293 370.383 294.17 370.154 295.069C369.821 296.368 369.941 297.744 370.495 298.962C370.627 299.246 370.787 299.514 370.975 299.763C371.222 300.111 371.542 300.398 371.913 300.603C373.246 301.296 374.851 300.603 376.344 300.689C377.065 300.753 377.764 300.977 378.391 301.344H366.443C365.783 301.344 365.149 301.611 364.682 302.085C364.215 302.559 363.953 303.202 363.953 303.873V312.855C363.953 313.526 364.215 314.169 364.682 314.643C365.149 315.117 365.783 315.384 366.443 315.384H368.426L369.781 350.246L370.314 364.324L371.231 387.925C371.276 389.102 371.768 390.215 372.604 391.031C373.44 391.848 374.555 392.304 375.715 392.305H422.932C424.092 392.304 425.206 391.848 426.042 391.031C426.878 390.215 427.37 389.102 427.416 387.925L428.301 365.217L429.085 344.897L430.231 315.378H432.22C432.88 315.378 433.513 315.112 433.98 314.638C434.447 314.164 434.709 313.52 434.709 312.85V303.862C434.709 303.191 434.447 302.548 433.98 302.074C433.513 301.6 432.88 301.334 432.22 301.334H428.989C429.616 300.966 430.315 300.743 431.036 300.678C432.529 300.57 434.134 301.285 435.467 300.592C435.837 300.387 436.158 300.1 436.405 299.753C436.592 299.503 436.753 299.235 436.885 298.951C437.438 297.733 437.559 296.357 437.226 295.058C436.991 294.154 436.538 293.277 436.629 292.351C436.752 291.56 437.126 290.832 437.695 290.278C439.231 288.626 441.454 287.614 442.558 285.632C442.978 284.857 443.191 283.983 443.176 283.098L443.224 283.093ZM414.924 291.599C415.012 291.743 415.108 291.882 415.212 292.016C415.782 292.763 416.464 293.418 416.982 294.181C418.048 295.806 418.357 297.847 418.485 299.812C418.517 300.31 418.54 300.81 418.554 301.312H397.862C398.587 299.763 399.627 295.898 400.672 291.734C402.56 296.017 408.392 294.468 408.392 294.468C410.75 294.009 412.98 293.029 414.924 291.599ZM392.237 274.441C394.301 268.517 399.867 265.236 406.596 267.148C413.239 269.064 414.854 271.252 414.673 278.994C414.492 286.737 408.12 291.117 405.7 290.841C403.279 290.564 402.112 288.106 402.112 288.106L401.664 287.468C402.922 282.454 403.908 278.079 403.908 278.079C405.257 271.425 400.32 272.611 400.32 272.611C394.306 273.694 396.732 282.638 396.732 282.638C396.732 282.638 394.13 295.307 394.04 298.134C394.013 298.713 393.912 299.931 393.784 301.328H388.857C388.857 300.83 388.88 300.33 388.926 299.828C389.054 297.863 389.348 295.827 390.43 294.198C390.963 293.412 391.63 292.757 392.2 292.032C392.441 291.753 392.622 291.427 392.733 291.073C392.828 290.592 392.774 290.093 392.579 289.644L392.68 289.612H392.573V289.579C392.488 289.366 392.39 289.158 392.28 288.956L393.117 284.446C391.774 282.822 389.865 281.198 392.221 274.441H392.237Z" fill="url(#paint2_linear_2_64)"/>
</g>
<path d="M373.294 267.635C373.914 267.359 374.593 267.249 375.267 267.315C376.376 267.51 377.154 268.582 377.479 269.676C377.805 270.77 377.799 271.939 378.012 273.06C378.226 274.181 378.727 275.35 379.719 275.886C380.71 276.422 381.883 276.211 382.987 276.081C384.433 275.913 385.894 275.9 387.343 276.043C388.558 276.162 390.009 276.585 390.345 277.765C390.638 278.734 390.057 279.72 389.667 280.656C389.291 281.526 389.101 282.467 389.109 283.417C389.118 284.367 389.324 285.305 389.715 286.168C390.558 287.895 392.221 289.135 392.914 290.927C393.118 291.375 393.178 291.877 393.085 292.362C392.982 292.702 392.811 293.017 392.584 293.288C392.051 294.008 391.379 294.641 390.878 295.394C389.811 296.97 389.55 298.93 389.428 300.808C389.308 302.671 389.319 304.54 389.459 306.401C388.1 305.947 386.591 306.353 385.194 306.06C382.208 305.438 380.342 301.842 377.298 301.626C375.859 301.523 374.307 302.211 373.033 301.539C372.419 301.179 371.939 300.623 371.668 299.958C371.134 298.784 371.017 297.458 371.337 296.206C371.561 295.334 372.004 294.484 371.913 293.591C371.785 292.822 371.41 292.118 370.847 291.588C369.365 289.991 367.221 289.016 366.155 287.11C365.671 286.204 365.469 285.169 365.575 284.144C365.682 283.118 366.092 282.149 366.752 281.365C367.128 280.99 367.484 280.594 367.818 280.18C368.288 279.416 368.543 278.536 368.554 277.635C368.698 275.469 368.341 273.222 369.023 271.138C369.663 269.286 371.551 268.263 373.294 267.635Z" fill="#4DB6AC"/>
<path opacity="0.6" d="M373.337 267.694C373.337 267.694 379.393 301.859 387.263 305.936" stroke="#535461" stroke-miterlimit="10"/>
<path opacity="0.6" d="M390.185 277.153C390.185 277.153 383.696 278.057 377.213 284.825" stroke="#535461" stroke-miterlimit="10"/>
<path opacity="0.6" d="M378.354 288.778C376.614 287.236 374.579 286.075 372.378 285.367C370.176 284.659 367.855 284.419 365.558 284.663" stroke="#535461" stroke-miterlimit="10"/>
<path opacity="0.6" d="M393.037 290.943C393.037 290.943 383.925 291.728 380.55 295.275" stroke="#535461" stroke-miterlimit="10"/>
<path opacity="0.6" d="M381.921 298.594C378.503 298.156 375.041 298.92 372.11 300.76" stroke="#535461" stroke-miterlimit="10"/>
<path d="M434.075 267.635C433.455 267.359 432.776 267.249 432.102 267.315C430.993 267.51 430.215 268.582 429.889 269.676C429.564 270.77 429.57 271.939 429.356 273.06C429.143 274.181 428.642 275.35 427.65 275.886C426.658 276.422 425.485 276.211 424.382 276.081C422.935 275.913 421.475 275.9 420.026 276.043C418.81 276.162 417.36 276.585 417.024 277.765C416.731 278.734 417.312 279.72 417.701 280.656C418.077 281.526 418.268 282.467 418.259 283.417C418.251 284.367 418.045 285.305 417.653 286.168C416.811 287.895 415.147 289.135 414.454 290.927C414.251 291.375 414.191 291.877 414.284 292.362C414.387 292.702 414.558 293.017 414.785 293.288C415.318 294.008 415.99 294.641 416.491 295.394C417.557 296.97 417.818 298.93 417.941 300.808C418.06 302.671 418.05 304.54 417.909 306.401C419.269 305.947 420.778 306.353 422.174 306.06C425.16 305.438 427.026 301.842 430.071 301.626C431.51 301.523 433.062 302.211 434.336 301.539C434.95 301.179 435.429 300.623 435.701 299.958C436.235 298.784 436.352 297.458 436.032 296.206C435.808 295.334 435.365 294.484 435.456 293.591C435.584 292.822 435.959 292.118 436.522 291.588C438.004 289.991 440.148 289.016 441.214 287.11C441.698 286.204 441.9 285.169 441.793 284.144C441.687 283.118 441.277 282.149 440.617 281.365C440.241 280.99 439.885 280.594 439.55 280.18C439.081 279.416 438.826 278.536 438.815 277.635C438.671 275.469 439.028 273.222 438.346 271.138C437.706 269.286 435.818 268.263 434.075 267.635Z" fill="#4DB6AC"/>
<path opacity="0.6" d="M434.037 267.694C434.037 267.694 427.98 301.859 420.111 305.936" stroke="#535461" stroke-miterlimit="10"/>
<path opacity="0.6" d="M417.184 277.153C417.184 277.153 423.673 278.057 430.156 284.825" stroke="#535461" stroke-miterlimit="10"/>
<path opacity="0.6" d="M429.015 288.778C430.755 287.236 432.789 286.075 434.991 285.367C437.192 284.659 439.514 284.419 441.811 284.663" stroke="#535461" stroke-miterlimit="10"/>
<path opacity="0.6" d="M414.332 290.943C414.332 290.943 423.443 291.728 426.818 295.275" stroke="#535461" stroke-miterlimit="10"/>
<path opacity="0.6" d="M425.448 298.594C428.866 298.156 432.328 298.92 435.258 300.76" stroke="#535461" stroke-miterlimit="10"/>
<path d="M419.455 282.486C418.501 287.143 417.813 293.472 408.206 295.67C408.206 295.67 402.581 297.165 400.741 293.033C399.616 297.516 398.491 301.648 397.798 302.703C396.496 304.852 395.05 306.907 393.469 308.854C393.469 308.854 394.247 300.944 394.333 299.184C394.418 296.477 396.929 284.241 396.929 284.241C396.929 284.241 394.594 275.626 400.389 274.571C400.389 274.571 405.151 273.428 403.85 279.844C403.85 279.844 402.895 284.062 401.685 288.897L402.117 289.514C402.117 289.514 403.242 291.886 405.577 292.151C407.912 292.416 414.06 288.198 414.23 280.727C414.401 273.255 412.844 271.149 406.441 269.302C399.952 267.456 394.583 270.618 392.579 276.341C390.329 282.838 392.147 284.425 393.442 286.011L392.627 290.402C392.627 290.402 386.394 288.291 386.57 281.615C386.746 274.939 390.462 264.917 403.882 264.917C417.205 264.911 420.41 277.743 419.455 282.486Z" fill="#BD081C"/>
<path d="M429.617 307.685L428.194 344.269L427.437 363.864L426.584 385.759C426.54 386.894 426.065 387.967 425.259 388.754C424.453 389.542 423.378 389.982 422.26 389.982H376.728C375.609 389.982 374.535 389.542 373.729 388.754C372.922 387.967 372.448 386.894 372.404 385.759L371.519 363.019L370.985 349.44L369.386 307.701L429.617 307.685Z" fill="#F0E4E4"/>
<path d="M431.217 302.27H367.77C366.445 302.27 365.371 303.361 365.371 304.707V313.37C365.371 314.715 366.445 315.806 367.77 315.806H431.217C432.542 315.806 433.616 314.715 433.616 313.37V304.707C433.616 303.361 432.542 302.27 431.217 302.27Z" fill="#00B0FF"/>
<path opacity="0.15" d="M428.194 344.269L427.437 363.863C419.039 361.454 406.11 359.023 397.361 363.452C390.323 367.025 379.991 365.434 371.519 363.003L370.985 349.423C377.16 351.708 384.059 352.704 388.825 348.833C396.897 342.276 416.875 341.296 428.194 344.269Z" fill="#00B0FF"/>
<path d="M243.277 390.247C243.277 390.247 253.269 376.295 263.538 377.567C263.538 377.572 252.576 389.403 243.277 390.247Z" fill="#4DB6AC"/>
<path opacity="0.6" d="M243.277 390.247C243.277 390.247 261.405 377.21 263.469 377.638" stroke="#535461" stroke-width="0.5" stroke-miterlimit="10"/>
<path d="M228.316 394.638C228.316 394.638 216.725 382.028 219.898 372.034C219.914 372.028 229.281 385.207 228.316 394.638Z" fill="#4DB6AC"/>
<path opacity="0.6" d="M228.316 394.638C228.316 394.638 219.151 374.107 219.956 372.115" stroke="#535461" stroke-width="0.5" stroke-miterlimit="10"/>
<path d="M255.178 392.115L253.525 419.046L253.242 423.627C253.185 424.551 252.784 425.418 252.119 426.052C251.454 426.685 250.576 427.038 249.665 427.038H217.707C216.795 427.038 215.917 426.685 215.252 426.052C214.588 425.418 214.186 424.551 214.129 423.627L213.74 417.308L212.188 392.115H255.178Z" fill="#F0E4E4"/>
<path opacity="0.1" d="M212.503 397.573H254.863L255.178 392.478H212.188L212.503 397.573Z" fill="black"/>
<path d="M254.207 388.114H213.153C211.828 388.114 210.754 389.205 210.754 390.551V394.774C210.754 396.119 211.828 397.21 213.153 397.21H254.207C255.532 397.21 256.606 396.119 256.606 394.774V390.551C256.606 389.205 255.532 388.114 254.207 388.114Z" fill="#00B0FF"/>
<path opacity="0.15" d="M253.519 419.046L253.236 423.627C253.179 424.551 252.778 425.418 252.113 426.052C251.448 426.685 250.571 427.038 249.659 427.038H217.706C216.795 427.038 215.917 426.685 215.252 426.052C214.588 425.418 214.186 424.551 214.129 423.627L213.74 417.308C217.179 414.52 222.548 412.24 230.097 414.671C240.643 418.066 247.121 419.208 253.519 419.046Z" fill="#00B0FF"/>
<g opacity="0.5">
<path opacity="0.5" d="M543.908 332.201C509.294 327.923 475.427 366.202 464.887 379.397H462.375L461.704 369.191L465.766 368.915L465.996 363.566L461.352 363.88L461.154 360.929C461.135 360.698 461.161 360.465 461.231 360.244C461.301 360.023 461.414 359.819 461.563 359.643C461.712 359.467 461.894 359.323 462.099 359.219C462.303 359.115 462.526 359.054 462.754 359.039L465.66 358.839L465.35 354.123L458.952 354.556C453.845 355.791 454.735 361.362 454.735 361.362L454.932 364.313L452.027 364.513L452.378 369.819L455.284 369.619L455.929 379.365H433.051C432.378 379.365 431.732 379.636 431.256 380.119C430.781 380.603 430.513 381.258 430.513 381.942V387.529C430.512 388.124 430.714 388.701 431.085 389.162C431.455 389.622 431.971 389.939 432.545 390.058L432.577 390.54L434.011 413.854L434.469 421.32C434.537 422.412 435.012 423.436 435.798 424.184C436.583 424.933 437.62 425.349 438.697 425.348H476.446C477.523 425.349 478.56 424.933 479.345 424.184C480.131 423.436 480.606 422.412 480.674 421.32L481.01 415.906L482.572 390.567L482.604 390.085C483.178 389.966 483.694 389.65 484.064 389.189C484.434 388.728 484.636 388.151 484.635 387.556V381.974C484.635 381.291 484.368 380.635 483.892 380.152C483.416 379.669 482.77 379.397 482.097 379.397H479.096C511.896 366.744 543.908 332.201 543.908 332.201Z" fill="url(#paint3_linear_2_64)"/>
</g>
<path d="M462.941 383.485C462.941 383.485 501.328 329.883 540.782 334.756C540.782 334.756 498.662 380.236 462.941 383.485Z" fill="#4DB6AC"/>
<path opacity="0.6" d="M462.941 383.485C462.941 383.485 532.519 333.403 540.517 335.027" stroke="#535461" stroke-miterlimit="10"/>
<path d="M462.593 361.909L462.779 364.697L467.167 364.4L466.948 369.451L463.105 369.711L464.027 383.642L457.992 384.053L457.07 370.122L454.324 370.312L453.994 365.298L456.739 365.109L456.553 362.32C456.553 362.32 455.711 357.058 460.54 355.894L466.575 355.482L466.868 359.938L464.123 360.128C463.905 360.136 463.691 360.19 463.495 360.285C463.298 360.381 463.123 360.516 462.979 360.683C462.836 360.85 462.728 361.045 462.661 361.255C462.595 361.466 462.572 361.689 462.593 361.909Z" fill="#3B5998"/>
<path d="M483.2 383.82L481.355 413.881L481.04 418.992C480.973 420.021 480.522 420.984 479.781 421.688C479.039 422.392 478.062 422.783 477.047 422.782H441.379C440.364 422.783 439.387 422.392 438.645 421.688C437.904 420.984 437.453 420.021 437.386 418.992L436.954 411.953L435.221 383.831L483.2 383.82Z" fill="#F0E4E4"/>
<path opacity="0.1" d="M435.567 389.912H482.853L483.2 384.227H435.215L435.567 389.912Z" fill="black"/>
<path d="M482.401 379.354H436.015C434.69 379.354 433.616 380.445 433.616 381.79V387.069C433.616 388.415 434.69 389.505 436.015 389.505H482.401C483.726 389.505 484.8 388.415 484.8 387.069V381.79C484.8 380.445 483.726 379.354 482.401 379.354Z" fill="#00B0FF"/>
<path opacity="0.15" d="M481.356 413.881L481.042 418.992C480.974 420.021 480.524 420.984 479.782 421.688C479.041 422.392 478.063 422.783 477.048 422.782H441.379C440.364 422.783 439.386 422.392 438.645 421.688C437.903 420.984 437.453 420.021 437.385 418.992L436.954 411.953C440.792 408.84 446.785 406.295 455.215 409.008C466.982 412.765 474.212 414.065 481.356 413.881Z" fill="#00B0FF"/>
<g opacity="0.5">
<path opacity="0.5" d="M345.175 353.376H322.516C324.35 350.891 325.896 347.512 326.941 342.959C326.895 342.339 326.895 341.716 326.941 341.096C327.431 340.912 329.996 337.994 329.996 337.994L326.951 338.616C328.476 337.994 328.786 334.897 328.844 334.897L325.789 336.759C325.789 336.759 324.872 334.258 320.596 334.258C318.899 334.258 317.272 334.942 316.072 336.161C314.872 337.379 314.198 339.032 314.198 340.755C314.176 341.213 314.217 341.673 314.321 342.119L313.708 342.244C313.174 342.212 312.641 342.157 312.162 342.087L312.423 341.811C311.749 341.729 311.069 341.706 310.391 341.74C303.881 340.116 301.328 335.487 301.328 335.487C298.982 337.923 301.829 342.255 303.156 344.015C302.911 344.15 302.671 344.285 302.431 344.426C301.808 344.251 301.226 343.951 300.72 343.543C300.657 344.184 300.691 344.83 300.821 345.46C297.687 347.708 294.85 350.355 292.381 353.338H291.72C292.573 346.364 293.394 334.724 291.251 324.491C291.251 324.426 291.96 317.836 296.95 313.332C299.02 311.49 301.411 310.058 303.999 309.108L304.313 308.978C304.8 310.037 305.672 310.862 306.747 311.279C307.821 311.696 309.013 311.673 310.071 311.213C311.128 310.754 311.969 309.895 312.414 308.818C312.859 307.741 312.874 306.53 312.456 305.442C312.038 304.353 311.22 303.473 310.174 302.986C309.129 302.499 307.938 302.445 306.853 302.834C305.768 303.223 304.875 304.025 304.362 305.071C303.85 306.116 303.758 307.324 304.105 308.437L303.785 308.567C301.136 309.541 298.689 311.01 296.572 312.898C292.84 316.277 291.421 320.798 290.926 323.045C290.249 320.167 289.221 317.386 287.865 314.766C286.232 311.792 285.18 308.525 284.768 305.145C285.661 305.271 286.563 305.333 287.465 305.329C291.074 305.323 294.632 304.463 297.857 302.817C298.539 303.781 299.563 304.437 300.714 304.647C301.864 304.857 303.049 304.605 304.019 303.943C304.99 303.282 305.668 302.263 305.912 301.102C306.155 299.941 305.945 298.73 305.324 297.724C304.704 296.718 303.722 295.997 302.588 295.713C301.453 295.429 300.254 295.604 299.244 296.202C298.235 296.8 297.494 297.773 297.178 298.915C296.862 300.058 296.997 301.281 297.553 302.324C293.591 304.36 289.117 305.137 284.714 304.555C284.37 300.6 285.27 296.636 287.284 293.234C288.264 293.931 289.474 294.214 290.655 294.021C291.837 293.829 292.899 293.177 293.616 292.204C294.333 291.231 294.648 290.012 294.496 288.807C294.344 287.601 293.735 286.503 292.8 285.745C291.864 284.987 290.674 284.629 289.483 284.746C288.292 284.863 287.192 285.447 286.417 286.373C285.642 287.299 285.252 288.495 285.33 289.708C285.409 290.921 285.949 292.055 286.836 292.871C284.373 296.98 281.974 304.441 287.135 314.582C284.8 314.377 274.872 313.261 271.913 308.919C271.87 308.854 271.833 308.784 271.79 308.719C272.926 308.458 273.92 307.765 274.569 306.783C275.217 305.801 275.47 304.604 275.276 303.438C275.082 302.272 274.456 301.226 273.526 300.515C272.596 299.804 271.433 299.481 270.276 299.614C269.119 299.747 268.056 300.324 267.305 301.228C266.555 302.132 266.174 303.294 266.241 304.474C266.308 305.655 266.818 306.764 267.665 307.575C268.513 308.385 269.634 308.835 270.799 308.832C270.927 308.832 271.055 308.832 271.177 308.832C271.257 308.978 271.342 309.125 271.438 309.265C274.765 314.138 285.914 315.097 287.433 315.221C290.248 320.636 291.475 327.441 291.869 334.095C290.307 334.355 282.198 335.574 277.948 333.619C278.81 332.783 279.318 331.639 279.365 330.43C279.413 329.221 278.995 328.04 278.202 327.137C277.408 326.234 276.3 325.68 275.111 325.59C273.923 325.501 272.746 325.885 271.831 326.66C270.915 327.434 270.332 328.54 270.204 329.743C270.076 330.947 270.413 332.154 271.144 333.109C271.876 334.065 272.944 334.694 274.124 334.865C275.304 335.036 276.503 334.735 277.469 334.025C279.409 335.005 282.134 335.297 284.714 335.297C287.122 335.278 289.525 335.07 291.901 334.675C292.17 340.938 291.908 347.213 291.118 353.43H290.099C288.305 349.126 286.075 345.023 283.445 341.188C282.182 345.162 283.104 349.521 284.762 353.43H277.367C276.687 353.43 276.035 353.704 275.554 354.193C275.073 354.681 274.803 355.344 274.803 356.034V365.293C274.821 365.971 275.099 366.616 275.578 367.089C276.057 367.562 276.699 367.827 277.367 367.827H277.543L277.581 368.406H277.618L279.553 399.809L280.166 409.863C280.261 411.331 280.902 412.708 281.96 413.713C283.017 414.719 284.412 415.278 285.861 415.278H336.698C338.146 415.278 339.541 414.719 340.598 413.713C341.656 412.708 342.297 411.331 342.392 409.863L342.84 402.576L344.94 368.411H344.978L345.015 367.832H345.191C345.871 367.832 346.523 367.558 347.004 367.069C347.485 366.581 347.756 365.918 347.756 365.228V355.969C347.754 355.627 347.686 355.288 347.556 354.972C347.425 354.656 347.235 354.37 346.995 354.129C346.755 353.888 346.471 353.698 346.159 353.568C345.847 353.439 345.512 353.374 345.175 353.376ZM303.849 349.385C304.208 349.548 304.579 349.68 304.958 349.781C304.698 350.171 304.305 350.451 303.855 350.566C303.404 350.681 302.928 350.623 302.517 350.403C302.517 350.403 303.082 352.244 305.486 353.381H297.382C299.652 352.249 301.816 350.912 303.849 349.385Z" fill="url(#paint4_linear_2_64)"/>
</g>
<path d="M291.789 359.018L291.256 358.909C291.31 358.644 296.476 332.184 288.59 317.29C280.593 302.129 290.68 293.218 290.787 293.131L291.128 293.542C291.027 293.629 281.265 302.249 289.06 317.03C297.052 332.092 291.843 358.747 291.789 359.018Z" fill="#535461"/>
<path d="M288.724 308.199C287.721 308.213 286.72 308.13 285.733 307.95L285.85 307.408C288.71 307.834 291.627 307.65 294.413 306.867C297.199 306.084 299.794 304.719 302.031 302.86L302.367 303.283C298.506 306.456 293.691 308.19 288.724 308.199Z" fill="#535461"/>
<path d="M288.846 317.43C288.367 317.403 277.004 316.672 273.736 311.864C273.29 311.211 273.004 310.459 272.902 309.671C272.8 308.882 272.885 308.081 273.149 307.333L273.683 307.495C273.446 308.166 273.372 308.885 273.464 309.591C273.557 310.297 273.815 310.971 274.216 311.556C277.34 316.147 288.804 316.883 288.921 316.889L288.846 317.43Z" fill="#535461"/>
<path d="M292.243 326.174L291.709 326.12C291.709 326.055 292.397 319.683 297.217 315.33C299.197 313.566 301.485 312.194 303.962 311.285C305.598 310.614 306.894 310.078 307.848 308.865L308.264 309.206C307.198 310.527 305.801 311.112 304.159 311.789C301.739 312.676 299.504 314.014 297.569 315.736C292.904 319.948 292.248 326.137 292.243 326.174Z" fill="#535461"/>
<path d="M286.149 336.202C283.19 336.202 280.034 335.79 278.269 334.296C277.819 333.931 277.458 333.464 277.214 332.933C276.971 332.403 276.852 331.822 276.867 331.237H277.4C277.385 331.742 277.487 332.245 277.697 332.703C277.907 333.162 278.22 333.565 278.61 333.879C282.294 336.992 293.005 335.048 293.096 335.032L293.192 335.574C290.865 335.977 288.509 336.187 286.149 336.202Z" fill="#535461"/>
<path d="M291.795 355.054C291.795 355.054 301.786 341.102 312.055 342.374C312.055 342.379 301.093 354.21 291.795 355.054Z" fill="#4DB6AC"/>
<path d="M293.362 364.318C293.362 364.318 281.771 351.708 284.944 341.714C284.96 341.708 294.327 354.887 293.362 364.318Z" fill="#4DB6AC"/>
<path d="M325.656 339.358L328.514 338.779C328.514 338.779 326.114 341.486 325.656 341.681C325.613 342.259 325.613 342.84 325.656 343.419C320.17 367.318 299.947 356.76 299.947 356.76C307.315 356.933 307.944 353.858 307.944 353.858C303.679 353.219 302.805 350.376 302.805 350.376C303.189 350.583 303.635 350.638 304.057 350.531C304.48 350.424 304.848 350.163 305.092 349.797C300.464 348.579 301.093 343.998 301.093 343.998C301.92 344.596 302.883 344.969 303.892 345.081C303.359 344.442 299.035 339.163 301.664 336.418C301.664 336.418 304.863 342.217 313.26 342.742L313.83 342.628C313.734 342.21 313.696 341.78 313.718 341.351C313.718 339.735 314.35 338.186 315.475 337.044C316.6 335.901 318.126 335.26 319.716 335.26C323.715 335.26 324.574 337.582 324.574 337.582L327.431 335.882C327.373 335.882 327.085 338.773 325.656 339.358Z" fill="#00ACED"/>
<path d="M342.978 359.12L340.515 399.186L340.094 406.003C340.01 407.38 339.411 408.672 338.42 409.616C337.429 410.56 336.121 411.084 334.762 411.082H287.204C285.846 411.084 284.537 410.56 283.546 409.616C282.555 408.672 281.957 407.38 281.873 406.003L281.297 396.598L278.988 359.104L342.978 359.12Z" fill="#F0E4E4"/>
<path opacity="0.1" d="M279.469 367.242H342.515L342.978 359.662H279L279.469 367.242Z" fill="black"/>
<path d="M342.712 353.165H279.266C277.941 353.165 276.867 354.256 276.867 355.601V364.264C276.867 365.61 277.941 366.701 279.266 366.701H342.712C344.037 366.701 345.111 365.61 345.111 364.264V355.601C345.111 354.256 344.037 353.165 342.712 353.165Z" fill="#00B0FF"/>
<path opacity="0.15" d="M340.515 399.203L340.094 406.019C340.01 407.396 339.411 408.689 338.42 409.632C337.429 410.576 336.121 411.1 334.762 411.098H287.204C285.846 411.1 284.537 410.576 283.546 409.632C282.555 408.689 281.957 407.396 281.873 406.019L281.297 396.614C286.415 392.462 294.407 389.072 305.646 392.689C321.348 397.741 330.993 399.446 340.515 399.203Z" fill="#00B0FF"/>
<path d="M290.995 297.668C293.351 297.668 295.26 295.729 295.26 293.337C295.26 290.944 293.351 289.005 290.995 289.005C288.639 289.005 286.73 290.944 286.73 293.337C286.73 295.729 288.639 297.668 290.995 297.668Z" fill="#4DB6AC"/>
<path d="M301.925 307.685C304.281 307.685 306.19 305.745 306.19 303.353C306.19 300.961 304.281 299.022 301.925 299.022C299.569 299.022 297.66 300.961 297.66 303.353C297.66 305.745 299.569 307.685 301.925 307.685Z" fill="#4DB6AC"/>
<path d="M308.323 314.182C310.678 314.182 312.588 312.243 312.588 309.85C312.588 307.458 310.678 305.519 308.323 305.519C305.967 305.519 304.057 307.458 304.057 309.85C304.057 312.243 305.967 314.182 308.323 314.182Z" fill="#4DB6AC"/>
<path d="M273.133 311.474C275.489 311.474 277.399 309.535 277.399 307.143C277.399 304.751 275.489 302.812 273.133 302.812C270.778 302.812 268.868 304.751 268.868 307.143C268.868 309.535 270.778 311.474 273.133 311.474Z" fill="#4DB6AC"/>
<path d="M276.867 335.839C279.222 335.839 281.131 333.9 281.131 331.508C281.131 329.115 279.222 327.176 276.867 327.176C274.511 327.176 272.602 329.115 272.602 331.508C272.602 333.9 274.511 335.839 276.867 335.839Z" fill="#4DB6AC"/>
<g opacity="0.5">
<path opacity="0.5" d="M0.00533441 172.771C-0.0799716 177.925 1.41822 184.303 5.87012 192.019C5.87012 192.019 26.3329 218.863 29.3293 230.552L55.6409 267.662C54.4839 271.409 42.9836 309.201 43.1595 329.271C43.153 330.718 43.2242 332.164 43.3728 333.603C43.3728 333.603 43.4208 334.648 43.4261 336.418C43.4261 343.858 42.5464 362.277 34.8422 372.153H34.8688H34.9115L34.9595 372.185H34.9968H35.0341L34.8102 372.483L35.0448 372.624C33.1734 378.336 38.2438 384.822 38.2438 384.822L45.916 404.314H51.0343L55.9394 401.282L59.7782 406.48C59.7782 406.48 83.0134 406.48 89.4114 405.18C95.8093 403.881 82.1657 394.79 77.4739 392.186C74.872 390.746 71.881 383.582 69.7324 377.486C70.2587 376.887 70.7117 376.225 71.0813 375.515C71.0813 375.515 65.9629 361.227 71.0813 339.58C73.2566 330.376 75.5118 319.834 77.3832 310.76C80.9448 321.946 84.6556 333.462 87.2841 341.307C91.0962 352.678 91.9759 359.846 92.0132 363.972C92.0132 366.917 91.5441 368.152 91.5441 368.152L91.6347 368.265C91.5814 368.482 91.5441 368.585 91.5441 368.585L91.704 368.774C87.9719 374.806 94.1032 382.657 94.1032 382.657L101.775 402.148H106.894L111.799 399.116L115.638 404.314C115.638 404.314 138.873 404.314 145.271 403.014C151.669 401.715 138.025 392.624 133.333 390.02C129.671 387.99 125.229 374.611 123.459 368.845L124.382 368.59L124.248 368.195L124.382 368.157L118.837 351.703C113.292 348.335 104.34 287.695 104.34 287.695C104.34 287.695 102.81 294.436 102.65 293.938C102.73 292.855 103.183 289.855 104.34 283.369C105.014 279.634 105.346 275.844 105.332 272.048C105.332 257.266 99.6534 249.161 99.6534 249.161C99.4722 246.221 94.679 235.479 89.2248 224.088L96.865 200.2C98.7844 200.481 100.501 200.416 101.786 199.804L107.758 182.917C107.758 182.917 123.534 169.495 128.647 169.495C133.419 169.495 147.451 163.848 152.106 156.771C152.433 156.277 152.718 155.755 152.959 155.212C153.924 153.003 155.028 154.974 156.115 158.926C155.084 160.316 153.942 161.617 152.703 162.819C154.036 162.23 155.339 161.572 156.606 160.848C159.165 171.547 161.484 191.585 161.484 191.585V208.04L168.719 207.022L195.154 263.46C195.154 263.46 198.07 277.088 210.423 282.535L207.758 287.949L214.577 289.682L215.643 287.895L215.867 287.949L217.877 284.549C218.41 284.614 218.943 284.663 219.476 284.701C227.287 285.21 226.999 280.516 223.742 274.598L225.053 272.372C234.117 272.86 230.859 286.325 226.685 297.197C224.877 301.87 222.827 306.443 220.543 310.895C229.073 326.055 247.404 324.317 247.404 324.317L248.417 322.601H248.683L259.581 304.154C269.178 294.571 285.535 297.527 297.553 301.68C302.735 303.466 307.768 305.669 312.604 308.269L311.751 305.67L311.218 305.4L310.925 304.804L304.271 302.059L288.878 294.658L271.284 286.19C267.52 286.975 263.329 286.271 259.021 284.647C242.37 278.382 224.142 258.333 223.145 257.229L223.102 257.174L218.362 266.666C214.575 261.898 210.527 257.35 206.238 253.043L187.673 204.315L188.74 204.158L188.436 203.335L188.74 203.291L178.935 176.88C178.935 176.88 174.669 148.303 174.243 137.047C173.816 125.791 173.816 110.203 167.424 101.545L167.242 101.784L167.141 101.529L179.798 90.2079C180.054 90.2079 180.332 90.1754 180.561 90.1483L180.3 89.6935C186.364 89.0298 191.972 86.1136 196.048 81.5054C200.123 76.8971 202.378 70.9219 202.378 64.7281C202.378 64.4195 202.378 64.1109 202.378 63.8023C206.99 66.2116 211.554 66.3091 211.719 62.6815C212.396 47.868 203.146 33.1085 189.646 27.4614C178.279 22.7022 165.195 24.2128 153.599 28.3656C150.574 29.3569 147.692 30.7534 145.031 32.5184C142.418 34.3538 140.232 36.7307 138.126 39.1563C134.256 43.6448 130.577 48.5772 129.201 54.376C127.826 60.1747 129.287 67.0346 134.085 70.4781C135.754 71.6801 137.876 72.5626 138.66 74.4847C139.534 76.618 138.425 79.3576 139.801 81.2201C140.867 82.6766 142.946 82.7849 144.679 83.283C145.496 83.5188 146.276 83.8686 146.998 84.3225C134.48 87.0892 105.268 94.5285 97.9473 104.994C88.569 118.416 61.6923 127.074 61.6923 127.074L17.3491 143.961L2.42056 153.485L2.71914 154.162L2.42056 154.351C2.42056 154.351 3.32694 156.409 4.59053 159.105C1.5493 162.983 -0.0714027 167.814 0.00533441 172.771ZM79.1587 203.67C77.5965 200.568 76.2316 197.888 75.2026 195.879L78.3376 192.452C78.3376 192.452 78.8388 192.76 79.7078 193.253L79.1587 203.67Z" fill="url(#paint5_linear_2_64)"/>
</g>
<path d="M123.39 363.073C123.39 363.073 129.255 383.837 133.824 386.354C138.393 388.872 151.765 397.795 145.506 399.067C139.246 400.34 116.507 400.34 116.507 400.34L112.775 395.256L107.976 398.223H102.97L95.4308 379.197C95.4308 379.197 87.5027 369.029 95.4308 363.095C103.359 357.161 123.39 363.073 123.39 363.073Z" fill="#333333"/>
<path opacity="0.1" d="M74.9894 192.944C74.9894 192.944 100.443 242.096 100.859 248.874C100.859 248.874 109.203 260.737 105.449 281.901C101.696 303.066 105.449 286.563 105.449 286.563C105.449 286.563 114.22 345.915 119.637 349.304L125.059 365.406C125.059 365.406 98.7739 373.035 92.9304 365.406C92.9304 365.406 95.4363 358.628 88.7557 338.714C82.0752 318.8 68.3089 274.7 68.3089 274.7L34.0958 174.698L74.9894 192.944Z" fill="black"/>
<path d="M74.9894 192.522C74.9894 192.522 100.443 241.673 100.859 248.452C100.859 248.452 109.203 260.315 105.449 281.479C101.696 302.644 105.449 286.141 105.449 286.141C105.449 286.141 114.22 345.493 119.637 348.877L125.059 364.979C125.059 364.979 98.7739 372.607 92.9304 364.979C92.9304 364.979 95.4363 358.2 88.7557 338.286C82.0752 318.372 68.3089 274.305 68.3089 274.305L34.0958 174.303L74.9894 192.522Z" fill="#3AD29F"/>
<path opacity="0.1" d="M38.9423 176.279L72.4835 274.305C72.4835 274.305 86.2551 318.372 92.9303 338.286C99.6055 358.2 97.1049 364.979 97.1049 364.979C98.8004 367.193 102.229 368.125 106.233 368.325C100.698 368.568 95.5694 367.865 93.3515 364.979C93.3515 364.979 95.8573 358.2 89.1768 338.286C82.4963 318.372 68.73 274.305 68.73 274.305L34.5117 174.303L38.9423 176.279Z" fill="black"/>
<path d="M68.73 365.195C68.73 365.195 74.5948 385.959 79.164 388.477C83.7332 390.995 97.1049 399.917 90.8456 401.19C84.5863 402.462 61.8416 402.478 61.8416 402.478L58.1094 397.394L53.311 400.361H48.3046L40.7923 381.292C40.7923 381.292 32.8642 371.124 40.7923 365.19C48.7204 359.256 68.73 365.195 68.73 365.195Z" fill="#333333"/>
<path opacity="0.1" d="M74.9894 192.944C74.9894 192.944 100.443 242.096 100.859 248.874C100.859 248.874 109.203 260.737 105.449 281.901C101.696 303.066 105.449 286.563 105.449 286.563C105.449 286.563 114.22 345.915 119.637 349.304L125.059 365.406C125.059 365.406 98.7739 373.035 92.9304 365.406C92.9304 365.406 95.4363 358.628 88.7557 338.714C82.0752 318.8 68.3089 274.7 68.3089 274.7L34.0958 174.698L74.9894 192.944Z" fill="black"/>
<path opacity="0.1" d="M13.2331 156.084C13.2331 156.084 -4.70783 166.68 9.8955 192.1C9.8955 192.1 29.9264 218.37 32.8215 229.811L58.6906 266.249C58.6906 266.249 44.5031 311.588 46.5878 330.679C46.5878 330.679 47.8407 356.527 38.2438 368.817C38.2438 368.817 65.7816 385.764 72.8994 372.207C72.8994 372.207 67.893 358.222 72.8994 337.014C77.9058 315.806 83.3334 287.435 83.3334 287.435C83.3334 287.435 104.196 267.521 83.3334 237.012L54.1267 166.252L51.205 149.727L37.0175 147.183L13.2331 156.084Z" fill="black"/>
<path opacity="0.1" d="M12.3854 156.506C12.3854 156.506 -5.55556 167.102 9.04778 192.522C9.04778 192.522 29.0787 218.792 31.9738 230.233L57.8428 266.671C57.8428 266.671 43.6554 312.011 45.7401 331.101C45.7401 331.101 46.993 356.949 37.3961 369.24C37.3961 369.24 64.9339 386.187 72.0516 372.629C72.0516 372.629 67.0452 358.644 72.0516 337.436C77.058 316.228 82.4856 287.857 82.4856 287.857C82.4856 287.857 103.348 267.943 82.4856 237.434L53.279 166.669L50.3679 150.171L36.1804 147.627L12.3854 156.506Z" fill="black"/>
<path d="M12.3854 156.084C12.3854 156.084 -5.55556 166.68 9.04778 192.1C9.04778 192.1 23.7631 211.402 29.8038 224.12C32.4294 229.58 35.5211 234.796 39.0435 239.708L57.8908 266.238C57.8908 266.238 43.7034 311.577 45.788 330.668C45.788 330.668 47.041 356.516 37.444 368.807C37.444 368.807 64.9819 385.753 72.0996 372.196C72.0996 372.196 67.0932 358.211 72.0996 337.003C77.106 315.795 82.5336 287.424 82.5336 287.424C82.5336 287.424 103.396 267.51 82.5336 237.001L53.2896 166.252L50.3679 149.727L36.1804 147.183L12.3854 156.084Z" fill="#3AD29F"/>
<path opacity="0.1" d="M12.3854 156.084L36.1698 147.188L39.5767 147.789L17.4131 156.078C17.4131 156.078 -0.52783 166.674 14.0755 192.094C14.0755 192.094 28.7908 211.396 34.8315 224.115C37.4486 229.574 40.5314 234.79 44.0446 239.703L62.8919 266.233C62.8919 266.233 48.7044 311.572 50.7891 330.663C50.7891 330.663 52.042 356.511 42.4451 368.801C42.4451 368.801 54.308 376.1 64.4647 377.286C53.7162 378.818 37.4334 368.801 37.4334 368.801C47.0303 356.511 45.7774 330.663 45.7774 330.663C43.6927 311.594 57.8802 266.233 57.8802 266.233L39.0329 239.703C35.5196 234.79 32.4368 229.574 29.8198 224.115C23.7737 211.396 9.06377 192.094 9.06377 192.094C-5.54489 166.674 12.3854 156.084 12.3854 156.084Z" fill="black"/>
<path d="M99.6055 195.911L89.1608 228.538C89.1608 228.538 100.011 267.944 91.6667 270.488C83.3227 273.033 79.5639 227.271 79.5639 227.271L81.6486 187.438L99.6055 195.911Z" fill="#BE7C5E"/>
<path d="M185.978 201.846L205.172 252.269C205.172 252.269 237.695 284.473 218.106 283.201C198.518 281.929 194.322 262.437 194.322 262.437L165.936 201.846H185.978Z" fill="#BE7C5E"/>
<path d="M179.719 92.5252L155.518 114.134L141.747 89.5311C141.747 89.5311 164.278 87.4141 165.531 78.5129C166.784 69.6118 179.719 92.5252 179.719 92.5252Z" fill="#BE7C5E"/>
<path d="M167.621 105.66L164.699 98.4539L138.409 104.388L134.655 149.727L154.686 147.183L163.031 127.691L166.368 109.472L167.621 105.66Z" fill="#BE7C5E"/>
<path opacity="0.1" d="M157.187 99.2769L157.395 86.3529C157.395 86.3529 108.344 95.0158 99.1896 108.173C90.0352 121.329 63.7236 129.781 63.7236 129.781L20.3295 146.306L5.72084 155.656C5.72084 155.656 12.8119 171.758 14.9019 172.603C16.9919 173.448 35.3487 152.261 35.3487 152.261L43.6927 153.111L21.9823 185.321L77.8951 225.577L74.5682 198.9L79.9904 192.945C79.9904 192.945 96.6784 203.113 102.916 200.146L108.781 183.621C108.781 183.621 124.243 170.486 129.228 170.486C133.899 170.486 147.633 164.958 152.154 158.033C152.475 157.549 152.755 157.038 152.991 156.506C156.329 148.877 161.335 192.1 161.335 192.1V208.202L188.041 204.412L178.444 178.564C178.444 178.564 174.27 150.599 173.854 139.581C173.438 128.563 173.438 113.311 167.179 104.837L159.272 115.406L147.169 144.643L149.675 120.49L157.187 99.2769Z" fill="black"/>
<path d="M157.187 98.4538L152.805 85.9522C152.805 85.9522 108.355 94.2199 99.1896 107.355C90.0246 120.49 63.7236 128.963 63.7236 128.963L20.3295 145.488L5.72084 154.811C5.72084 154.811 12.8119 170.914 14.9019 171.758C16.9919 172.603 35.3487 151.417 35.3487 151.417L43.6927 152.267L21.9823 184.471L77.9058 224.726L74.5682 198.034L79.9904 192.078C79.9904 192.078 96.6784 202.246 102.916 199.279L108.781 182.755C108.781 182.755 124.243 169.62 129.228 169.62C133.899 169.62 147.633 164.092 152.154 157.167C152.475 156.683 152.755 156.172 152.991 155.64C156.329 148.011 161.335 191.234 161.335 191.234V207.336L188.041 203.546L178.444 177.698C178.444 177.698 174.27 149.733 173.854 138.715C173.438 127.697 173.438 112.444 167.179 103.971L159.272 114.556L147.169 143.793L149.675 119.64L157.187 98.4538Z" fill="#252A62"/>
<path opacity="0.1" d="M103.556 124.091C103.556 124.091 80.6302 151.211 79.7718 163.924L103.556 124.091Z" fill="black"/>
<path opacity="0.1" d="M135.701 138.92C135.701 138.92 117.754 157.99 115.67 168.58L135.701 138.92Z" fill="black"/>
<path opacity="0.1" d="M79.788 172.37C79.788 172.37 79.3717 182.116 79.788 187.2V172.37Z" fill="black"/>
<path opacity="0.1" d="M73.5285 195.7C73.5285 195.7 38.4783 172.819 34.3036 174.092L73.5285 195.7Z" fill="black"/>
<path opacity="0.1" d="M165.936 78.9623C167.136 70.4457 179.041 91.047 180.054 92.8229C179.255 92.9023 178.444 92.9438 177.623 92.9475C174.35 92.9509 171.11 92.2778 168.101 90.969C165.091 89.6603 162.376 87.7434 160.12 85.335C163.217 83.7486 165.568 81.6695 165.936 78.9623Z" fill="black"/>
<path d="M177.218 92.5252C190.583 92.5252 201.418 81.5223 201.418 67.9496C201.418 54.3769 190.583 43.374 177.218 43.374C163.853 43.374 153.018 54.3769 153.018 67.9496C153.018 81.5223 163.853 92.5252 177.218 92.5252Z" fill="#BE7C5E"/>
<path opacity="0.1" d="M175 64.5819C173.566 67.2187 172.18 69.9638 171.801 72.9525C171.396 76.201 172.233 79.5038 172.276 82.7957C172.278 86.3208 171.384 89.7869 169.679 92.8576C167.974 95.9283 165.517 98.4995 162.546 100.322C162.04 100.564 161.596 100.921 161.25 101.367C161.029 101.758 160.908 102.199 160.898 102.65C160.775 104.301 161.202 105.953 161.186 107.609C161.17 109.266 160.525 111.113 159.016 111.751C162.791 116.591 165.52 122.184 167.026 128.165C168.533 134.146 168.783 140.382 167.76 146.468C167.088 150.328 165.851 154.189 163.452 157.264C160.861 160.594 157.107 162.776 153.285 164.487C155.806 161.931 158.499 159.018 158.616 155.402C158.733 152.332 156.969 149.565 155.599 146.82C152.608 140.942 151.435 134.284 152.234 127.718C153.077 121.411 155.913 115.19 154.772 108.936C154.239 105.969 152.81 103.202 152.437 100.208C152.17 98.0695 152.437 95.8767 152.005 93.7705C151.631 92.0948 150.823 90.5508 149.666 89.2974C148.509 88.0441 147.043 87.1267 145.42 86.6398C143.725 86.1526 141.688 86.0497 140.622 84.6203C139.278 82.8173 140.361 80.1156 139.508 78.0257C138.74 76.1469 136.666 75.2806 135.029 74.1057C130.337 70.738 128.903 64.0243 130.231 58.3501C131.558 52.6759 135.178 47.8463 138.969 43.4553C141.017 41.0784 143.171 38.7557 145.724 36.9581C148.36 35.2241 151.213 33.8582 154.207 32.8974C165.558 28.842 178.364 27.3585 189.486 32.0148C202.698 37.5428 211.751 51.9882 211.09 66.4823C210.722 74.0245 190.995 65.1667 192.563 53.0224C193.213 47.9816 187.002 49.1024 183.142 52.9357C179.799 56.2764 177.271 60.4291 175 64.5819Z" fill="black"/>
<path d="M174.467 64.0405C173.033 66.6773 171.647 69.4223 171.268 72.411C170.863 75.6596 171.7 78.9623 171.743 82.2542C171.745 85.7794 170.851 89.2454 169.146 92.3162C167.441 95.3869 164.984 97.9581 162.012 99.7804C161.507 100.022 161.063 100.38 160.717 100.825C160.496 101.217 160.375 101.658 160.365 102.109C160.242 103.76 160.669 105.411 160.653 107.068C160.637 108.725 159.992 110.571 158.483 111.21C162.257 116.05 164.986 121.642 166.493 127.623C167.999 133.605 168.249 139.841 167.227 145.927C166.555 149.787 165.318 153.647 162.919 156.723C160.328 160.053 156.574 162.235 152.751 163.945C155.273 161.39 157.966 158.477 158.083 154.86C158.2 151.79 156.435 149.024 155.065 146.279C152.075 140.401 150.902 133.743 151.701 127.177C152.543 120.869 155.38 114.648 154.239 108.395C153.706 105.428 152.277 102.661 151.904 99.6667C151.637 97.528 151.904 95.3352 151.472 93.2291C151.097 91.5534 150.29 90.0094 149.133 88.756C147.975 87.5026 146.51 86.5853 144.887 86.0984C143.192 85.6111 141.155 85.5082 140.089 84.0789C138.745 82.2759 139.827 79.5742 138.974 77.4842C138.207 75.6055 136.133 74.7392 134.496 73.5643C129.804 70.1966 128.37 63.4828 129.697 57.8086C131.025 52.1344 134.645 47.3048 138.436 42.9138C140.483 40.537 142.637 38.2142 145.191 36.4167C147.826 34.6826 150.68 33.3168 153.674 32.3559C165.025 28.3006 177.831 26.8171 188.953 31.4734C202.165 37.0014 211.218 51.4468 210.557 65.9409C210.189 73.4831 190.462 64.6252 192.029 52.4809C192.68 47.4402 186.468 48.561 182.608 52.3943C179.265 55.7349 176.738 59.8877 174.467 64.0405Z" fill="#FDD835"/>
<path d="M154.249 112.65H159.714C160.509 112.65 161.154 111.996 161.154 111.188V111.145C161.154 110.338 160.509 109.683 159.714 109.683H154.249C153.454 109.683 152.81 110.338 152.81 111.145V111.188C152.81 111.996 153.454 112.65 154.249 112.65Z" fill="#252A62"/>
<path d="M207.886 284.685L214.561 286.379L223.566 271.138L224.574 269.432C234.314 269.698 230.102 284.647 225.667 295.638C223.07 302.07 220.399 307.148 220.399 307.148C228.156 320.939 244.21 320.441 246.428 320.3H246.689L257.352 302.249L257.955 301.231C267.408 290.873 283.84 294.674 295.564 299.439C300.293 301.354 304.866 303.646 309.24 306.293L308.403 303.748L307.87 303.483L301.066 300.234L286.005 292.99L268.778 284.701C265.094 285.47 260.994 284.782 256.782 283.19C240.488 277.061 222.66 257.434 221.668 256.357L221.625 256.308L207.886 284.685Z" fill="#4D8AF0"/>
<path opacity="0.1" d="M207.886 284.685L214.561 286.379L223.566 271.138L224.574 269.432C234.314 269.698 230.102 284.647 225.667 295.638C223.07 302.07 220.399 307.148 220.399 307.148C228.156 320.939 244.21 320.441 246.428 320.3H246.689L257.352 302.249L257.955 301.231C267.408 290.873 283.84 294.674 295.564 299.439C300.293 301.354 304.866 303.646 309.24 306.293L308.403 303.748L307.87 303.483L301.066 300.234L286.005 292.99L268.778 284.701C265.094 285.47 260.994 284.782 256.782 283.19C240.488 277.061 222.66 257.434 221.668 256.357L221.625 256.308L207.886 284.685Z" fill="black"/>
<path d="M206.633 286.379L213.308 288.074L214.342 286.325L223.321 271.127H223.561C232.454 271.604 229.244 284.782 225.16 295.421C223.391 299.989 221.386 304.458 219.151 308.811C227.495 323.64 245.436 321.946 245.436 321.946L246.428 320.267L256.702 302.876C256.915 302.644 257.134 302.416 257.352 302.2C266.752 292.822 282.758 295.703 294.514 299.78C299.594 301.542 304.528 303.714 309.267 306.277L307.598 302.887L301.082 300.18L292.674 296.71L267.541 286.341C263.617 287.153 259.277 286.255 254.884 284.322C239.134 277.419 222.606 257.429 221.689 256.303L221.647 256.254L206.633 286.379Z" fill="#4D8AF0"/>
<path d="M276.301 339.45C276.513 339.45 276.716 339.365 276.866 339.212C277.016 339.06 277.1 338.854 277.1 338.638C277.1 338.423 277.016 338.216 276.866 338.064C276.716 337.912 276.513 337.826 276.301 337.826C276.089 337.826 275.886 337.912 275.736 338.064C275.586 338.216 275.502 338.423 275.502 338.638C275.502 338.854 275.586 339.06 275.736 339.212C275.886 339.365 276.089 339.45 276.301 339.45Z" fill="#535461"/>
<path opacity="0.07" d="M219.151 308.811C227.495 323.64 245.436 321.946 245.436 321.946L246.428 320.267H246.689L257.352 302.216C266.752 292.838 282.758 295.719 294.514 299.796L295.58 299.406C295.848 299.318 296.108 299.21 296.359 299.081C296.449 298.989 295.02 298.09 292.701 296.737C290.915 295.692 288.601 295.226 286.047 293.807L268.805 285.529C265.12 286.298 261.02 285.61 256.808 284.018C256.19 284.381 255.55 283.932 254.894 284.36C250.008 287.533 245.444 291.189 241.267 295.275C237.439 299.162 230.491 297.505 225.672 295.632L225.165 295.426C223.395 299.992 221.387 304.46 219.151 308.811Z" fill="black"/>
<g opacity="0.2">
<path opacity="0.2" d="M311.49 327.761C311.569 329.572 311.812 331.371 312.215 333.137C312.487 334.177 312.865 335.189 313.063 336.245C313.676 339.586 312.471 343.451 314.475 346.169C314.154 346.387 313.764 346.474 313.383 346.413C313.001 346.352 312.657 346.147 312.417 345.839C311.965 345.21 311.719 344.452 311.714 343.673C311.5 340.809 312.162 337.777 311.037 335.14C310.445 333.744 309.378 332.558 309.027 331.08C308.6 329.288 309.293 327.414 309.16 325.579C309.053 324.084 308.403 322.688 308.051 321.247C306.921 316.575 308.883 311.707 308.648 306.899C311.986 312.362 311.021 321.356 311.49 327.761Z" fill="#4D8AF0"/>
</g>
</g>
<defs>
<radialGradient id="paint0_radial_2_64" cx="0" cy="0" r="1" gradientUnits="userSpaceOnUse" gradientTransform="translate(228.199 389.841) scale(30.461 30.9321)">
<stop offset="0.09" stop-color="#FA8F21"/>
<stop offset="0.78" stop-color="#D82D7E"/>
</radialGradient>
<radialGradient id="paint1_radial_2_64" cx="0" cy="0" r="1" gradientUnits="userSpaceOnUse" gradientTransform="translate(243.267 389.062) scale(26.8033 27.2179)">
<stop offset="0.64" stop-color="#8C3AAA" stop-opacity="0"/>
<stop offset="1" stop-color="#8C3AAA"/>
</radialGradient>
<linearGradient id="paint2_linear_2_64" x1="403.589" y1="392.294" x2="403.589" y2="262.594" gradientUnits="userSpaceOnUse">
<stop stop-color="#808080" stop-opacity="0.25"/>
<stop offset="0.54" stop-color="#808080" stop-opacity="0.12"/>
<stop offset="1" stop-color="#808080" stop-opacity="0.1"/>
</linearGradient>
<linearGradient id="paint3_linear_2_64" x1="112641" y1="78975" x2="112641" y2="62830.2" gradientUnits="userSpaceOnUse">
<stop stop-color="#808080" stop-opacity="0.25"/>
<stop offset="0.54" stop-color="#808080" stop-opacity="0.12"/>
<stop offset="1" stop-color="#808080" stop-opacity="0.1"/>
</linearGradient>
<linearGradient id="paint4_linear_2_64" x1="47152" y1="91955.4" x2="59613.4" y2="91955.4" gradientUnits="userSpaceOnUse">
<stop stop-color="#808080" stop-opacity="0.25"/>
<stop offset="0.54" stop-color="#808080" stop-opacity="0.12"/>
<stop offset="1" stop-color="#808080" stop-opacity="0.1"/>
</linearGradient>
<linearGradient id="paint5_linear_2_64" x1="-132532" y1="308097" x2="-132532" y2="38572.7" gradientUnits="userSpaceOnUse">
<stop stop-color="#808080" stop-opacity="0.25"/>
<stop offset="0.54" stop-color="#808080" stop-opacity="0.12"/>
<stop offset="1" stop-color="#808080" stop-opacity="0.1"/>
</linearGradient>
<clipPath id="clip0_2_64">
<rect width="559" height="427.038" fill="white"/>
</clipPath>
</defs>
</svg>
